/* XPM */
static char *result[] = {
/* columns rows colors chars-per-pixel */
"64 64 5 1 ",
"  c #9C5A3C",
". c #22B14C",
"X c #E5AA7A",
"o c #6F3198",
"O c None",
/* pixels */
"OOOOOOOOOOOOOOOOOO............................OOOOOOOOOOOOOOOOOO",
"OOOOOOOOOOOOOOOO..................................OOOOOOOOOOOOOO",
"OOOOOOOOOOOOOO......................................OOOOOOOOOOOO",
"OOOOOOOOOOOOO........................oooooooooo.......OOOOOOOOOO",
"OOOOOOOOOOO..........................oooooooooo........OOOOOOOOO",
"OOOOOOOOOO...........................oooooooooo..........OOOOOOO",
"OOOOOOOOO.........oooooooooo.........oooooooooo..........OOOOOOO",
"OOOOOO............oooooooooo.........oooooooooo...........OOOOOO",
"OOOOO.............oooooooooo.........oooooooooo............OOOOO",
"OOO...............oooooooooo.........oooooooooo..oooooooooo.OOOO",
"OO................oooooooooo.........oooooooooo..oooooooooo.OOOO",
"O.................oooooooooo.........oooooooooo..oooooooooo..OOO",
"O.................oooooooooo.........oooooooooo..oooooooooo..OOO",
"..................oooooooooo.....................oooooooooo...OO",
"..................oooooooooo.....................oooooooooo....O",
"..................oooooooooo.....................oooooooooo....O",
".................................................oooooooooo....O",
".................................................oooooooooo....O",
".................................................oooooooooo....O",
".....oooooooooo................................................O",
".....oooooooooo........................oooooooooo..............O",
".....oooooooooo........................oooooooooo..............O",
".....oooooooooo........................oooooooooo..............O",
".....oooooooooo......oooooooooo........oooooooooo..............O",
".....oooooooooo......oooooooooo........oooooooooo..............O",
".....oooooooooo......oooooooooo........oooooooooo..............O",
".....oooooooooo......oooooooooo........oooooooooo..............O",
".....oooooooooo......oooooooooo........oooooooooo..............O",
".....oooooooooo......oooooooooo........oooooooooo..............O",
".....................oooooooooo........oooooooooo..............O",
".....................oooooooooo................................O",
".....................oooooooooo................................O",
".....................oooooooooo................................O",
"O..............................................................O",
"OOOOOOOOOO....................................................OO",
"OOOOOOOOOO...................................................OOO",
"OOOOOOOO           ........................................OOOOO",
"OOOOOOOO           XXXXXXXXXXXXXXXXXXXXX          OOOOOOOOOOOOOO",
"OOOOOOOO            XXXXXXXXXXXXXXX               OOOOOOOOOOOOOO",
"OOOOOOOO     XXXXXXXXXXXXXXXXXXXXXX               OOOOOOOOOOOOOO",
"OOOOOOOO     XXXXXXXXXX      XXXXXXXXXX   XXXXXXXXXXOOOOOOOOOOOO",
"OOOOOOOO     XXXXXXXXXX      XXXXXXXXXX   XXXXXXXXXXOOOOOOOOOOOO",
"OOOOOOOO     XXXXXXXXXX      XXXXXXXXXX   XXXXXXXXXXOOOOOOOOOOOO",
"OOOOOOOO     XXXXXXXXXX      XXXXXXXXXX   XXXXXXXXXXOOOOOOOOOOOO",
"OOOOOOOO     XXXXXXXXXX      XXXXXXXXXXXXXXXXXXXXXXXOOOOOOOOOOOO",
"OOOOOOOO     XXXXXXXXXX      XXXXXXXXXXXXXXXXXXXXXXXOOOOOOOOOOOO",
"OOOOOOOOO    XXXXXXXXXX      XXXXXXXXXXXXXXXXXXXXXXXOOOOOOOOOOOO",
"OOOOOOOOO    XXXXXXXXXX      XXXXXXXXXXXXXXXXXXXXXXXOOOOOOOOOOOO",
"OOOOOOOOO    XXXXXXXXXX      XXXXXXXXXXXXXXXXXXXXXXXOOOOOOOOOOOO",
"OOOOOOOOOO                   XXXXXXXXXXXXXXXXXXXXXXXOOOOOOOOOOOO",
"OOOOOOOOOO            XXXXXXXXX       XXXXXXXXXX  OOOOOOOOOOOOOO",
"OOOOOOOOOO            XXXXXXXXX       XXXXXXXXXX   OOOOOOOOOOOOO",
"OOOOOOOOOO           XXXXXXXXXXX XXXX XXXXXXXXXX   OOOOOOOOOOOOO",
"OOOOOOOOOO           XXXXXXXXXXX XXXX XXXXXXXXXX    OOOOOOOOOOOO",
"OOOOOOOOOO           XXXXXXXXXXX XXXX XXXXXXXXXX    OOOOOOOOOOOO",
"OOOOOOOOOO           XXXXXXXXXXX X    XXXXXXXXXX    OOOOOOOOOOOO",
"OOOOOOOOOO           XXXXXXXXXXX X  XXXXXXXXXX      OOOOOOOOOOOO",
"OOOOOOOOOO  XXXXXXXXXXXXXXXXXXXX X  XXXXXXXXXX      OOOOOOOOOOOO",
"OOOOOOOOOO  XXXXXXXXXXXXXXXXXXXX X  XXXXXXXXXX      OOOOOOOOOOOO",
"OOOOOOOOOO  XXXXXXXXXXXXXXXXXXXX X  XXXXXXXXXX      OOOOOOOOOOOO",
"OOOOOOOOOO  XXXXXXXXXXXXXXXXXXXX X  XXXXXXXXXX      OOOOOOOOOOOO",
"OOOOOOOOOO  XXXXXXXXXXXXXXXXXXXX X  XXXXXXXXXX      OOOOOOOOOOOO",
"OOOOOOOOOO  XXXXXXXXXXXXXXXXXXXXXX  XXXXXXXXXX      OOOOOOOOOOOO",
"OOOOOOOOOOXXXXXXXXXXXXXXXXXXXXXXXX  XXXXXXXXXX      OOOOOOOOOOOO"
};
