/* XPM */
static char *result[] = {
/* columns rows colors chars-per-pixel */
"64 64 229 2 ",
"   c #1A5E51",
".  c #225E4F",
"X  c #274D51",
"o  c #224A5A",
"O  c #234C5D",
"+  c #274E5D",
"@  c #284B5F",
"#  c #235050",
"$  c #225151",
"%  c #275655",
"&  c #215950",
"*  c #225851",
"=  c #235A50",
"-  c #225A51",
";  c #235E51",
":  c #235D52",
">  c #275F51",
",  c #255C52",
"<  c #275D53",
"1  c #255E52",
"2  c #215854",
"3  c #275854",
"4  c #235F55",
"5  c #205D56",
"6  c #255559",
"7  c #255758",
"8  c #27525C",
"9  c #27565D",
"0  c #2B5559",
"q  c #2A5758",
"w  c #255B58",
"e  c #225E58",
"r  c #23585E",
"t  c #2A5B5D",
"y  c #1C7442",
"u  c #1F6E52",
"i  c #1F7752",
"p  c #256A42",
"a  c #226B44",
"s  c #206D4F",
"d  c #25704D",
"f  c #236352",
"g  c #236450",
"h  c #216654",
"j  c #276655",
"k  c #2D6256",
"l  c #286456",
"z  c #2C6455",
"x  c #2C6755",
"c  c #226C51",
"v  c #236F52",
"b  c #22655E",
"n  c #22665E",
"m  c #23665E",
"M  c #25655C",
"N  c #27665D",
"B  c #29625F",
"V  c #23695E",
"C  c #276D5F",
"Z  c #257752",
"A  c #207555",
"S  c #237555",
"D  c #227358",
"F  c #287359",
"G  c #29715A",
"H  c #2C725F",
"J  c #2C745E",
"K  c #244C63",
"L  c #294669",
"P  c #294A6C",
"I  c #245763",
"U  c #255265",
"Y  c #255564",
"T  c #265564",
"R  c #295263",
"E  c #255862",
"W  c #295865",
"Q  c #23516C",
"!  c #28556D",
"~  c #28566D",
"^  c #275D6D",
"/  c #265C6E",
"(  c #2A5B6C",
")  c #236060",
"_  c #226460",
"`  c #236460",
"'  c #276560",
"]  c #266461",
"[  c #266364",
"{  c #206565",
"}  c #266565",
"|  c #276565",
" . c #296060",
".. c #2A6060",
"X. c #286260",
"o. c #286360",
"O. c #296262",
"+. c #2C6261",
"@. c #286561",
"#. c #296465",
"$. c #2B6565",
"%. c #226B60",
"&. c #236B60",
"*. c #276E61",
"=. c #276D65",
"-. c #2A6A60",
";. c #266568",
":. c #26626C",
">. c #26646C",
",. c #27646C",
"<. c #29656C",
"1. c #266E6C",
"2. c #286E6C",
"3. c #306765",
"4. c #376966",
"5. c #33616C",
"6. c #277060",
"7. c #227560",
"8. c #277460",
"9. c #287261",
"0. c #2A7560",
"q. c #2A7562",
"w. c #2B7065",
"e. c #63564F",
"r. c #68564E",
"t. c #635F4B",
"y. c #665F4B",
"u. c #635F4C",
"i. c #635E4D",
"p. c #625E4E",
"a. c #665F50",
"s. c #665C53",
"d. c #655B54",
"f. c #695C50",
"g. c #6B5D51",
"h. c #5F624E",
"j. c #616346",
"k. c #636247",
"l. c #65654A",
"z. c #62624D",
"x. c #63624D",
"c. c #66614D",
"v. c #6A6753",
"b. c #46756F",
"n. c #487172",
"m. c #95593E",
"M. c #945A3E",
"N. c #985A3D",
"B. c #9C5A3C",
"V. c #9E5C3D",
"C. c #A05F3F",
"Z. c #B67F5B",
"A. c #B77F5B",
"S. c #BE7F59",
"D. c #228A4E",
"F. c #238B4E",
"G. c #248A4F",
"H. c #218E4D",
"J. c #248D4F",
"K. c #22944C",
"L. c #258752",
"P. c #248653",
"I. c #228755",
"U. c #238756",
"Y. c #228A53",
"T. c #268855",
"R. c #268955",
"E. c #248B54",
"W. c #238D54",
"Q. c #248D54",
"!. c #248F55",
"~. c #278F57",
"^. c #2B8855",
"/. c #248358",
"(. c #248B58",
"). c #248B5B",
"_. c #258E5B",
"`. c #239353",
"'. c #259153",
"]. c #249452",
"[. c #249355",
"{. c #259056",
"}. c #249256",
"|. c #269455",
" X c #249158",
".X c #21AF4B",
"XX c #24AC4B",
"oX c #25AE4B",
"OX c #21AB4C",
"+X c #21AB4D",
"@X c #20AC4C",
"#X c #21AC4D",
"$X c #21AE4C",
"%X c #21AF4C",
"&X c #24AD4E",
"*X c #29AB4B",
"=X c #2BAE4C",
"-X c #22B14C",
";X c #2EB04E",
":X c #26A950",
">X c #658545",
",X c #B6805C",
"<X c #83886B",
"1X c #858274",
"2X c #8B8970",
"3X c #898973",
"4X c #8B8E70",
"5X c #8A8D73",
"6X c #C0825B",
"7X c #C2845C",
"8X c #DCA577",
"9X c #D9A478",
"0X c #D9A578",
"qX c #D9A479",
"wX c #D9A579",
"eX c #DAA478",
"rX c #DAA578",
"tX c #DAA479",
"yX c #DAA579",
"uX c #D9A678",
"iX c #D9A679",
"pX c #DAA678",
"aX c #DAA778",
"sX c #DAA679",
"dX c #E0A576",
"fX c #E2A778",
"gX c #E5AA7A",
"hX c #6A3993",
"jX c #6F3198",
/* pixels */
"2 2 $ $ # # O o o o + + + + U Y E U.-X-X-X-X-X-X-X-X-X-X-X-X-X-X-X-X-X-X-X-X-X-X-X-X-X-X-XD.& . . - % % % % % % * : =     h h y ",
"g g g f 5 5 5 5 + + + + + 8 E U.-X-X-X-X-X-X-X-X-X-X-X-X-X-X-X-X-X-X-X-X-X-X-X-X-X-X-X-X-X-X-X-X-XG.< 3 % % % % * : = = = > > y ",
"g f e e 5 5 5 5 + + + + 8 P.-X-X-X-X-X-X-X-X-X-X-X-X-X-X-X-X-X-X-X-X-X-X&X:X:X:X:X:X:X:X:X:X&X-X-X-X-XG.< 3 % % * : = = = > > p ",
"M M M  .X.X.X.l 0 6 7 w L.-X-X-X-X-X-X-X-X-X-X-X-X-X-X-X-X-X-X-X-X-X-X-Xn.jXjXjXjXjXjXjXjXjXn.-X-X-X-X-X-XF.1 , % ; : : : 4 4 a ",
"M  . . .X.X.l k 0 q L.-X-X-X-X-X-X-X-X-X-X-X-X-X-X-X-X-X-X-X-X-X-X-X-X-Xn.jXjXjXjXjXjXjXjXjXn.-X-X-X-X-X-X-XT.t T 9 r r r I I 4 ",
"M  . . .l l k k q L.-X-X-X-X-X-X-X&X:X:X:X:X:X:X:X:X:X&X-X-X-X-X-X-X-X-Xn.jXjXjXjXjXjXjXjXjXn.-X-X-X-X-X-X-X-X-X/.9 r r r I I 4 ",
"M  .o.o.l j x x L.-X-X-X-X-X-X-X-Xn.jXjXjXjXjXjXjXjXjXn.-X-X-X-X-X-X-X-Xn.jXjXjXjXjXjXjXjXjXn.-X-X-X-X-X-X-X-X-XJ.' ......C m v ",
"o.@.@.@.z `.-X-X-X-X-X-X-X-X-X-X-Xn.jXjXjXjXjXjXjXjXjXn.-X-X-X-X-X-X-X-Xn.jXjXjXjXjXjXjXjXjXn.-X-X-X-X-X-X-X-X-X-X!.B ....M M D ",
"o.@.H J `.-X-X-X-X-X-X-X-X-X-X-X-Xn.jXjXjXjXjXjXjXjXjXn.-X-X-X-X-X-X-X-Xn.jXjXjXjXjXjXjXjXjXn.-X&X:X:X:X:X:X:X:X:X:X~.6.*.0.0.Z ",
"9.H |.-X-X-X-X-X-X-X-X-X-X-X-X-X-Xn.jXjXjXjXjXjXjXjXjXn.-X-X-X-X-X-X-X-Xn.jXjXjXjXjXjXjXjXjXn.-Xn.jXjXjXjXjXjXjXjXjXn.{.*.0.0.Z ",
"8.|.-X-X-X-X-X-X-X-X-X-X-X-X-X-X-Xn.jXjXjXjXjXjXjXjXjXn.-X-X-X-X-X-X-X-Xn.jXjXjXjXjXjXjXjXjXn.-Xn.jXjXjXjXjXjXjXjXjXn.[.6.0.0.Z ",
"}.-X-X-X-X-X-X-X-X-X-X-X-X-X-X-X-Xn.jXjXjXjXjXjXjXjXjXn.-X-X-X-X-X-X-X-Xn.jXjXjXjXjXjXjXjXjXn.-Xn.jXjXjXjXjXjXjXjXjXn.-X'.*.*.S ",
"K.-X-X-X-X-X-X-X-X-X-X-X-X-X-X-X-Xn.jXjXjXjXjXjXjXjXjXn.-X-X-X-X-X-X-X-Xb.hXhXhXhXhXhXhXhXhXb.-Xn.jXjXjXjXjXjXjXjXjXn.-X[.F G d ",
"-X-X-X-X-X-X-X-X-X-X-X-X-X-X-X-X-Xn.jXjXjXjXjXjXjXjXjXn.-X-X-X-X-X-X-X-X-X-X-X-X-X-X-X-X-X-X-X-Xn.jXjXjXjXjXjXjXjXjXn.-X-X].F d ",
"-X-X-X-X-X-X-X-X-X-X-X-X-X-X-X-X-Xn.jXjXjXjXjXjXjXjXjXn.-X-X-X-X-X-X-X-X-X-X-X-X-X-X-X-X-X-X-X-Xn.jXjXjXjXjXjXjXjXjXn.-X-X-X'.G ",
"-X-X-X-X-X-X-X-X-X-X-X-X-X-X-X-X-Xb.hXhXhXhXhXhXhXhXhXb.-X-X-X-X-X-X-X-X-X-X-X-X-X-X-X-X-X-X-X-Xn.jXjXjXjXjXjXjXjXjXn.-X-X-X'.G ",
"-X-X-X-X-X-X-X-X-X-X-X-X-X-X-X-X-X-X-X-X-X-X-X-X-X-X-X-X-X-X-X-X-X-X-X-X-X-X-X-X-X-X-X-X-X-X-X-Xn.jXjXjXjXjXjXjXjXjXn.-X-X-X'.G ",
"-X-X-X-X-X-X-X-X-X-X-X-X-X-X-X-X-X-X-X-X-X-X-X-X-X-X-X-X-X-X-X-X-X-X-X-X-X-X-X-X-X-X-X-X-X-X-X-Xn.jXjXjXjXjXjXjXjXjXn.-X-X-X{.*.",
"-X-X-X-X&X:X:X:X:X:X:X:X:X:X&X-X-X-X-X-X-X-X-X-X-X-X-X-X-X-X-X-X-X-X-X-X-X-X-X-X-X-X-X-X-X-X-X-Xb.hXhXhXhXhXhXhXhXhXb.-X-X-X{.*.",
"-X-X-X-Xn.jXjXjXjXjXjXjXjXjXn.-X-X-X-X-X-X-X-X-X-X-X-X-X-X-X-X-X-X-X-X-X-X-X&X:X:X:X:X:X:X:X:X:X&X-X-X-X-X-X-X-X-X-X-X-X-X-X{.*.",
"-X-X-X-Xn.jXjXjXjXjXjXjXjXjXn.-X-X-X-X-X-X-X-X-X-X-X-X-X-X-X-X-X-X-X-X-X-X-Xn.jXjXjXjXjXjXjXjXjXn.-X-X-X-X-X-X-X-X-X-X-X-X-X{.*.",
"-X-X-X-Xn.jXjXjXjXjXjXjXjXjXn.-X-X-X-X-X-X-X-X-X-X-X-X-X-X-X-X-X-X-X-X-X-X-Xn.jXjXjXjXjXjXjXjXjXn.-X-X-X-X-X-X-X-X-X-X-X-X-X{.*.",
"-X-X-X-Xn.jXjXjXjXjXjXjXjXjXn.-X-X-X-X-X&X:X:X:X:X:X:X:X:X:X&X-X-X-X-X-X-X-Xn.jXjXjXjXjXjXjXjXjXn.-X-X-X-X-X-X-X-X-X-X-X-X-XW.M ",
"-X-X-X-Xn.jXjXjXjXjXjXjXjXjXn.-X-X-X-X-Xn.jXjXjXjXjXjXjXjXjXn.-X-X-X-X-X-X-Xn.jXjXjXjXjXjXjXjXjXn.-X-X-X-X-X-X-X-X-X-X-X-X-XW.N ",
"-X-X-X-Xn.jXjXjXjXjXjXjXjXjXn.-X-X-X-X-Xn.jXjXjXjXjXjXjXjXjXn.-X-X-X-X-X-X-Xn.jXjXjXjXjXjXjXjXjXn.-X-X-X-X-X-X-X-X-X-X-X-X-XQ.N ",
"-X-X-X-Xn.jXjXjXjXjXjXjXjXjXn.-X-X-X-X-Xn.jXjXjXjXjXjXjXjXjXn.-X-X-X-X-X-X-Xn.jXjXjXjXjXjXjXjXjXn.-X-X-X-X-X-X-X-X-X-X-X-X-XW.N ",
"-X-X-X-Xn.jXjXjXjXjXjXjXjXjXn.-X-X-X-X-Xn.jXjXjXjXjXjXjXjXjXn.-X-X-X-X-X-X-Xn.jXjXjXjXjXjXjXjXjXn.-X-X-X-X-X-X-X-X-X-X-X-X-XW.M ",
"-X-X-X-Xn.jXjXjXjXjXjXjXjXjXn.-X-X-X-X-Xn.jXjXjXjXjXjXjXjXjXn.-X-X-X-X-X-X-Xn.jXjXjXjXjXjXjXjXjXn.-X-X-X-X-X-X-X-X-X-X-X-X-XW.M ",
"-X-X-X-Xb.hXhXhXhXhXhXhXhXhXb.-X-X-X-X-Xn.jXjXjXjXjXjXjXjXjXn.-X-X-X-X-X-X-Xn.jXjXjXjXjXjXjXjXjXn.-X-X-X-X-X-X-X-X-X-X-X-X-XW.M ",
"-X-X-X-X-X-X-X-X-X-X-X-X-X-X-X-X-X-X-X-Xn.jXjXjXjXjXjXjXjXjXn.-X-X-X-X-X-X-Xb.hXhXhXhXhXhXhXhXhXb.-X-X-X-X-X-X-X-X-X-X-X-X-XW.M ",
"-X-X-X-X-X-X-X-X-X-X-X-X-X-X-X-X-X-X-X-Xn.jXjXjXjXjXjXjXjXjXn.-X-X-X-X-X-X-X-X-X-X-X-X-X-X-X-X-X-X-X-X-X-X-X-X-X-X-X-X-X-X-XR...",
"-X-X-X-X-X-X-X-X-X-X-X-X-X-X-X-X-X-X-X-Xn.jXjXjXjXjXjXjXjXjXn.-X-X-X-X-X-X-X-X-X-X-X-X-X-X-X-X-X-X-X-X-X-X-X-X-X-X-X-X-X-X-X X=.",
".X-X-X-X-X-X-X-X-X-X-X-X-X-X-X-X-X-X-X-Xb.hXhXhXhXhXhXhXhXhXb.-X-X-X-X-X-X-X-X-X-X-X-X-X-X-X-X-X-X-X-X-X-X-X-X-X-X-X-X-X-X-X_.<.",
"Y.OX+X+X+X+X+X#X#X$X-X-X-X-X-X-X-X-X-X-X-X-X-X-X-X-X-X-X-X-X-X-X-X-X-X-X-X-X-X-X-X-X-X-X-X-X-X-X-X-X-X-X-X-X-X-X-X-X-X-X-X%X).<.",
"M ) ) ) ) ) ) [ [ (.-X-X-X-X-X-X-X-X-X-X-X-X-X-X-X-X-X-X-X-X-X-X-X-X-X-X-X-X-X-X-X-X-X-X-X-X-X-X-X-X-X-X-X-X-X-X-X-X-X-X$XI.) ) ",
"M ) ) ) ) ) ) O.+.^.*X*X*X*X*X*X*X*XoX-X-X-X-X-X-X-X-X-X-X-X-X-X-X-X-X-X-X-X-X-X-X-X-X-X-X-X-X-X-X-X-X-X-X-X-X-X-X-X.X+XE.N N M ",
"%.%.%.[ [ [ [ a.B.B.B.B.B.B.B.B.B.B.>X;X;X;X;X;X;X;X;X;X;X;X;X;X;X;X;X;X;X;X;X=X*X*X*X*X*X*X*X*X*XXX@X@X@X@X@X@X@X@XH.c c c s s ",
"%.%.%.%.%.%.[ a.B.B.B.B.B.B.B.B.B.B.S.fXgXgXgXgXgXgXgXgXgXgXgXgXgXgXfXdXdXdXdXS.B.B.B.B.B.B.B.B.B.l.] _ _ _ _ _ _ _ _ _ _ _ _ M ",
"M M M M M M M z.B.B.B.B.V.C.C.C.C.C.C.7XgXgXgXgXgXgXgXgXgXgXgXgXgXgX6XB.B.B.B.B.B.B.B.B.B.B.B.B.B.p.#.:.:.:.:.:.:.:.:.:.:.:._ _ ",
"M M M M M M 7.z.B.B.B.B.6XgXgXgXgXgXgXgXgXgXfXdXdXdXdXdXfXgXgXgXgXgX7XC.C.C.V.B.B.V.C.C.C.C.C.C.C.v.4.3.$.$.$.$.$.:.:.:.:.:.:.:.",
"u u u u A A A k.B.B.B.B.6XgXgXgXgXgXgXgXgXgX6XB.B.B.B.B.6XgXgXgXgXgXgXgXgXgX6XB.B.6XgXgXgXgXgXgXgXgXgX3X>.>.>.>.>.>.>.>.>.>...{ ",
"s s s i i i s j.B.B.B.B.6XgXgXgXgXgXgXgXgXgX6XB.B.B.B.B.6XgXgXgXgXgXgXgXgXgX6XB.B.6XgXgXgXgXgXgXgXgXgX2X$.$.$.$.$.$.$.$.$.,.| | ",
"i i i i i &.M t.B.B.B.B.6XgXgXgXgXgXgXgXgXgX6XB.B.B.B.B.6XgXgXgXgXgXgXgXgXgX6XB.B.6XgXgXgXgXgXgXgXgXgX2X$.$.$.$.$.$.2.2.q.q.| | ",
"c c c M M ` ` i.B.B.B.B.6XgXgXgXgXgXgXgXgXgX6XB.B.B.B.B.6XgXgXgXgXgXgXgXgXgX7XC.C.7XgXgXgXgXgXgXgXgXgX5X2.2.2.2.2.q.q.q.q.q.} } ",
"s s s &.&.&.&.x.B.B.B.B.6XgXgXgXgXgXgXgXgXgX6XB.B.B.B.B.6XgXgXgXgXgXgXgXgXgXgXgXgXgXgXgXgXgXgXgXgXgXgX4Xw.w.w.w.1.1.1.1.1.1.-.-.",
"M M M &.&.&.&.h.N.B.B.B.6XgXgXgXgXgXgXgXgXgX6XB.B.B.B.B.6XgXgXgXgXgXgXgXgXgXgXgXgXgXgXgXgXgXgXgXgXgXgX4Xw.w.w.1.1.1.1.1.1.1.-.-.",
"M M M &.&.&.&.&.x.B.B.B.6XgXgXgXgXgXgXgXgXgX6XB.B.B.B.B.6XgXgXgXgXgXgXgXgXgXgXgXgXgXgXgXgXgXgXgXgXgXgX4Xw.w.w.1.1.1.1.1.1.1.-.-.",
"M M M &.&.&.&.&.x.B.B.B.6XgXgXgXgXgXgXgXgXgX6XB.B.B.B.B.6XgXgXgXgXgXgXgXgXgXgXgXgXgXgXgXgXgXgXgXgXgXgX5X2.2.2.2.2.q.q.q.q.q.} } ",
"M M M &.&.&.&.&.h.N.B.B.S.dXdXdXdXdXdXdXdXdXS.B.B.B.B.B.6XgXgXgXgXgXgXgXgXgXgXgXgXgXgXgXgXgXgXgXgXgXgX5X2.2.2.2.2.2.2.q.q.;.~ ~ ",
"M M M &.&.&.&.&.&.x.B.B.B.B.B.B.B.B.B.B.B.V.C.C.C.C.C.C.7XgXfXdXdXdXdXdXdXfXgXgXgXgXgXgXgXgXgXfXdX8X0X1X/ / / / / / / / / ^ Q Q ",
"M M M &.&.&.&.&.&.x.B.B.B.B.B.B.B.B.B.B.B.6XgXgXgXgXgXgXgXgX6XB.B.B.B.B.B.6XgXgXgXgXgXgXgXgXgX6XB.g.5./ / / / / / / / / / / ! ! ",
"M M M &.&.&.&.&.&.x.B.B.B.B.B.B.B.B.B.B.V.7XgXgXgXgXgXgXgXgX7XV.V.C.C.C.V.6XgXgXgXgXgXgXgXgXgX6XB.B.s./ / / / / / / / / / / ! ! ",
"M M M &.&.&.&.&.&.x.B.B.B.B.B.B.B.B.B.B.6XgXgXgXgXgXgXgXgXgXgX6X6XgXgXgX6X6XgXgXgXgXgXgXgXgXgX6XB.B.f.( / / / / / / / / / / ! W ",
"N N N M M M M M M t.B.B.B.B.B.B.B.B.B.B.6XgXgXgXgXgXgXgXgXgXgX6X6XgXgXgX6X6XgXgXgXgXgXgXgXgXgX6XB.B.B.d./ / / / / / / / / / ! W ",
"N N N M M M M M M t.B.B.B.B.B.B.B.B.B.B.6XgXgXgXgXgXgXgXgXgXgX6X6XfXdXdXS.6XgXgXgXgXgXgXgXgXgX6XB.B.B.d./ / / / / / / / / / ! W ",
"N N N M M M M M M t.B.B.B.B.B.B.B.B.B.B.6XgXgXgXgXgXgXgXgXgXgX6X6X6XB.V.C.7XgXgXgXgXgXgXgXfXdXS.B.B.B.d./ / / / / / / / / / ! W ",
"N N N M M M M M M t.B.V.C.C.C.C.C.C.C.C.7XgXgXgXgXgXgXgXgXgXgX6X6X6XB.6XgXgXgXgXgXgXgXgXgX6XB.B.B.B.B.d./ / / / / / / / / / ! K ",
"N N N M M M M M M t.B.6XgXgXgXgXgXgXgXgXgXgXgXgXgXgXgXgXgXgXgX6X6X6XB.6XgXgXgXgXgXgXgXgXgX6XB.B.B.B.B.d./ / / / / / / / / / P K ",
"N N N M M M M M M t.B.6XgXgXgXgXgXgXgXgXgXgXgXgXgXgXgXgXgXgXgX6X6X6XB.6XgXgXgXgXgXgXgXgXgX6XB.B.B.B.B.d./ / / / / / / ! ! ! L @ ",
"N N N M M M M M M t.B.6XgXgXgXgXgXgXgXgXgXgXgXgXgXgXgXgXgXgXgX6X6X6XB.6XgXgXgXgXgXgXgXgXgX6XB.B.B.B.B.r.R R R R R R R R R R @ X ",
"b b b N N N N N N y.B.6XgXgXgXgXgXgXgXgXgXgXgXgXgXgXgXgXgXgXgX6X6X6XB.6XgXgXgXgXgXgXgXgXgX6XB.B.B.B.B.r.@ @ @ @ @ @ @ @ @ @ @ X ",
"V V V n n n n n n u.B.6XgXgXgXgXgXgXgXgXgXgXgXgXgXgXgXgXgXgXgX7X7X6XB.6XgXgXgXgXgXgXgXgXgX6XB.B.B.B.B.r.@ @ @ @ @ @ @ @ @ @ @ X ",
"V V V n n n n n n c.C.7XgXgXgXgXgXgXgXgXgXgXgXgXgXgXgXgXgXgXgXgXgX6XB.6XgXgXgXgXgXgXgXgXgX6XB.B.B.B.B.r.@ @ @ @ @ @ @ @ @ @ @ X ",
"V V V V V n n n n <XuXaXaXaXaXsXsXsXiXrXrXrXrXrXrXpXrXrXrXuXuXwXwX,XM.Z.qXqXqX9X9XtXeXyXyXA.m.m.m.m.m.e.@ @ @ @ @ @ @ @ @ @ @ X "
};
