/* XPM */
static char *result[] = {
/* columns rows colors chars-per-pixel */
"64 64 223 2 ",
"   c #5B382D",
".  c #60362F",
"X  c #673B2F",
"o  c #603530",
"O  c #6A3E31",
"+  c #713F31",
"@  c #6D4335",
"#  c #744334",
"$  c #794535",
"%  c #7C4836",
"&  c #7D4B3B",
"*  c #1C5B57",
"=  c #384B4F",
"-  c #274D51",
";  c #264C5C",
":  c #284B5F",
">  c #384D54",
",  c #265554",
"<  c #235C52",
"1  c #26555C",
"2  c #2B5559",
"3  c #245B5D",
"4  c #2F5F5E",
"5  c #365453",
"6  c #395957",
"7  c #1C7442",
"8  c #1F6E52",
"9  c #1F7652",
"0  c #246B43",
"q  c #206D4F",
"w  c #24744E",
"e  c #246354",
"r  c #2A6356",
"t  c #226C52",
"y  c #25655C",
"u  c #2E625E",
"i  c #256C5C",
"p  c #296C5A",
"a  c #33665B",
"s  c #237654",
"d  c #277C54",
"f  c #26745A",
"g  c #2A735B",
"h  c #1F556D",
"j  c #2D4764",
"k  c #224D65",
"l  c #2D4D64",
"z  c #2B436D",
"x  c #254C6E",
"c  c #2B4B6C",
"v  c #304663",
"b  c #364C6D",
"n  c #235463",
"m  c #2B5463",
"M  c #245C65",
"N  c #2B5B65",
"B  c #25556D",
"V  c #2A556C",
"C  c #265C6E",
"Z  c #2B5C6C",
"A  c #325364",
"S  c #325E67",
"D  c #32566E",
"F  c #365D6D",
"G  c #284671",
"H  c #2F4874",
"J  c #235572",
"K  c #2F5471",
"L  c #305070",
"P  c #325D71",
"I  c #246262",
"U  c #2A6363",
"Y  c #246C60",
"T  c #2C6C62",
"R  c #26636C",
"E  c #2B616C",
"W  c #266E6C",
"Q  c #2A6D6C",
"!  c #326566",
"~  c #306E60",
"^  c #3A6967",
"/  c #31626E",
"(  c #257060",
")  c #2B7262",
"_  c #307066",
"`  c #3A7763",
"'  c #266070",
"]  c #306070",
"[  c #464645",
"{  c #4C4C4C",
"}  c #4F504F",
"|  c #4E4E54",
" . c #545454",
".. c #575858",
"X. c #5C5C5C",
"o. c #6A524B",
"O. c #6F544B",
"+. c #41635D",
"@. c #59695E",
"#. c #55735D",
"$. c #776854",
"%. c #756B5C",
"&. c #6B775D",
"*. c #4B5B65",
"=. c #476969",
"-. c #536363",
";. c #536E64",
":. c #49756B",
">. c #476574",
",. c #497871",
"<. c #636363",
"1. c #696765",
"2. c #676C67",
"3. c #6A6966",
"4. c #6B6A69",
"5. c #6C7667",
"6. c #6F7766",
"7. c #797168",
"8. c #6D7478",
"9. c #767472",
"0. c #834334",
"q. c #8B4736",
"w. c #8C4937",
"e. c #834B38",
"r. c #914D39",
"t. c #88533D",
"y. c #99543D",
"u. c #804D40",
"i. c #925943",
"p. c #A45C40",
"a. c #85675D",
"s. c #936C53",
"d. c #AD6345",
"f. c #AA6A4D",
"g. c #B26D4D",
"h. c #B86A49",
"j. c #A36B51",
"k. c #AB6E51",
"l. c #B16D50",
"z. c #A47655",
"x. c #AC7857",
"c. c #BC7451",
"v. c #B57E57",
"b. c #B67E58",
"n. c #BB7A58",
"m. c #897467",
"M. c #88776C",
"N. c #977A69",
"B. c #947D71",
"V. c #C06F4C",
"C. c #C4744E",
"Z. c #C37B54",
"A. c #C47F5B",
"S. c #6E8065",
"D. c #B8815C",
"F. c #918377",
"G. c #998475",
"H. c #AE8365",
"J. c #B7896B",
"K. c #A78875",
"L. c #B48973",
"P. c #BC8A73",
"I. c #B69279",
"U. c #C7825A",
"Y. c #D58A5E",
"T. c #C99A79",
"R. c #D59E72",
"E. c #E09768",
"W. c #D5A173",
"Q. c #E5A77A",
"!. c #788C8A",
"~. c #76998B",
"^. c #738891",
"/. c #7D9F90",
"(. c #968E82",
"). c #958F88",
"_. c #AB9685",
"`. c #A29A8E",
"'. c #B89B83",
"]. c #8EA999",
"[. c #94A799",
"{. c #BBAC9B",
"}. c #A9AFA7",
"|. c #BAB2A4",
" X c #B6B6B7",
".X c #C89C83",
"XX c #DAA886",
"oX c #DDAB86",
"OX c #CAAA93",
"+X c #C2B198",
"@X c #D7B29B",
"#X c #DBBC99",
"$X c #E4AC83",
"%X c #E9B186",
"&X c #E7B893",
"*X c #C3B5A6",
"=X c #C9BBAA",
"-X c #D8B8A1",
";X c #E1BDA2",
":X c #DDC099",
">X c #EDC29A",
",X c #F3C195",
"<X c #F4C69D",
"1X c #F6C99F",
"2X c #D2C3AB",
"3X c #DDCAB4",
"4X c #E8C5A7",
"5X c #EECBA9",
"6X c #F6CAA1",
"7X c #F1CEAB",
"8X c #E2CDB5",
"9X c #E3D3BB",
"0X c #E9D6BE",
"qX c #F5D5B4",
"wX c #F8D9B7",
"eX c #F5DBBC",
"rX c #FADEBF",
"tX c #D2D2D2",
"yX c #E6D9C4",
"uX c #F5DEC2",
"iX c #F9DEC1",
"pX c #F7E1C6",
"aX c #F8E5CD",
/* pixels */
"< * - - , - ; ; ; - 1 ; ; : m n V n k k n n n k V 1 1 n n ; * 1 * m e N U Z U N m N 1 ; - - , < < < , , , 6 < , < < < < * < q 7 ",
"e e e q * < * * ; ; ; ; ; ; n V k n n V n l n m n k 1 ; ; 1 k ; k x c Z D U Z U m k ; k - * - , - , < , , , , 2 < < < < 0 < < 7 ",
"e e * < < * < < ; 1 ; ; ; ; n k n n n m n l n k n n m ; ; ; l k x x c V Z M U N k m ; 1 * < < , , , , , , , 2 1 < < < < < e < 0 ",
"y y y y U I U r 1 1 , 1 2 1 n n 1 n n 1 n 2 3 3 n n n 2 2 l x x x c n n V 1 3 1 ; k * 1 < < - < < < < < < < < < , < < < < < < 0 ",
"y 3 U N y y r r 2 2 2 2 1 n 3 3 3 3 3 3 1 4 2 2 3 1 3 1 B l x G x x G G H c n m n m c c n 3 1 m N 1 M m m 2 m 2 n 1 3 1 1 n n e ",
"y y 3 U r r r r 2 2 2 2 n 1 3 3 3 3 3 3 1 4 2 2 3 3 1 x x l k G x x G G G c J V V n c c m m m n n M n 2 m m 1 m m 1 n 3 3 1 n e ",
"y y U y r r r r 2 2 2 2 * 1 3 3 3 3 < 1 3 u 2 2 3 3 3 B B l l l x x z G H x m B c m m m 1 n 2 n 1 3 y e r r e r u y 3 U M i y 9 ",
"u U U U r i p g 3 y y y u p u u 4 u u u p ! 4 4 p p S N x m l l k G G G G j v m x m m m 1 n ; * * M 3 r e e y < r I u N y y y f ",
"U U ~ g f i t p y y y y r p 4 4 4 4 u 4 a ! 4 4 p p ! V Z C l l j k G G x j j m x m m m , M 2 n 3 p p g i g g i Y g T ) Y g ) d ",
"g T ~ g i i g g y y y e p p 4 4 4 4 4 4 ! ! 4 4 p p N V V C x x G G z G G j v m G m m m 1 n 2 1 3 p p p p i i i i g Y Y Y ) g d ",
") ) ) _ i i t p y y y y p p 4 4 4 4 4 u ! 8 N 4 r a S m V V x J m z z G c j j m x m m N 1 n 1 1 3 p p i g Y p g Y g Y ) ) ) ) d ",
") ) T g i f g t 3 y y 3 p a 4 4 4 4 4 4 ! y ! S p p S Z U V x x V l G G c x z x j v v x k 2 * 3 p g g p p p ` g p i Y Y g ( Y s ",
"q d d d f f i i u y y y p p 4 4 U u 4 4 E I ! U u u A S N m x V V l G H z z j z x x x x n 2 k * r g g p g f g g p i Y i i g p w ",
"w d d d w d d g r p p p 6 4 ! ! ! ! ! ! e I * I ! ! F A A S V V l V J L J j k c z l x x n 2 n 3 p g g p g g g g p g Y i Y g g q ",
"g ( i f g g g g p S N N S S P P P U ! U I I 8 M ! ! P D A S V V l k J J J n x c z l z x k 1 ; 3 p g g g p p p p p ) t g i g g g ",
"Y f f f g g g p u S S S P P M I M R P P M h 3 y ! ! P D A S V V A B J J J n j z c l c c * 2 1 1 3 p p p p p p p i ( g g g g g p ",
"( f ( f f f g ~ a S S S F F P P P M F F I C 8 n ! ! A D A S V V A J G J J l n c c v c l , N 1 1 3 p p p i p p p i ) g g g g g g ",
"f ( ( f f f g g r p p S S N S S S S N S Z P u N p p ! -.=.>.>.>.>./ K H H V l Z v x j v 2 1 1 1 S Y Y p Y ( Y Y i g Y Y Y T Y i ",
"p ( ( f f f g g p p p p S S S S S S N N S P 4 4 p u 9.P..X'.'.'.'.I.a.b H V V G v x v v 2 1 1 , N Y Y g Y Y Y Y Y g Y Y T Y Y ) ",
"Y ( ( f ) f g g p a r p U S S S S S S S S S p p e =.J.H.9.8.8.8.8.K.n.| G c 2 N ; 2 ; ; 2 , 2 1 N Y i g Y ( Y Y Y g Y ) ) ) Y Y ",
"f g g f d f g g u u u u ! ! ! F P / S u S N y y e 4 H.j.F K K K L m.n.| G x l m m 2 ; ; 5 1 , 3 N Y 8 f Y Y Y ( g Y Y ) Y Y Y Y ",
"i ( ( g f ) f f p p p a 5.6.6.6.6.6.6.S.6.6.&.&.&.&.b.k.%.4.4.7.4.G.L.).^.^.!.^.!.!.!.!.!.!.!.!.!.~.~.~.S.Y Y ( g ) Y Y Y ) Y ) ",
"g Y ( g g f f g p p a S.T.W.W.W.W.W.W.W.W.W.W.W.W.W.Q.E.W.R.R.R.XX8XyXyXyXyX9X8X8X9X8X8X8X9X8X8XyXyXyXyX}.,.Y Y Y y y y y y y y ",
"( p p f ) ) g f _ i ` +X,X>X,X,X,X,X,X,X,X,X,X,X,X,X,X,X,X,X,X&XqXaXaXaXuXeXrXwX7XrXrXrXrXrXqXqXrXrXaXaXtX/.( Y y y y y y y i u ",
"Y Y Y Y Y g p U U ~ ,.>X1X1X1X1X1X1X1X1X1X1X1X1X1X1X1X1X1X1X1X6XeXaXpXwXwXiXyX+X{.{.{.{.{.{.{.=XuXpXrXuXpX].i i y y e i y y y y ",
"i Y Y Y ( Y i U T U ,.#X1X1X1X1X1X6X6X1X1X1X6X6X1X6X6X6X6X1X1X6XiXuX,X7X9X{.M.9.3.<.3.9.9.9.<.<.F.=XyXrXuX].Y y y u y y y y y p ",
"9 Y Y i f p U p ~ 3 :.#X1X1X6X&X>X>X>X>X<X>X>X>X>X&X>X>X<X6X6X6XiXuX%X5X`. .{ [  .[ { { {  .[ { [ X.=XpXyX].y y y y y y y y y y ",
"9 Y i i p p U I I * :.#X1X1X7XK.K.N.I.m.I.m._.B.L.K.G.'.%X1X6X6XiXuX$X5X(...<.<.2.<.<.1.<.3.X.1.X.} |.iXeX].y y y y y y y y y y ",
"I M I E Z K L x V V >.:X1X1X7Xa.M.O.F.o.G.o.F.O.m.%.a.B.$X;X6X6XiXuX$X5X(.{  .| X.{  . .} X.{ ..} [ |.rXeX].y y y y y y y y y y ",
"I I R Z E Z E x V V >.#X1X1X7X$.m.O.M.o.B.o.B.o.m.%.%.B.$X6X6X6XiXuX$X5X(. .<.X.1.X.<.X.X.<.X.<.X.{ |.pXeX].y y y y y y y y y y ",
"I R R Z E E C R M U :.#X1X1X7XK.(.B.`.M._.M._.B.K.(.B._.$X&X6X6XeXuXQ.4X(.<.4...X...X.X...X. .X. .{ *XrX0X[.y N y 4 N U U U u U ",
"8 M I I Z E E M E =.G.$X%X%X%X%X%XoX%XXX&XXX%XXX%XoX$XoXE.%X%X%X6XuX&X;X`. XtX<.X. ...X...X. .X. .[ |.wX5X2X=.u N y U I I I T T ",
"y I M R R U U R y =.s.z.z.z.z.z.z.z.z.z.z.z.z.z.z.z.z.z.z.z.z.z.x.OX.X;X`.}.tX4.<.X.<.-.<.<.X.1.X.{ |.4X.X{.,.R U U R U Q R Q E ",
"y I I M I I I U I ;.D.D.b.v.b.v.D.D.D.D.D.D.D.D.v.v.v.v.v.v.v.v.P.-XXX;X`. XtXX...{  .| } ..{  .{ { |.4XXX=X,.U R T U I I R E R ",
"y 3 M 8 M y y I I ^ m.x.g.g.c.C.c.U.U.U.Z.C.U.Z.Z.Z.U.U.U.k.g.l.U.XX.X;X`. XtX9.2.<.1.<.<.3.<.3.-.| |.-XJ.).~ M y M y I I I I y ",
"y I I 3 y M I I I T +.u.w.r.p.w.e.# t.% t.# t.% t.& e.i.C.w.r.r.g.Z.E.5X).X.1.{  .[  .} {  .[  .{ [ |.@Xi.%.U y y y y y y y y y ",
"i Y Y I I R I R U U ! u.q.q.y.+ @ X #   %   %   # @ O t.C.q.q.w.d.C.E.5X)...4.<.2.<.2.1.<.<.<.1.<.} |.@Xd.$.9 q 8 e t 8 t t q q ",
"Y Y Y Y Y Y I U U U ^ u.q.q.y.+ @ X #   %   %   # X X t.C.q.q.q.d.C.E.5X(.[ | { ..{  .| | ..[  .{ [ |.@Xd.%.I I I 8 I I y I y y ",
"y y 8 M y y y Y I Y S e.q.q.y.+ # # % @ % X 0.@ $ # # t.d.q.w.w.d.C.E.5X(. .1.<.1.X.<.<.<.1.<.1.<.} {.@Xd.%.R R C R R R R R I 8 ",
"y y y y I 8 ( i Y i S u.q.q.q.q.w.0.w.0.q.q.q.0.q.q.0.q.r.q.w.w.d.C.E.5X`.[  .| X.| .. .| ..} ..[ { =X@Xf.%.U U U R R R R ' ' C ",
"8 8 8 8 s 9 9 i 8 I a O.q.q.q.q.w.q.q.q.q.q.q.q.q.q.q.q.q.q.q.w.d.C.Y.&X3X(.1.4.1.4.1.1.3.3.3.3.3.`.9XT.h.%.R E ' R R R R W U I ",
"q 8 q 9 9 9 q 8 I I u e.q.w.q.q.q.q.q.q.q.q.q.q.q.q.q.q.w.q.w.w.d.V.C.E.;X3X|.*X*X*X*X*X*X*X*X*X=X3X.Xc.c.%.Q U R T U Q U E R I ",
"9 9 9 9 9 i y y y e 6 O.0.0.0.0.0.0.0.0.0.0.0.0.0.0.0.0.0.0.0.0.p.V.V.C.A.U.T.K.N.P.P.P.P.P.L.G.L.P.c.h.h.1.E T U T Q W ) ) I T ",
"8 t q y y I I y I I y 2 o o . o   . . . . .   . . . . . . . . . + p.l.h.f.f.f.j.j.k.k.k.k.k.k.j.k.k.l.k.a.` W W W ) ) ) ) ) I R ",
"8 8 8 Y Y Y Y Y Y Y Y 8 6 5 > > > > > = = 5 5 5 5 5 5 5 5 5 5 6 A *.-.-.-.-.;.@.;.;.#.#.#.#.;.;.;.;.;.;.:.( Q ) W W W W W W ( Y ",
"8 M 8 I Y Y Y Y Y Y Y Y 8 Y i M 2 n m 2 , 4 1 u U y U U I M U P Z P ] U P P Q ! _ / _ ) ` _ Q Q Q Q _ ~ ) ) ) W W W W W W W Y T ",
"M y 8 I Y I Y 8 I Y Y Y Y Y Y M m n n N M U n U U 3 M U I I U C C Z P R F Z T Q Q Q ! ) g _ Q Q Q Q Q Q ) _ ) W W W W W W W T p ",
"y y Y Y Y Y Y I Y Y Y Y Y Y i M m V m m M 3 N I I 3 y U I U U Z C P Z ] Z Z Q Q Q Q ~ ) ( ) _ _ _ _ _ Q Q W W W W ) ) ) ) ) R U ",
"y y y i Y Y Y Y Y Y I Y Y Y Y h 1 N n N M N m m I 3 I U U I U Z P C Z ] Z Z T Q Q Q _ ) ) ) _ _ _ _ _ W Q Q W Q W Q W ) ) W B B ",
"y y y Y Y Y Y Y 8 I Y Y Y Y Y * m n n m M u m m I 3 I U I I E Z Z C Z ] C P Z Z Z / N R U E / / ] / ] Z C C C C C C C C ' C x B ",
"y y y Y i Y Y Y Y Y Y Y Y Y Y h 2 V n m M 3 m N m 3 I U I I U C Z C P ] P Z V Z Z ] Z U R E ] / / / / C C C C C C C C C C C B B ",
"y M 8 Y I Y Y Y I Y Y Y Y Y Y I m n M m M u m m N 3 I U I U T C P C C ] C Z Z Z P ] M U U E ] ] / / E C C C C C C C C C C Z V V ",
"y y y Y Y Y i Y Y Y Y Y Y W Y h m n M m M U n n m I I U I I I C Z Z C ] P Z Z C Z E Z U I C E E E E E C C C C C C C C C C C B V ",
"y y y y y y y y y I e y 8 * 8 1 m 1 1 m 1 1 n n n n I * I I I ' ' ' ] V ] ] Z P ] V V R T C E E E E E C C C C C C C C C C C V N ",
"y y u y i y y y y y y y y y I 1 n 1 1 n 1 1 * n * n n I * * R ' ' ' ] Z ] ] Z ] P P V T U C E Z E E E C C C C C C C C C C C B m ",
"y y y y y y y y y y y y y y y 1 V 1 1 M 1 1 n n n n * V I M I ' ' ' ] N ] ] C ] ] m B I R C E E E E Z C C C C C C C C C C C B N ",
"y u p y y y y y y y y y y p y 1 n 1 m m 3 1 * n * n n n n I I ' ' ' P N ] ] Z ] B D m U I C E E E E E C C C C C C C C C C C J k ",
"y y y y y y y y y y y y y e y 1 n 3 1 n 1 m n n n n M n n V m ' ' ' P N ] ] Z V B V Z R T C E E E Z E C C C C C C C C Z C C z k ",
"y y y y y y y y y y y y y y y 1 n m m n 1 1 n n n n n n n n 2 m ' C Z Z ] ] V C B V B I R I E Z E E E C C C C C C C C J B V j l ",
"y p y y y y y I y y y y y y y 3 n 1 1 n 1 1 n * * n n n n V n V m C D D m B c m A V x m m m m M m N n m l n m l m l n m n m : - ",
"Y y y y 8 I I I y i y i y y i n 1 n 3 3 1 1 n n n n n V n V 1 B B V D D V V c A A x x m m n M N N m N m : : : : : : : : : : : - ",
"i I i Y M 8 I 8 8 I y I y y y U n n n 3 3 3 1 n 3 M 1 3 1 1 3 V K B V m L c c m A x c m l m m V V M N k : : : : : : : : : : : - ",
"Y Y I y Y I I I I I y y i T Y U M M n 3 3 n 1 3 1 M 1 1 3 1 1 M B B m S V c c A V x n l n m M m M V m m : : : : : : : : : : : - ",
"8 Y I 8 Y I 8 I 8 I i T i Y g M U I n M * 3 3 3 M y 1 1 1 n * h B B A A c c V m m x l m n l m N m N m n : : : : : : : : : : : - "
};
