/* XPM */
static char *result[] = {
/* columns rows colors chars-per-pixel */
"64 64 171 2 ",
"   c #3D3D3D",
".  c #5F2F2A",
"X  c #56352D",
"o  c #58352C",
"O  c #5B3A2F",
"+  c #62392F",
"@  c #693B2F",
"#  c #64332E",
"$  c #663F32",
"%  c #6C3D31",
"&  c #723F32",
"*  c #3F403F",
"=  c #41403F",
"-  c #6E4435",
";  c #764435",
":  c #7B4434",
">  c #7F4937",
",  c #7B4A39",
"<  c #3F4040",
"1  c #444444",
"2  c #4B4B4B",
"3  c #474748",
"4  c #5F4B45",
"5  c #535353",
"6  c #5B5B5B",
"7  c #604943",
"8  c #6E524B",
"9  c #67564F",
"0  c #685751",
"q  c #765B53",
"w  c #795E52",
"e  c #69655F",
"r  c #786559",
"t  c #646464",
"y  c #6C6B6B",
"u  c #6E6A64",
"i  c #716F6E",
"p  c #786A60",
"a  c #74726F",
"s  c #747373",
"d  c #804133",
"f  c #8B4736",
"g  c #834937",
"h  c #8C4837",
"j  c #844C3A",
"k  c #8C4A39",
"l  c #954F3A",
"z  c #83543D",
"x  c #9C533D",
"c  c #A0593F",
"v  c #A25D44",
"b  c #956A4B",
"n  c #83655A",
"m  c #8B6F5F",
"M  c #806A5D",
"N  c #97725B",
"B  c #AE6244",
"V  c #AE6849",
"C  c #B16546",
"Z  c #B36B4B",
"A  c #BB6B4A",
"S  c #B46847",
"D  c #BD714E",
"F  c #B7714F",
"G  c #BE7453",
"H  c #B6785C",
"J  c #8A6E64",
"K  c #827369",
"L  c #8D796B",
"P  c #977A6C",
"I  c #937E72",
"U  c #987E73",
"Y  c #AD7B64",
"T  c #A07662",
"R  c #B67D65",
"E  c #B87E65",
"W  c #C06E4B",
"Q  c #C2714C",
"!  c #C07452",
"~  c #C37A53",
"^  c #C47D59",
"/  c #BE835A",
"(  c #948174",
")  c #9A8679",
"_  c #9B8376",
"`  c #A48C7B",
"'  c #AA917F",
"]  c #BD927A",
"[  c #CD855B",
"{  c #C98056",
"}  c #D3855A",
"|  c #C28E69",
" . c #DE9363",
".. c #D4936A",
"X. c #C28F77",
"o. c #C8967B",
"O. c #D69C79",
"+. c #E39E71",
"@. c #DDA37F",
"#. c #E4A272",
"$. c #EAA775",
"%. c #E9A876",
"&. c #EBAB7C",
"*. c #E6A578",
"=. c #9A9286",
"-. c #9E9589",
";. c #979798",
":. c #A98F80",
">. c #A2998D",
",. c #A69688",
"<. c #B19D8B",
"1. c #B8A08F",
"2. c #ADA294",
"3. c #B2A494",
"4. c #B3AA9C",
"5. c #BAA594",
"6. c #B7AFA2",
"7. c #B7B0A4",
"8. c #BAB2A4",
"9. c #B7B7B8",
"0. c #B4B4B5",
"q. c #C19C8B",
"w. c #C5A08A",
"e. c #DEA581",
"r. c #CCA692",
"t. c #D5AD92",
"y. c #E5AC83",
"u. c #EBB185",
"i. c #ECB58A",
"p. c #ECBA8F",
"a. c #ECBD95",
"s. c #EABF98",
"d. c #E1B495",
"f. c #D9B7A1",
"g. c #D8B8A2",
"h. c #C8BEB0",
"j. c #E5BFA2",
"k. c #EDC29B",
"l. c #F6C79D",
"z. c #F7C99E",
"x. c #DDC1A9",
"c. c #D5C6B3",
"v. c #D8C7B3",
"b. c #DBCBB7",
"n. c #E5C1A5",
"m. c #EBCAAB",
"M. c #EAC4A5",
"N. c #F7CAA0",
"B. c #F4CEAB",
"V. c #F5D1AD",
"C. c #E1C5B1",
"Z. c #ECD7BF",
"A. c #F7D6B4",
"S. c #F6DABC",
"D. c #FADDBE",
"F. c #F6D8B7",
"G. c #CDCDCE",
"H. c #D8D8D8",
"J. c #EDDBC3",
"K. c #E9D7C1",
"L. c #F6DEC2",
"P. c #F8DEC1",
"I. c #F9E1C4",
"U. c #F7E3C9",
"Y. c #F8E6CD",
"T. c #F5E1C7",
"R. c #F7E7D2",
"E. c #F9E7D0",
"W. c #F9E8D0",
"Q. c #E5E5E4",
"!. c None",
/* pixels */
"!.!.!.!.!.!.!.!.!.!.!.!.!.!.!.!.!.!.!.!.!.!.!.!.!.!.!.!.!.!.!.!.!.!.!.!.!.!.!.!.!.!.!.!.!.!.!.!.!.!.!.!.!.!.!.!.!.!.!.!.!.!.!.!.",
"!.!.!.!.!.!.!.!.!.!.!.!.!.!.!.!.!.!.!.!.!.!.!.!.!.!.!.!.!.!.!.!.!.!.!.!.!.!.!.!.!.!.!.!.!.!.!.!.!.!.!.!.!.!.!.!.!.!.!.!.!.!.!.!.",
"!.!.!.!.!.!.!.!.!.!.!.!.!.!.!.!.!.!.!.!.!.!.!.!.!.!.!.!.!.!.!.!.!.!.!.!.!.!.!.!.!.!.!.!.!.!.!.!.!.!.!.!.!.!.!.!.!.!.!.!.!.!.!.!.",
"!.!.!.!.!.!.!.!.!.!.!.!.!.!.!.!.!.!.!.!.!.!.!.!.!.!.!.!.!.!.!.!.!.!.!.!.!.!.!.!.!.!.!.!.!.!.!.!.!.!.!.!.!.!.!.!.!.!.!.!.!.!.!.!.",
"!.!.!.!.!.!.!.!.!.!.!.!.!.!.!.!.!.!.!.!.!.!.!.!.!.!.!.!.!.!.!.!.!.!.!.!.!.!.!.!.!.!.!.!.!.!.!.!.!.!.!.!.!.!.!.!.!.!.!.!.!.!.!.!.",
"!.!.!.!.!.!.!.!.!.!.!.!.!.!.!.!.!.!.!.!.!.!.!.!.!.!.!.!.!.!.!.!.!.!.!.!.!.!.!.!.!.!.!.!.!.!.!.!.!.!.!.!.!.!.!.!.!.!.!.!.!.!.!.!.",
"!.!.!.!.!.!.!.!.!.!.!.!.!.!.!.!.!.!.!.!.!.!.!.!.!.!.!.!.!.!.!.!.!.!.!.!.!.!.!.!.!.!.!.!.!.!.!.!.!.!.!.!.!.!.!.!.!.!.!.!.!.!.!.!.",
"!.!.!.!.!.!.!.!.!.!.!.!.!.!.!.!.!.!.!.!.!.!.!.!.!.!.!.!.!.!.!.!.!.!.!.!.!.!.!.!.!.!.!.!.!.!.!.!.!.!.!.!.!.!.!.!.!.!.!.!.!.!.!.!.",
"!.!.!.!.!.!.!.!.!.!.!.!.!.!.!.!.!.!.!.!.!.!.!.!.!.!.!.!.!.!.!.!.!.!.!.!.!.!.!.!.!.!.!.!.!.!.!.!.!.!.!.!.!.!.!.!.!.!.!.!.!.!.!.!.",
"!.!.!.!.!.!.!.!.!.!.!.!.!.!.!.!.!.!.!.!.!.!.!.!.!.!.!.!.!.!.!.!.!.!.!.!.!.!.!.!.!.!.!.!.!.!.!.!.!.!.!.!.!.!.!.!.!.!.!.!.!.!.!.!.",
"!.!.!.!.!.!.!.!.!.!.!.!.!.!.!.!.!.!.!.!.!.!.!.!.!.!.!.!.!.!.!.!.!.!.!.!.!.!.!.!.!.!.!.!.!.!.!.!.!.!.!.!.!.!.!.!.!.!.!.!.!.!.!.!.",
"!.!.!.!.!.!.!.!.!.!.!.!.!.!.!.!.!.!.!.!.!.!.!.!.!.!.!.!.!.!.!.!.!.!.!.!.!.!.!.!.!.!.!.!.!.!.!.!.!.!.!.!.!.!.!.!.!.!.!.!.!.!.!.!.",
"!.!.!.!.!.!.!.!.!.!.!.!.!.!.!.!.!.!.!.!.!.!.!.!.!.!.!.!.!.!.!.!.!.!.!.!.!.!.!.!.!.!.!.!.!.!.!.!.!.!.!.!.!.!.!.!.!.!.!.!.!.!.!.!.",
"!.!.!.!.!.!.!.!.!.!.!.!.!.!.!.!.!.!.!.!.!.!.!.!.!.!.!.!.!.!.!.!.!.!.!.!.!.!.!.!.!.!.!.!.!.!.!.!.!.!.!.!.!.!.!.!.!.!.!.!.!.!.!.!.",
"!.!.!.!.!.!.!.!.!.!.!.!.!.!.!.!.!.!.!.!.!.!.!.!.!.!.!.!.!.!.!.!.!.!.!.!.!.!.!.!.!.!.!.!.!.!.!.!.!.!.!.!.!.!.!.!.!.!.!.!.!.!.!.!.",
"!.!.!.!.!.!.!.!.!.!.!.!.!.!.!.!.!.!.!.!.!.!.!.!.!.!.!.!.!.!.!.!.!.!.!.!.!.!.!.!.!.!.!.!.!.!.!.!.!.!.!.!.!.!.!.!.!.!.!.!.!.!.!.!.",
"!.!.!.!.!.!.!.!.!.!.!.!.!.!.!.!.!.!.!.!.!.!.!.!.!.!.!.!.!.!.!.!.!.!.!.!.!.!.!.!.!.!.!.!.!.!.!.!.!.!.!.!.!.!.!.!.!.!.!.!.!.!.!.!.",
"!.!.!.!.!.!.!.!.!.!.!.!.!.!.!.!.!.!.!.!.!.!.!.!.!.!.!.!.!.!.!.!.!.!.!.!.!.!.!.!.!.!.!.!.!.!.!.!.!.!.!.!.!.!.!.!.!.!.!.!.!.!.!.!.",
"!.!.!.!.!.!.!.!.!.!.!.!.!.!.!.!.!.!.!.!.!.!.!.!.!.!.!.!.!.!.!.!.!.!.!.!.!.!.!.!.!.!.!.!.!.!.!.!.!.!.!.!.!.!.!.!.!.!.!.!.!.!.!.!.",
"!.!.!.!.!.!.!.!.!.!.!.!.!.!.!.!.!.!.!.!.!.!.!.!.!.!.!.#.i.i.i.i.i.y.H !.!.!.!.!.!.!.!.!.!.!.!.!.!.!.!.!.!.!.!.!.!.!.!.!.!.!.!.!.",
"!.!.!.!.!.!.!.!.!.!.!.!.!.!.!.!.!.!.!.!.!.!.!.!.!.!.#.{ !.!.!.!.!.%.[ !.!.!.!.!.!.!.!.!.!.!.!.!.!.!.!.!.!.!.!.!.!.!.!.!.!.!.!.!.",
"!.!.!.!.!.!.!.!.!.!.!.!.!.!.!.!.!.!.!.!.!.!.!.!.!.!...Z !.!.!.!.!.!.~ !.!.!.!.!.!.!.!.!.!.!.!.!.!.!.!.!.!.!.!.!.!.!.!.!.!.!.!.!.",
"!.!.!.!.!.!.!.!.!.!.!.!.!.!.!.!.!.!.!.!.!.!.!.!.!.!.^ F ..!.!.!.!.o.] g.!.!.!.!.!.!.!.!.!.!.!.!.!.!.!.!.!.!.!.!.!.!.!.!.!.!.!.!.",
"!.!.!.!.!.!.!.!.!.!.!.!.&.$.$.$.%.%.%.%.%.%.%.%.%.%.%.%.%.%.%.%.i.S.Y.R.E.E.U.S.F.P.P.U.I.I.F.S.U.Y.W.Y.R.!.!.!.!.!.!.!.!.!.!.!.",
"!.!.!.!.!.!.!.!.!.!.!.N.l.l.l.l.l.l.l.l.l.l.l.l.l.l.l.z.l.l.l.l.S.W.R.Y.D.F.D.F.A.D.D.I.D.D.V.A.S.S.U.E.Y.!.!.!.!.!.!.!.!.!.!.!.",
"!.!.!.!.!.!.!.!.!.!.!.N.N.N.N.N.N.N.N.N.N.N.N.N.N.N.N.z.z.N.z.N.P.E.I.V.F.P.Z.4.2.2.2.2.3.3.2.8.L.U.S.P.Y.R.!.!.!.!.!.!.!.!.!.!.",
"!.!.!.!.!.!.!.!.!.!.!.N.z.N.z.z.N.z.N.N.N.z.N.z.N.z.N.N.N.N.z.N.P.U.a.B.Z.2.e y 6 5 6 y i y 5 5 u 8.J.P.U.E.!.!.!.!.!.!.!.!.!.!.",
"!.!.!.!.!.!.!.!.!.!.!.N.z.z.N.s.k.s.l.s.k.s.l.k.k.k.k.k.l.N.z.N.P.U.&.B.-.1 1 * 5   2 2 1 5   2   = 8.P.D.R.!.!.!.!.!.!.!.!.!.!.",
"!.!.!.!.!.!.!.!.!.!.!.N.N.N.V.P ( n ` r ' r ` M P L J ) y.N.z.N.P.U.&.B.=.6 y y y y y y y y y y y 2 6.I.P.R.!.!.!.!.!.!.!.!.!.!.",
"!.!.!.!.!.!.!.!.!.!.!.N.N.N.V.n K 8 ( 7 _ 7 U 0 J p q I e.N.N.l.P.U.&.B.=.1 5 3 5 1 5 2 2 5 1 5 3 = 7.D.D.R.!.!.!.!.!.!.!.!.!.!.",
"!.!.!.!.!.!.!.!.!.!.!.N.N.z.V.n K 8 ( 7 ) 4 U 9 J r q I e.z.z.z.P.T.&.B.=.5 t t y t t t t t t t e 3 7.I.P.R.!.!.!.!.!.!.!.!.!.!.",
"!.!.!.!.!.!.!.!.!.!.!.N.z.z.V.:.,._ 3.P 5.I <.) <.:.` <.@.z.z.l.D.T.@.B.=.t s 5 6 5 6 6 5 6 5 6 5 1 6.P.F.L.!.!.!.!.!.!.!.!.!.!.",
"!.!.!.!.!.!.!.!.!.!.*.&.&.&.y.i.i.i.i.i.i.i.p.p.i.i.i.u.+.&.&.%.a.U.d.n.>.G.Q.y 6 5 6 6 5 6 5 6 5 1 7.F.B.U.!.!.!.!.!.!.!.!.!.!.",
"!.!.!.!.!.!.!.!.!.!.b b b b b b b b b b b b b b b b b b b b b b N w.o.j.-.;.H.s t t t t t t t t t 1 7.x.] r.!.!.!.!.!.!.!.!.!.!.",
"!.!.!.!.!.!.!.!.!.!./ / { / { / { / / / / / / { / / / / / / / / | x.t.j.-.0.Q.6 5 3 5 5 3 6 1 5 2 * 7.m.t.v.!.!.!.!.!.!.!.!.!.!.",
"!.!.!.!.!.!.!.!.!.!.!.F V V W ~ { ~ ~ ~ ~ ~ ~ G ~ ~ ~ { [ V V V ^ O.O.N.>.0.H.s y t y y y y y y y 2 7.C.R q.!.!.!.!.!.!.!.!.!.!.",
"!.!.!.!.!.!.!.!.!.!.!.k f f x & - - > + z + g - : ; % z ! f f f v W  .V.=.3 5 1 5 1 2 3 1 5   5 1   8.g.x v !.!.!.!.!.!.!.!.!.!.",
"!.!.!.!.!.!.!.!.!.!.!.k f f x & - + , X > X g o ; $ % z ~ h f f C D  .V.=.6 y y i y i y y y y y y 2 8.g.B G !.!.!.!.!.!.!.!.!.!.",
"!.!.!.!.!.!.!.!.!.!.!.k f f c & - + , X j X > o ; $ @ z ! k f h B W  .V.=.1 5 < 5 1 5 2 1 5 < 5 1   7.g.C ! !.!.!.!.!.!.!.!.!.!.",
"!.!.!.!.!.!.!.!.!.!.!.k f f l & : ; g @ g @ g ; d ; ; j B h f h C Q  .V.=.6 y t y t t y t y u y y 2 7.g.B ! !.!.!.!.!.!.!.!.!.!.",
"!.!.!.!.!.!.!.!.!.!.!.k h k h h f f h h h h h h h h h f f f f h C Q  .V.2.X 5 3 6 3 5 5 2 5 2 5 1 1 h.f.S ! !.!.!.!.!.!.!.!.!.!.",
"!.!.!.!.!.!.!.!.!.!.!.k h h h h f f h h h h f h h h h f f h f h B W } i.J.>.y s y i i i a y s i i 4.J.o.A ! !.!.!.!.!.!.!.!.!.!.",
"!.!.!.!.!.!.!.!.!.!.!.k h h h h f h h h h h h h h h h k h h h h C W W } i.K.v.c.c.c.c.c.v.v.c.c.b.Z.X.S Q G !.!.!.!.!.!.!.!.!.!.",
"!.!.!.!.!.!.!.!.!.!.!.j d d d d : d d d d d d d d d d d d d d d v W W W D H E T J / Y / R R Y J Y H A W D !.!.!.!.!.!.!.!.!.!.!.",
"!.!.!.!.!.!.!.!.!.!.!.!.# . . . . . . . . . . . . . . . . . . . # v Q W W A A A Z Z A A A A A S S A W Q G !.!.!.!.!.!.!.!.!.!.!.",
"!.!.!.!.!.!.!.!.!.!.!.!.!.!.!.!.!.!.!.!.!.!.!.!.!.!.!.!.!.!.!.!.!.!.!.!.!.!.!.!.!.!.!.!.!.!.!.!.!.!.!.!.!.!.!.!.!.!.!.!.!.!.!.!.",
"!.!.!.!.!.!.!.!.!.!.!.!.!.!.!.!.!.!.!.!.!.!.!.!.!.!.!.!.!.!.!.!.!.!.!.!.!.!.!.!.!.!.!.!.!.!.!.!.!.!.!.!.!.!.!.!.!.!.!.!.!.!.!.!.",
"!.!.!.!.!.!.!.!.!.!.!.!.!.!.!.!.!.!.!.!.!.!.!.!.!.!.!.!.!.!.!.!.!.!.!.!.!.!.!.!.!.!.!.!.!.!.!.!.!.!.!.!.!.!.!.!.!.!.!.!.!.!.!.!.",
"!.!.!.!.!.!.!.!.!.!.!.!.!.!.!.!.!.!.!.!.!.!.!.!.!.!.!.!.!.!.!.!.!.!.!.!.!.!.!.!.!.!.!.!.!.!.!.!.!.!.!.!.!.!.!.!.!.!.!.!.!.!.!.!.",
"!.!.!.!.!.!.!.!.!.!.!.!.!.!.!.!.!.!.!.!.!.!.!.!.!.!.!.!.!.!.!.!.!.!.!.!.!.!.!.!.!.!.!.!.!.!.!.!.!.!.!.!.!.!.!.!.!.!.!.!.!.!.!.!.",
"!.!.!.!.!.!.!.!.!.!.!.!.!.!.!.!.!.!.!.!.!.!.!.!.!.!.!.!.!.!.!.!.!.!.!.!.!.!.!.!.!.!.!.!.!.!.!.!.!.!.!.!.!.!.!.!.!.!.!.!.!.!.!.!.",
"!.!.!.!.!.!.!.!.!.!.!.!.!.!.!.!.!.!.!.!.!.!.!.!.!.!.!.!.!.!.!.!.!.!.!.!.!.!.!.!.!.!.!.!.!.!.!.!.!.!.!.!.!.!.!.!.!.!.!.!.!.!.!.!.",
"!.!.!.!.!.!.!.!.!.!.!.!.!.!.!.!.!.!.!.!.!.!.!.!.!.!.!.!.!.!.!.!.!.!.!.!.!.!.!.!.!.!.!.!.!.!.!.!.!.!.!.!.!.!.!.!.!.!.!.!.!.!.!.!.",
"!.!.!.!.!.!.!.!.!.!.!.!.!.!.!.!.!.!.!.!.!.!.!.!.!.!.!.!.!.!.!.!.!.!.!.!.!.!.!.!.!.!.!.!.!.!.!.!.!.!.!.!.!.!.!.!.!.!.!.!.!.!.!.!.",
"!.!.!.!.!.!.!.!.!.!.!.!.!.!.!.!.!.!.!.!.!.!.!.!.!.!.!.!.!.!.!.!.!.!.!.!.!.!.!.!.!.!.!.!.!.!.!.!.!.!.!.!.!.!.!.!.!.!.!.!.!.!.!.!.",
"!.!.!.!.!.!.!.!.!.!.!.!.!.!.!.!.!.!.!.!.!.!.!.!.!.!.!.!.!.!.!.!.!.!.!.!.!.!.!.!.!.!.!.!.!.!.!.!.!.!.!.!.!.!.!.!.!.!.!.!.!.!.!.!.",
"!.!.!.!.!.!.!.!.!.!.!.!.!.!.!.!.!.!.!.!.!.!.!.!.!.!.!.!.!.!.!.!.!.!.!.!.!.!.!.!.!.!.!.!.!.!.!.!.!.!.!.!.!.!.!.!.!.!.!.!.!.!.!.!.",
"!.!.!.!.!.!.!.!.!.!.!.!.!.!.!.!.!.!.!.!.!.!.!.!.!.!.!.!.!.!.!.!.!.!.!.!.!.!.!.!.!.!.!.!.!.!.!.!.!.!.!.!.!.!.!.!.!.!.!.!.!.!.!.!.",
"!.!.!.!.!.!.!.!.!.!.!.!.!.!.!.!.!.!.!.!.!.!.!.!.!.!.!.!.!.!.!.!.!.!.!.!.!.!.!.!.!.!.!.!.!.!.!.!.!.!.!.!.!.!.!.!.!.!.!.!.!.!.!.!.",
"!.!.!.!.!.!.!.!.!.!.!.!.!.!.!.!.!.!.!.!.!.!.!.!.!.!.!.!.!.!.!.!.!.!.!.!.!.!.!.!.!.!.!.!.!.!.!.!.!.!.!.!.!.!.!.!.!.!.!.!.!.!.!.!.",
"!.!.!.!.!.!.!.!.!.!.!.!.!.!.!.!.!.!.!.!.!.!.!.!.!.!.!.!.!.!.!.!.!.!.!.!.!.!.!.!.!.!.!.!.!.!.!.!.!.!.!.!.!.!.!.!.!.!.!.!.!.!.!.!.",
"!.!.!.!.!.!.!.!.!.!.!.!.!.!.!.!.!.!.!.!.!.!.!.!.!.!.!.!.!.!.!.!.!.!.!.!.!.!.!.!.!.!.!.!.!.!.!.!.!.!.!.!.!.!.!.!.!.!.!.!.!.!.!.!.",
"!.!.!.!.!.!.!.!.!.!.!.!.!.!.!.!.!.!.!.!.!.!.!.!.!.!.!.!.!.!.!.!.!.!.!.!.!.!.!.!.!.!.!.!.!.!.!.!.!.!.!.!.!.!.!.!.!.!.!.!.!.!.!.!.",
"!.!.!.!.!.!.!.!.!.!.!.!.!.!.!.!.!.!.!.!.!.!.!.!.!.!.!.!.!.!.!.!.!.!.!.!.!.!.!.!.!.!.!.!.!.!.!.!.!.!.!.!.!.!.!.!.!.!.!.!.!.!.!.!."
};
