/* XPM */
static char *result[] = {
/* columns rows colors chars-per-pixel */
"64 64 52 1 ",
"  c #6B462D",
". c #6D4A2D",
"X c #704C27",
"o c #734D2E",
"O c #784D2C",
"+ c #75512E",
"@ c #7A542E",
"# c #6C4631",
"$ c #6E4A31",
"% c #704734",
"& c #734D32",
"* c #7B4F33",
"= c #724C39",
"- c #755132",
"; c #7B5433",
": c #7D5935",
"> c #775238",
", c #7B5539",
"< c #7E5A3A",
"1 c #815634",
"2 c #825B35",
"3 c #885F35",
"4 c #805639",
"5 c #835D3A",
"6 c #895E3B",
"7 c #866136",
"8 c #8A6136",
"9 c #86613C",
"0 c #8D653C",
"q c #8E683C",
"w c #916937",
"e c #91673D",
"r c #91683C",
"t c #845D41",
"y c #885F40",
"u c #866242",
"i c #8C6542",
"p c #8E6943",
"a c #8C6649",
"s c #8E6949",
"d c #916641",
"f c #936B43",
"g c #986F45",
"h c #946D4A",
"j c #986F4D",
"k c #967046",
"l c #987146",
"z c #96714B",
"x c #9A724D",
"c c #967151",
"v c #9A7451",
"b c #A0764B",
/* pixels */
"eeeeeeeeeeq7o-qweeeeeeereeeewwp9@0ererrj;,0eeeeeereeeqq9%;xbeeee",
"eeeeerreee9:.&9qeeeeeeeeeeeeqq5,zewrewrds;9eeeeedreeeqq7*hfreeee",
"eeeeeeeee9;..&<qeeweeeeeeeeeq8:hprrreerq0Oiwereeeeeeeqi<&idweeee",
"edeeeeee0@:czp@2eeeeeeeereeep7@pqqerreeq9&5eeeeeeeeerp4>herreeee",
"ereeeeee8@kdkfi;0qeeeeeeeeeeq9:0qreeree0fp-8eeeeeeqqq1-sfewreere",
"rreeeeeeeqfqqqu*iwqqere0eeqep9;0rrreeeeee0+2eededd92:.$aqeredeee",
"reeeee33eqrrrq6&5qpq000qeeqqq;+0eeeeeeeeeep-0eeee0:o$##><00edere",
"dreee818eerree6#-:52:652qq00:@qqeeeeeeeeedi%40e002-hhpui-:piqeee",
"eeeee03eeweeew6#..&oo-+-57<,;pfqeeeeeeeeee9%&<22:;djlrrgp;:pqqqq",
"reeeeeeeeeeerq,# -ap50pi&.&#-prq0eeeeeeeee0;#$oo-iferqqeh5-5:78q",
"7q910eeeeeewq9$-ppfgdekhsu# $<00deeeeeeerr0,-aiq8feeeeee09o%%+12",
";4;60eeeeeee9;-pzkeeeeqezp9u.+7qeeeeeeeeqr9-izlgeee0eeeeqi&usu+o",
"$&-9pqeeeed0:-pk0eeeeeqrqqdf:.-<0eeqqreere7+fqreeeeeeeee04ijxzaa",
"u5+-78eeeq0::qpqeeeeeeeeqqqqi;.-72277700re4O0qreeeeeeedd4ige0dfx",
"lf9<o@9ee0:-pkqweeeeeeeeeeere9$#&--+oO6qq2&%60qeqqeeed011geweeee",
"qglk5$;775;ifqqqeee3deereerqeu##uuauu5@72&$ -577qqpeee6Oieeeeeee",
"eeerh<.---ifeeeeeee13eeeeeeeeu&yzlxxzk4Oo.%t5&&&:6iqqeq2eeeeeeee",
"eeeeff- =ukpdeeeeee8120edeed02uxqqqqqfz<.$uxct66<;0qrreedeeeeeee",
"eeeeep0>,zeeeeeeeeee62e83dd040feeqeeqqdj*$hddxxxz70qrr8eeeeeeeee",
"eedeeqfa>peeedeeeeeeeee8224:2zeeeeeeeeeduo0eeereekq7wq@0eeeeeede",
"eeeeeee<&deeereeeeeeeeefh;.5eeeeeeeeeee0510eeeeeqe0@88+9eddeeeee",
"eeeerq6@:eeeeeereeereeeedh;zeeeeeeeeeee0+0eeeeeeeee070@7ideeeeee",
"edeeq7-4deedeeeeeeeeeeee09;deeeereeeeee9Oieeeeeeeeeeqq9@69eqe0ee",
"ee0qq5*ieeeeeeeereeeeeeee91ieeeeeeedeee6:eeeeeeeqeeeqqq9;@9qqeee",
"eeeeq,-ieweeeereeereeeeeq6+0reeeeererre9+9eeeeeeee0qdeei0@;00rrr",
"eeee6&+ieeeeeereeeeeeeeqq<-9rrwreeqqwre6&:qieeqeeq0q0qeq09o60err",
"9000;*;4ieeeeeeeeeeeeee05.$<0rqweeq00q9;##<9qwq0e00;@@7975$$:9q9",
";;;;5cf-4i0eeeerreeeeee3&$ &0eeeeq0;;;;%###:000idu;.->>,--&#.;;;",
"-+o5jdlp>420de0eedeeee3@u9oo9qeer8;+&**$-$#&;:,:;-.>zvxzpzz>. o&",
"xxxxdeefp+@<000qreeeeee00q5%;qq001;xxjxvvf&#$&&-&Oozgeerqppso-zv",
"eegeeeerrls>:2qqee93eeeeeq7.o;::@:jfrrdefrp$-cxzvs>i00qqqqqqOjfr",
"eeeqeee0rgka&&<0q9;@0ee0ep9.oo&&;hfeeeeeqei>hfkrphh>:0qqqqi7-dre",
"eeeeeee0qqqka o,:;&0eerrei:-jjjjigeeeeqeee3+deweqqfh-+20qq::fdee",
"eeeeeeeeqppp<$$o.#o20qre0;:ffgdrqqeeeeeeee9Oieereeefch+,:;-hfpee",
"eeeeeeqeqq<::zxxxa%+42:4;;heeeeeeweeeeweee01ieeeeeeeffpO..Oqqeee",
"eeeeed0qq9:-kkrrghp..$$.*jf03eeeeeeeeeeeeee0edreeeee0qks&$ppeeee",
"eedeeepq<:-peweeedhy#.*hhfd06;eeeeeeeeewrre05dereeeee0pi=agreeee",
"eeeerqq;+:zreeeeeedjy*ahfdeee110eeeeeeeerre0*dweeeeeee0<*fdweeee",
"reeeq9:;spkwedeewrqqu-reeedeee2O4eeeeeeeeee6Odeeeeeeer2;adeweeee",
"eewrq7@pzrqqeeeeeere6Oeeeeeeeee20,2rreewee2;1edeeeee4;Xosdeeddee",
"eeeeii7fqee0eeqeeqee4+00eeeeeeeegy*0qqqq9:@:eeddeee8@ia5,deeedee",
"ee002<ipeeeeeeeeeeei<-90eeeeeeeedfo2qqqq<-$iereeeeeepzhi66eideee",
"rq02.o9feeeeeeeeee02..-6reeeqeeeq9X-<955& -iiedqeeeqfq0dd0:6pqee",
"q82;yt-9ddeeeeee032@uu7+28eeeeeeq<.#&&&$ .$iqee031eqedeqe06-60ee",
"7:;pxg5*757pd0q0:O;0lxz5&-9reeqq1+>>$#ott,o9qqq7@60qeeeeerl9+597",
"+-0ferh5-+-;26806:6lq0ff<.>689ii22pi,tixza<,99<:6hpqqeeeeqql9-+&",
"9igwwrfu.$<55560iddeeeeeh<#>-+<52qq0dxleqek<-&-9jd0eeeeeeqqqs$ <",
"vzeerei6-uvxzqedeeeeeerqph$$<4:4:qqqqqeeqqrk$$<lededeeeeeeqpu$tc",
"qqeedde2:z0eeeeeeeeeeeewq6$9xxfdidddeeeeeee7*5jerreeeeeeeeequ*fd",
"qqeeeed2@0eeeeeeeeeeeeeee5>zeeeeeeeeeeeeedq0*jeeeeeeeeeeeeeeu*ii",
"6eerrwi5-eeeeeeeeeeereeeq<-ieeeeeeeeeeeeeee9%0edeeeeeweeeeee0&ue",
";9rrred6-ieeeeeeereeeeeep9*ieeeeeeeeeeeeeeeu$0edeeeeeeeeeeeei%6i",
"616dy66:,0eeeeeeeeeeeeeeq<*i0eeeerrreeeeee06&0eeeeeeeeeeeerq9%;0",
"d6166;;@q08eeeeeeeeeeeee7;5ieeeeeedeeeeeee7;;0eeeeeeeeeeeee0:,je",
"ed6O6jjeq<+0eeeeeeeee0d9@:zd0eeeerreeeeqr9>oueredeeeeeeeeer7,zde",
"ee0fjdeer9o1wweeeeee009;;zqereeeeeeeee0q7-$$,9q0deeeeeeeeeq@zdee",
"wweedde0eq6+;90d0q007:;&&i0weeeeedeeeeq0-$# $>-:9p0qqqqqe09qpqee",
"weeq00dqee06o;:0009;+&*--:0eqeeeeeeeee0>..&&&--+4i0qiqiq9;;0rree",
"eed6@2qqqq0@o-+;::@:xvvvf-;11q0deeedep9$$>zvcvvk@;,:;,-:;;zeeeeq",
"0eee2&,,,:;:zxp&%%2xfefdhh&&+20eeeeqqq9$>zfeqrfkp+$-+.$$;fdqeeqq",
"eqeq5.-o+%;zfkpa;jjreeeeedxvf-28eeeqeq7*fdeqeqeqqqxvh- &hfdeeeee",
"0qq8-;ccxa;pqqp7;eeeqeeeqeeghh@:p0qq0q>*pweeeeeqqqffhs-she0eeqeq",
",,:,:zfkff0:09:4h0wqeeeeeeerfhp@<,:::;.$0reee0eeeqqqei+ieeee02::",
"...:zrqqqqgi&%;jfeeeeeeeeereersa&.....#%iedereeqeeeqe0X40e004o.."
};
