/* XPM */
static char *result[] = {
/* columns rows colors chars-per-pixel */
"64 64 179 2 ",
"   c #0A0D13",
".  c #131920",
"X  c #181F28",
"o  c #20272F",
"O  c #2D333C",
"+  c #4D5F64",
"@  c #535E64",
"#  c #4F6268",
"$  c #556264",
"%  c #5A6265",
"&  c #556369",
"*  c #596669",
"=  c #5D6A6C",
"-  c #576A6D",
";  c #5A6770",
":  c #5C6C71",
">  c #5D7075",
",  c #5D7078",
"<  c #636C72",
"1  c #627175",
"2  c #657379",
"3  c #6C7479",
"4  c #66797D",
"5  c #6A7A7D",
"6  c #6C7174",
"7  c #71767A",
"8  c #717C7E",
"9  c #7B7F7B",
"0  c #B63224",
"q  c #B63329",
"w  c #B43533",
"e  c #BA3432",
"r  c #B13638",
"t  c #C12839",
"y  c #BE2F48",
"u  c #AA3547",
"i  c #CB2B46",
"p  c #8F4351",
"a  c #AB4C4C",
"s  c #AF4B46",
"d  c #B34B4B",
"f  c #A95B4B",
"g  c #B25A4C",
"h  c #AC4D54",
"j  c #BC4552",
"k  c #B14B54",
"l  c #AC5B52",
"z  c #A5565A",
"x  c #B9565D",
"c  c #B06052",
"v  c #BF6A50",
"b  c #9D5C68",
"n  c #A65E63",
"m  c #B05661",
"M  c #91696F",
"N  c #9D7A6C",
"B  c #996D71",
"V  c #8A7F7A",
"C  c #9B7E77",
"Z  c #957C7C",
"A  c #997C7B",
"S  c #987579",
"D  c #A56067",
"F  c #A6616A",
"G  c #A37B6E",
"H  c #AE6671",
"J  c #A27C76",
"K  c #A67678",
"L  c #B07271",
"P  c #C96F5A",
"I  c #D77F65",
"U  c #6E897B",
"Y  c #74827C",
"T  c #7C847A",
"R  c #75897D",
"E  c #7C8A7E",
"W  c #7D8B76",
"Q  c #8D8077",
"!  c #85837E",
"~  c #8F847F",
"^  c #898878",
"/  c #958174",
"(  c #928179",
")  c #A08278",
"_  c #6B7D81",
"`  c #737D83",
"'  c #7A7E83",
"]  c #727E89",
"[  c #837F8C",
"{  c #967B83",
"}  c #997B85",
"|  c #6D8186",
" . c #678D88",
".. c #6D8C86",
"X. c #768385",
"o. c #7B8485",
"O. c #758A87",
"+. c #7C8A85",
"@. c #75868B",
"#. c #7B868B",
"$. c #768A8E",
"%. c #7B898D",
"&. c #6C938E",
"*. c #6C9086",
"=. c #758792",
"-. c #7B8494",
";. c #768B91",
":. c #7B8A91",
">. c #7C8B99",
",. c #7E9196",
"<. c #828586",
"1. c #8E8684",
"2. c #81868B",
"3. c #89858B",
"4. c #828A8C",
"5. c #8B8B8B",
"6. c #818B85",
"7. c #908580",
"8. c #94818E",
"9. c #8F908F",
"0. c #82928D",
"q. c #90908D",
"w. c #929183",
"e. c #838591",
"r. c #888492",
"t. c #828C93",
"y. c #8A8C93",
"u. c #888798",
"i. c #8B8C99",
"p. c #848598",
"a. c #928D9A",
"s. c #839195",
"d. c #8B9495",
"f. c #8C959A",
"g. c #8C999C",
"h. c #8B9896",
"j. c #939494",
"k. c #949897",
"l. c #929699",
"z. c #939A9D",
"x. c #999C9C",
"c. c #A59597",
"v. c #97A19B",
"b. c #ADA99C",
"n. c #8E9BA1",
"m. c #8D9EAC",
"M. c #919AA1",
"N. c #9A9EA3",
"B. c #95A4A6",
"V. c #9BA3A5",
"C. c #9CA5A9",
"Z. c #9FAAAD",
"A. c #99A9A7",
"S. c #9FA3B0",
"D. c #A9A7A6",
"F. c #A8A7AC",
"G. c #A1ABAD",
"H. c #ABAAAC",
"J. c #A4AAA7",
"K. c #B0A4A7",
"L. c #ACB0AF",
"P. c #A5ACB2",
"I. c #ACB1B2",
"U. c #AFB4B8",
"Y. c #A5B1B2",
"T. c #B1B6B9",
"R. c #B7BFBE",
"E. c #B6B1B7",
"W. c #C09C85",
"Q. c #D0A895",
"!. c #EBC4AE",
"~. c #BDC1C1",
"^. c #BEC9CD",
"/. c #C0C3C7",
"(. c #E4D5DD",
"). c #EEDAE2",
"_. c #F5DBEA",
"`. c #FEE0F1",
"'. c None",
/* pixels */
"'.'.'.'.'.'.'.'.'.'.'.'.'.'.'.'.'.'.'.'.'.'.'.'.'.'.'.'.'.'.'.'.'.'.'.'.'.'.'.'.'.'.'.'.'.'.'.'.'.'.'.'.'.'.'.'.'.'.'.'.'.'.'.'.",
"'.'.'.'.'.'.'.'.'.'.'.'.'.'.'.'.'.'.'.'.'.'.'.'.'.'.'.'.'.'.'.'.'.'.'.'.'.'.'.'.'.'.'.'.'.'.'.'.'.'.'.'.'.'.'.'.'.'.'.'.'.'.'.'.",
"'.'.'.'.'.'.'.'.'.'.'.'.'.'.'.'.'.'.'.'.'.'.'.'.'.'.'.'.'.'.'.'.'.'.'.'.'.'.'.'.'.'.'.'.'.'.'.'.'.'.'.'.'.'.'.'.'.'.'.'.'.'.'.'.",
"'.'.'.'.'.'.'.'.'.'.'.'.'.'.'.'.'.'.'.'.'.'.'.'.'.'.'.'.'.'.'.'.'.'.'.'.'.'.'.'.'.'.'.'.'.'.'.'.'.'.'.'.'.'.'.'.'.'.'.'.'.'.'.'.",
"'.'.'.'.'.'.'.'.'.'.'.'.'.'.'.'.'.'.'.'.'.'.'.'.'.'.'.'.'.'.'.'.'.'.'.'.'.'.'.'.'.'.'.'.'.'.'.'.'.'.'.'.'.'.'.'.'.'.'.'.'.'.'.'.",
"'.'.'.'.'.'.'.'.'.'.'.'.'.'.'.'.'.'.'.'.'.'.'.'.'.'.'.'.'.'.'.'.'.'.'.'.'.'.'.'.'.'.'.'.'.'.'.'.'.'.'.'.'.'.'.'.'.'.'.'.'.'.'.'.",
"'.'.'.'.'.'.'.'.'.'.'.'.'.'.'.'.'.'.'.'.'.'.'.'.'.'.'.'.'.'.'.'.'.'.'.'.'.'.'.'.'.'.'.'.'.'.'.'.'.'.'.'.'.'.'.'.'.'.'.'.'.'.'.'.",
"'.'.'.'.'.'.'.'.'.'.'.'.'.'.'.'.'.'.'.'.'.'.'.'.'.'.'.'.'.'.'.H.k.k.k.x.j.'.'.'.'.'.'.'.~.k.j.j.k.q.5.'.'.'.'.'.'.'.'.'.'.'.'.'.",
"'.'.'.'.'.'.'.'.'.'.'.'.'.'.'.'.'.'.'.'.'.'.'.'.'.'.'.'.'.'.'.V.9 o.<.<.o.'.'.'.'.'.'.'.I.<.o.o.o.' 9 '.'.'.'.'.'.'.'.'.'.'.'.'.",
"'.'.'.'.'.'.'.'.'.U.z.z.f.A.'.'.'.'.'.'.'.'.'.'.'.'.'.'.'.d.g.8 = ` :.@.@.'.'.'.'.'.N.l.2.< 3 %.%.#.#.'.'.'.'.'.'.'.'.'.'.'.'.'.",
"'.'.'.'.'.'.'.'.'.F.5.#.X.A.'.'.'.'.'.'.'.'.'.'.'.'.'.'.'.o.X.1 - 4 :.$.@.g.'.'.'.'.i.` 3 : > @.:.%.%.'.'.'.'.'.'.'.'.'.'.'.'.'.",
"'.'.'.'.'.'.'.'.'.F.o.2.%.%.%.'.'.'.'.'.'.'.'.'.'.'.'.5.o.#.#.O._ 5 , > > 2 @.X.#.t.e.#.` ` 4 > : : : '.'.'.'.'.'.'.'.'.'.'.'.'.",
"'.'.'.'.'.'.'.'.'.D.4.4.O.O.O.X.'.'.'.'.'.'.'.'.'.'.'.d.+.4.%.%.$.4 & # # : O.@.#.#.#.#.:.:._ # # # = '.'.'.'.'.'.'.'.'.'.'.'.'.",
"'.'.'.'.'.'.'.'.'.'./.Z.O.O.O.Y '.'.'.'.'.'.'.'.'.'.'.d.o.#.%.#.$.@.| _ , _ ;.:.:.:.%.%.@.:.$._ | 5 %.G.G.'.'.'.'.'.'.'.'.'.'.'.",
"'.'.'.'.'.'.'.'.'.'.'.'.O.O.%.X.'.'.'.'.'.'.'.'.'.'.'.k.o.2.%.%.%.$.;.;.;.,.;.$.%.%.$.$.:.,.$.;.$.$.:.#.o.'.'.'.'.'.'.'.'.'.'.'.",
"'.'.'.'.'.'.'.'.'.'.'.'.%.O.+.X.'.'.'.'.'.'.'.'.'.'.'.k.+.O.%.%.O.$.$.;.$.$.O.$.;.$.@.$.$.$.$.O.O.%.%.#.#.'.'.'.'.'.'.'.'.'.'.'.",
"'.'.'.'.'.'.'.'.'.'.'.'.%.%.+.X.'.'.'.'.'.'.'.'.'.'.'.l.4.4.:.+.$.$.;.:.,.%.@.$.;.$.O.;.;.:.:.:.@.%.%.%.4.'.'.'.'.'.'.'.'.'.'.'.",
"'.'.'.'.'.'.'.'.'.'.'.'.%.O.%.X.'.'.'.'.'.'.'.'.'.'.'.l.o.%.%.+.%.$.$.$.:.:.$.%.:...$.;.:.%.:.:.@.>.%.X.o.'.'.'.'.'.'.'.'.'.'.'.",
"'.'.'.'.'.'.'.'.'.'.'.'.+.O.O.R '.'.'.'.'.'.'.'.'.'.'.j.X.X.#.%.%.,.>.:.t.t.#.:.:.;.;.$.$.@.#.d.f.t.%.#.4.'.'.'.'.'.'.'.'.'.'.'.",
"'.'.'.'.'.'.'.'.'.'.'.'.,.O.,.O.'.'.'.'.'.'.'.'.'.'.'.C.d.d.g.s.$.$.;._ $ < #.%.$.,.%.@.,.:.` @ < :.%.X.%.'.'.'.'.'.'.'.'.'.'.'.",
"'.'.'.'.'.'.'.'.'.'.'.'.%.%.%.X.'.'.'.'.'.'.'.'.'.'.'.T.G.P.Z.n.$.@.@.@   O ` t.%.$.$.:.s.:.@ . o @.%.o.X.'.'.'.'.'.'.'.'.'.'.'.",
"'.'.'.'.'.'.'.'.'.'.'.'.+.+.%.#.'.'.'.'.'.'.'.'.'.'.'.T.Z.P.G.M.#.=.:.; . O ` :.$.,.@.| %.:.& X O @.%.%.2.'.'.'.'.'.'.'.'.'.'.'.",
"'.'.'.'.'.'.'.'.'.'.'.'.#.%.#.#.'.'.'.'.'.'.'.'.'.'.'.l.o.e.[ u.>.>.>.-.X.#.:.>.=.;., - | @.@.] ] t.:.%.%.'.'.'.'.'.'.'.'.'.'.'.",
"'.'.'.'.'.'.'.'.'.'.'.'.2.4.#.-.'.'.'.'.'.'.'.'.'.'.'.l.%.e.t.t.>.>.;.@.O.#.@.=.s.,.4 = Y 0.4.#.#.:.#.%.4.'.'.'.'.'.'.'.'.'.'.'.",
"'.'.'.'.'.'.'.'.'.'.'.'.2.6.:.:.:.:.:.t.s.4.'.'.'.'.'.Y.C.G.G.f.@... .*.R 6.#.s.N.S.%.Y j.J.v.4.%.4.#.%.#.C.'.'.'.'.'.'.'.'.'.'.",
"'.'.'.'.'.'.'.'.'.'.'.'.2.#.%.:.:.:.#.%.4.X.'.'.'.'.'.R.L.D.D.q.T R R R o.5.2.i.G.P.l.4.v.L.N.t.e.%.X.#.X.z.P.'.'.'.'.'.'.'.'.'.",
"'.'.'.'.'.'.'.'.'.'.'.'.2.#.#.:.>.:.:.:.4.#.s.n.g.N.E.(.).} M S Z ^ W E <.r.[ 3.a.a.3.1.5.j.y.r.i.y.y.'.'.'.'.'.'.'.'.'.'.'.'.'.",
"'.'.'.'.'.'.'.'.'.'.'.'.#.%.=.:.%.=.#.#.#.O.,.;.#.[ c._.`.b p F K N / / Z { { { } } A C / A S { 8.3.2.'.'.'.'.'.'.'.'.'.'.'.'.'.",
"'.'.'.'.'.'.'.'.'.'.'.'.#.%.%.;.:.;.:.%.%.%.:.;.;.$.0.G.K.J n m x y j j a a h k g d d d s a a h H '.'.'.'.'.'.'.'.'.'.'.'.'.'.'.",
"'.'.'.'.'.'.'.'.'.'.'.'.#.#.:.$.$.;.$.%.%.#.:.:.;.&.&.*.+.! S z u y i e w w w w q t q 0 0 q r r x '.'.'.'.'.'.'.'.'.'.'.'.'.'.'.",
"'.'.'.'.'.'.'.'.'.'.'.'.6.%.%.;.:.;.$.:.%.%.t.p.:.%.%.%.+.~ Z B b b n l f l l l g g I I v f c l L '.'.'.'.'.'.'.'.'.'.'.'.'.'.'.",
"'.'.'.'.'.'.'.'.'.'.'.'.#.%.$.;.;.;.$.%.+.%.2.r.p.:.%.%.#.<.1.1.~ 1.1.Q / C C J G ) Q.!.) N ) A c.'.'.'.'.'.'.'.'.'.'.'.'.'.'.'.",
"'.'.'.'.'.'.'.'.'.'.'.'.%.%.=.$.;.;.;.%.%.%.e.3.e.:.:.%.%.O.+.#.+.+.%.O.+.6.4.5.1.1.x.b.~ W 2.#.M.'.'.'.'.'.'.'.'.'.'.'.'.'.'.'.",
"'.'.'.'.'.'.'.'.'.'.'.'.O.%.$.;.;.;.$.$.#.#.#.t.:.%.;.;.%.t.e.2.%.:.;.$.&.:.:.:.4.5.! T T T $.;.m.'.'.'.'.'.'.'.'.'.'.'.'.'.'.'.",
"'.'.'.'.'.'.'.'.'.'.'.'.#.#.;.;.;.;.$.%.%.#.%.:.:.%.$.:.:.t.e.t.-.#.#.;.$.=.=.:.#.#.2.6.+.%.@.;.m.'.'.'.'.'.'.'.'.'.'.'.'.'.'.'.",
"'.'.'.'.'.'.'.'.'.'.'.'.6.#.%.$.O.,.%.%.%.%.%.%.%.:.:.:.#.:.%.-.%.%.:.:.=.=.:.:.:.:.%.%.%.:.%.=.m.'.'.'.'.'.'.'.'.'.'.'.'.'.'.'.",
"'.'.'.'.'.'.'.'.'.'.'.'.2.#.%.;.;.;.:.$.%.%.%.:.:.%.:.#.#.:.%.:.:.#.#.:.:.:.:.=.=.:.-.@.:.:.:.@.M.'.'.'.'.'.'.'.'.'.'.'.'.'.'.'.",
"'.'.'.'.'.'.'.'.'.'.'.'.2.2.%.:.$.:.$.%.%.+.%.%.%.:.-.:.:.:.:.#.#.:.:.#.:.#.:.:.:.:.#.=.:.:.-.:.M.'.'.'.'.'.'.'.'.'.'.'.'.'.'.'.",
"'.'.'.'.'.'.'.'.'.'.'.'.#.#.#.;.:.;.:.$.%.%.%.-.%.:.%.%.:.#.:.#.:.:.:.:.=.:.:.:.:.:.:.#.-.:.#.@.z.'.'.'.'.'.'.'.'.'.'.'.'.'.'.'.",
"'.'.'.'.'.'.'.'.'.'.'.'.2.#.:.:.$.:.;.%.+.#.%.#.:.%.:.%.:.#.:.:.:.#.#.#.:.#.-.:.#.:.=.:.:.:.=.#.n.'.'.'.'.'.'.'.'.'.'.'.'.'.'.'.",
"'.'.'.'.'.'.'.'.'.'.'.'.2.#.:.:.;.:.%.%.%.%.%.%.%.%.%.%.:.#.%.%.#.#.:.:.#.:.#.#.:.#.:.#.%.:.#.#.z.'.'.'.'.'.'.'.'.'.'.'.'.'.'.'.",
"'.'.'.'.'.'.'.'.'.'.'.'.o.#.:.%.@.=.$.$.%.%.%.%.%.-.:.#.:.:.:.%.:.:.#.:.%.:.t.%.:.t.:.#.t.:.#.#.n.'.'.'.'.'.'.'.'.'.'.'.'.'.'.'.",
"'.'.'.'.'.'.'.'.'.'.'.'.2.o.#.:.>.:.;.:.,.+.:.%.:.:.:.%.:.:.#.#.:.#.#.:.#.%.t.%.%.%.#.#.#.:.#.o.M.'.'.'.'.'.'.'.'.'.'.'.'.'.'.'.",
"'.'.'.'.'.'.'.'.'.'.'.'.4.#.@.>.:.:.:.:.%.%.%.%.%.%.#.%.#.#.@.>.t.:.:.#.#.t.V.C.G.Z.i.#.t.4.2.#.z.'.'.'.'.'.'.'.'.'.'.'.'.'.'.'.",
"'.'.'.'.'.'.'.'.'.'.'.'.2.#.%.>.;.@.@.$.%.+.%.:.:.:.t.-.:.#.$.%.#.@.%.#.#.i.P.P.P.P.d.#.4.4.#.#.z.'.'.'.'.'.'.'.'.'.'.'.'.'.'.'.",
"'.'.'.'.'.'.'.'.'.'.'.'.'.V.:.@.$.;.:.O.5 1 1 2 2 2 2 2 2 '.'.f.#.#.:.%.%.f.'.'.'.'.d.#.e.%.#.#.g.'.'.'.'.'.'.'.'.'.'.'.'.'.'.'.",
"'.'.'.'.'.'.'.'.'.'.'.'.'.^.t.;.@.>.s.%.4 * $ & & & & & & '.'.M.@.#.t.#.X.d.'.'.'.'.d.#.4.2.#.+.z.'.'.'.'.'.'.'.'.'.'.'.'.'.'.'.",
"'.'.'.'.'.'.'.'.'.'.'.'.'.'.t.@.%.%.%.s.g.z.8 * * * * * * '.'.'.@.:.:.#.o.d.'.'.'.'.t.#.4.%.2.o.z.'.'.'.'.'.'.'.'.'.'.'.'.'.'.'.",
"'.'.'.'.'.'.'.'.'.'.'.'.'.'.4.o.6.3.#.3.'.'.= $ $ * * % % '.'.'.@.O.2.#.#.'.'.'.'.'.o.2.6.o.2.o.N.'.'.'.'.'.'.'.'.'.'.'.'.'.'.'.",
"'.'.'.'.'.'.'.'.'.'.'.'.'.'.'.k.4.2.o.6.'.'.'.'.8 $ $ $ * '.'.'.'.d.6.#.<.'.'.'.'.'.'.'.N.2.2.#.z.'.'.'.'.'.'.'.'.'.'.'.'.'.'.'.",
"'.'.'.'.'.'.'.'.'.'.'.'.'.'.'.'.9.o.<.o.'.'.'.'.'.% % % $ '.'.'.'.C.#.o.o.'.'.'.'.'.'.'.I.4.2.3.N.'.'.'.'.'.'.'.'.'.'.'.'.'.'.'.",
"'.'.'.'.'.'.'.'.'.'.'.'.'.'.'.'.x.d.k.l.'.'.'.'.'.6 7 7 7 '.'.'.'.I.l.l.z.'.'.'.'.'.'.'.~.z.l.y.l.'.'.'.'.'.'.'.'.'.'.'.'.'.'.'.",
"'.'.'.'.'.'.'.'.'.'.'.'.'.'.'.'.'.'.'.'.'.'.'.'.'.'.'.'.'.'.'.'.'.'.'.'.'.'.'.'.'.'.'.'.'.'.'.'.'.'.'.'.'.'.'.'.'.'.'.'.'.'.'.'.",
"'.'.'.'.'.'.'.'.'.'.'.'.'.'.'.'.'.'.'.'.'.'.'.'.'.'.'.'.'.'.'.'.'.'.'.'.'.'.'.'.'.'.'.'.'.'.'.'.'.'.'.'.'.'.'.'.'.'.'.'.'.'.'.'.",
"'.'.'.'.'.'.'.'.'.'.'.'.'.'.'.'.'.'.'.'.'.'.'.'.'.'.'.'.'.'.'.'.'.'.'.'.'.'.'.'.'.'.'.'.'.'.'.'.'.'.'.'.'.'.'.'.'.'.'.'.'.'.'.'.",
"'.'.'.'.'.'.'.'.'.'.'.'.'.'.'.'.'.'.'.'.'.'.'.'.'.'.'.'.'.'.'.'.'.'.'.'.'.'.'.'.'.'.'.'.'.'.'.'.'.'.'.'.'.'.'.'.'.'.'.'.'.'.'.'.",
"'.'.'.'.'.'.'.'.'.'.'.'.'.'.'.'.'.'.'.'.'.'.'.'.'.'.'.'.'.'.'.'.'.'.'.'.'.'.'.'.'.'.'.'.'.'.'.'.'.'.'.'.'.'.'.'.'.'.'.'.'.'.'.'.",
"'.'.'.'.'.'.'.'.'.'.'.'.'.'.'.'.'.'.'.'.'.'.'.'.'.'.'.'.'.'.'.'.'.'.'.'.'.'.'.'.'.'.'.'.'.'.'.'.'.'.'.'.'.'.'.'.'.'.'.'.'.'.'.'.",
"'.'.'.'.'.'.'.'.'.'.'.'.'.'.'.'.'.'.'.'.'.'.'.'.'.'.'.'.'.'.'.'.'.'.'.'.'.'.'.'.'.'.'.'.'.'.'.'.'.'.'.'.'.'.'.'.'.'.'.'.'.'.'.'.",
"'.'.'.'.'.'.'.'.'.'.'.'.'.'.'.'.'.'.'.'.'.'.'.'.'.'.'.'.'.'.'.'.'.'.'.'.'.'.'.'.'.'.'.'.'.'.'.'.'.'.'.'.'.'.'.'.'.'.'.'.'.'.'.'.",
"'.'.'.'.'.'.'.'.'.'.'.'.'.'.'.'.'.'.'.'.'.'.'.'.'.'.'.'.'.'.'.'.'.'.'.'.'.'.'.'.'.'.'.'.'.'.'.'.'.'.'.'.'.'.'.'.'.'.'.'.'.'.'.'.",
"'.'.'.'.'.'.'.'.'.'.'.'.'.'.'.'.'.'.'.'.'.'.'.'.'.'.'.'.'.'.'.'.'.'.'.'.'.'.'.'.'.'.'.'.'.'.'.'.'.'.'.'.'.'.'.'.'.'.'.'.'.'.'.'.",
"'.'.'.'.'.'.'.'.'.'.'.'.'.'.'.'.'.'.'.'.'.'.'.'.'.'.'.'.'.'.'.'.'.'.'.'.'.'.'.'.'.'.'.'.'.'.'.'.'.'.'.'.'.'.'.'.'.'.'.'.'.'.'.'.",
"'.'.'.'.'.'.'.'.'.'.'.'.'.'.'.'.'.'.'.'.'.'.'.'.'.'.'.'.'.'.'.'.'.'.'.'.'.'.'.'.'.'.'.'.'.'.'.'.'.'.'.'.'.'.'.'.'.'.'.'.'.'.'.'."
};
