/* XPM */
static char *result[] = {
/* columns rows colors chars-per-pixel */
"64 64 98 2 ",
"   c black",
".  c #010101",
"X  c #020202",
"o  c #040404",
"O  c gray2",
"+  c #060606",
"@  c #070707",
"#  c gray3",
"$  c #090909",
"%  c gray4",
"&  c #0B0B0B",
"*  c #0C0C0C",
"=  c gray5",
"-  c #0E0E0E",
";  c gray6",
":  c #101010",
">  c #111111",
",  c gray7",
"<  c #131313",
"1  c gray8",
"2  c #151515",
"3  c #161616",
"4  c gray9",
"5  c #181818",
"6  c #191919",
"7  c gray10",
"8  c #1D1D1D",
"9  c #1E1E1E",
"0  c gray12",
"q  c #202020",
"w  c gray13",
"e  c #222222",
"r  c #232323",
"t  c gray14",
"y  c #252525",
"u  c gray15",
"i  c #272727",
"p  c #282828",
"a  c gray16",
"s  c #2A2A2A",
"d  c gray17",
"f  c #2C2C2C",
"g  c #2D2D2D",
"h  c gray18",
"j  c #2F2F2F",
"k  c gray19",
"l  c #313131",
"z  c #323232",
"x  c gray20",
"c  c #343434",
"v  c #353535",
"b  c gray21",
"n  c #373737",
"m  c gray22",
"M  c #393939",
"N  c #3A3A3A",
"B  c gray23",
"V  c #3C3C3C",
"C  c gray24",
"Z  c #3E3E3E",
"A  c #3F3F3F",
"S  c gray25",
"D  c #414141",
"F  c gray26",
"G  c #434343",
"H  c #444444",
"J  c gray27",
"K  c #464646",
"L  c gray28",
"P  c #484848",
"I  c #494949",
"U  c gray29",
"Y  c #4B4B4B",
"T  c #4C4C4C",
"R  c gray30",
"E  c #4E4E4E",
"W  c gray31",
"Q  c #505050",
"!  c #515151",
"~  c gray32",
"^  c #535353",
"/  c gray33",
"(  c #555555",
")  c #585858",
"_  c #5A5A5A",
"`  c #5B5B5B",
"'  c #5D5D5D",
"]  c #606060",
"[  c #626262",
"{  c gray39",
"}  c gray40",
"|  c #686868",
" . c DimGray",
".. c #6C6C6C",
"X. c #6D6D6D",
"o. c gray43",
"O. c #717171",
"+. c #767676",
/* pixels */
"5 3 3 3 3 3 3 3 3 8 8 8 8 8 a p p p j j m m d y y t y y y y M M M M M M M H L L L ( ( U ( U x x ( c c c c c c c c c S ' ' I I o.",
"3 3 3 3 3 3 3 3 3 8 8 8 & & 7 7 q q 9 9 d d d d d y d d d d S f f f i z z D V V V P P V F F z z z V V V V V V f f f c R R C C C ",
", , , , , , , , , , * * * * 4 4 4 4 9 9 d d d d d y d d d d S f f f i z z D V V V P P V F F F F z V V V V F F F m m m W W V V V ",
", , , , , , , , , , * * * * 4 4 4 4 9 9 I I j d d d d d d d W m m m B C C E P P V P P V F F F F F z V V V F F F m m m W W V V V ",
", , = $ % % % % % & o o o o > > > > - - d d d d d d d d d d W m m m B C C E P P V P P V F F F F F z z V V F F F F F m W W V V V ",
", , = $ % % & & & & o o o o < < < < % % d d d d d d d d d d W m m m B C C E P T V P P V F F F F F z z V V F F F F F m W W V V V ",
", , 7 , & & & & & & @ @ @ @ < < 1 1 > > j j d d d d d d d d ( V V V m C C E P T T P P V F F F F F z z S F F F F F F m W W V V V ",
"= = - % & & & & & & o o o o 1 1 1 1 ; > j j d d d d d d d d ( V V V m C C E T T T P P V F F F F F z z S S F F F F F m W W V V V ",
"= = - % & & & & & & o o o o 1 1 1 1 ; ; j j d d d d d d d d ( V V V m C C E T T T P P V F F F F F z z S S S F F F F m W W V V V ",
"= = - % & & & & & & o o o o 1 1 1 1 ; ; j j d d d d d d d d ( V V V m C C E T T T P P V F F F F F z z S S S S F F F m W W V V V ",
"= = - % & & & & & & o o o o 1 1 1 1 ; ; j j d d d d d d d d I z z z B C C E T T T P P V F F F F F z z S S S S F F F m W W V V V ",
"$ $ % & = = = = = = o o o o # 1 1 1 > > c c j x x d d d d d I z z z B m B E T T T P P V F F F F F z z S S S S S F F m W W V V V ",
"* * = O o o o o o o         O 1 1 1 > > c c j x x d d d d d I z z z B V V C V V V S S F F F 2 2 2 2 2 7 7 7 7 S F F m W W V V V ",
"* * = O o o o o o o         O 1 1 1 ; ; c c j x x d d d d d ( V z V z V V C V V V x x z F F > > > > > 2 2 2 2 S S x f ( W V V V ",
"& & ; ; > > @ < < 1 + + + + + 1 1 1 * * f f f x x d d d d d ( V V V V V V I P P x m m F F F , , , > > 2 2 2 2 S S S f ( W V V V ",
"& & ; ; > > @ < < 1 + + + + + 1 1 1 * * f f d d x d d d d d ( V V k V L L V P P x x m F F F , > , > > 2 2 2 2 S S S x ( W V V V ",
"5 5 < : ; ; : : : > # # # # # 1 1 1 * * d f d d d d x d d d } P P P V P P P V T V V P z F F > > > > > 2 2 2 2 x x x d d V V V B ",
"5 5 < : ; ; : : : > # # # # # > > > # # 7 7 s d d x x S S F ( F V V P _ _ P P P V V V z F F > > > > > 2 > > > x x x d d f M M k ",
"5 5 < : ; ; : : : > # # # # # > > > ; ; j j s d d d d S S F ( F V V P _ _ _ P P P P V z F F > > > > > 2 > > > x x x d d f f k k ",
"5 5 < : ; ; : : : > # # # # # > > > ; ; j j s d d z z z x y ( F F z x n n n x s c c c z - - - - - - - > - - - S x x d d M M 3 e ",
"2 2 , = ; ; ; : : : : : > > > 8 9 9 b b z z z ( ( [ [ [ [ S ( F F F x P P S P x P P P z z V V V V V V y 0 0 0 x x d d d M 3 3 3 ",
"2 2 , = ; ; ; : : : : > > > > 9 1 1 b b C C n ( ( ` ` [ [ ( ( ( R R I I ( ( } L } } } H x x S S S S S S S S S d d d y q 3       ",
"2 2 , = ; ; ; : : : > > > > > 9 9 v b b C C n ( ( ` ` { { R ( ( R R ( G ( ( ( S L } } H H V V x x x x x x x x z z z 5 3 . . . . ",
"> > 8 # : : y u y y y y 3 3 e u p p a a x x K Q Q ] X.X.X.( ( D U U U ( ( ( ( S S L L S S S H H S S S S S S S ( ( ( z M d d d . ",
"> > 5 8 q q d d d d d d d d u U g g g g T T U U U ( ( ( ( ) D U U U U U U U ( S S S L ( ( ( S H H S S S S S S ( ( ( z d d d d . ",
"> > 5 8 d d ; d d d d d d d u U g g g g U T U U U ( ( ( _ D D D U U U U U U U A A A L U U U U S S } S S S S S ( ( ( V M d d d . ",
"$ $ d , , , d x d d d d 8 8 5 m 0 0 j j U U Q ( ( ( _ _ _ D D D U U U U U U U U A A L U U U U S S S S ( ( ( ( } } } f f x p p   ",
"  $ $ * * * * , , , , , x x g g m m m m g p U _ _ _ _ _ _ D D D D W U U U U U U A A L U U U U S S S S ( ( ( ( } } ( f f x x p   ",
"      @ @ @ % < < < < d x x g g m m m 2 m U m ) ) ) ) ) ) N N N N S W U U U U U A A L U U U U S S S S S ( ( ( } } ( f f x x x   ",
"X X X   3 3 & y y y y < d d u g m m m m m U m m m Z Z Z Z m m m m C U U U U U U U m m U U U U S S S S S ( ( ( } } ( f f x x x 1 ",
"X X X       & y y y y d x x g g m m m m U H m m m m c c c m m m m x U U U U U H H m m U U U U S S S S S ( ( ( } } f f f x x x 1 ",
"X X             d d d d x x g g g m m U H H m m m m m c c m m m m A | U U U U H H m m U U U U S S S S S S ( ( } } f f f x x x 1 ",
". . . .         j j S d x x g g g m U H H H m m m m m m c m m m m A | U U U U H H m m U U U U S S S S S S E ..` ` d d d l l l 3 ",
"d d d d p p p p p E E M ( P C C x N U U U H m m m m m m m m m m m A | U U U U H H U m U U U U S S S S S } ../ K K i i i r r r 2 ",
"d d d d d p p p p p E M ( ( U U x U U H H V b b b b b b b N b b b m I H U U m H H U m U U U U S S S S } } / K K V i i i r d d 2 ",
"d d d d d d d p p p p M ( P C x x U U H H V b b b b b b b N N b b m I H U U U H , 3 P U U U U ( ( ( S S x c c c V i i i d d r 2 ",
"d d d d d d d d p p p d P D N m m U U A A - B B B B B B B - - - 2 m I H U U U H H 3 P U U U U ( ( ( S S S A A A d y y d y d d 6 ",
"d d d d d d d d H H x d D D N m m U U A A - B B B B B B B B B B B ( ' T | U m m m A m U U U U ( S S S S S v v v V s s f i i i 3 ",
"d d d d d d B B B B B d B D N m m U U H A - B B B B B B B B B B B P W W | | ) m m m m U U U U S S S S S S c c c d d y f i i i 3 ",
"d d p B B B B B B B B d Z J N m m U U H A - B B B B A A A A A A A T T ' | U U U U U U U U U U x x x x x x d d c y y y f i i i 3 ",
"p T T T T T T T T T T J L L A m U U U H H - B B B B A A A A A S A T { H U U U U U U m C C U U x x x x x x d d c e e e i i i i 3 ",
"B T T T T T T T ) ) ) J L L A m m U U H H - B B B B A A S S A A A P H H U U P m m m m C C C C v v v v v v d k d i i i c c c c 1 ",
"d ( ( ( { { { { { { { S S S m m m U U H H % v v b b C C B B B B - H H H U U P P P m m C C C C v v v v v v d d e i i i c c c c 1 ",
"d { { { { { { { { { { S S S S S m U U H H % v v b b C B B B - - - H H H U U P P P U U x C C C v v v v S S d d e i i i c c c c c ",
"( { { { { { { { { { { S ( ( ( ( ( ( ( H H % v v v g b - - - - - B H H H U U P P P U U U U U U b b v v b b g g y i i i c c c c c ",
"( { { { { { { S S S S ( ( ( ( ( ( ( ( Q Q - D A A * > > > > , , I Q Q Q ( ( ( ( ( ( ( ( ( ( ( M M M M S S c c d d d d z C C C C ",
"( { { S S S S S S S S ( ( ( ( ( ( ( ( Q Q @ * * * * > > > > & & > U Q K Q Q 6 6 6 9 ( ( ( ( ( x x x V B B l l u f f f C K K K K ",
"{ { { { { { { { { { { S S S S S S ( ( S Q * * * * # & & & & & & > U Q K Q Q 6 6 6 w ( ( ( ( ( x x x V B B l l u f f f C K K K K ",
"( ( ( ( ( ( ( ( ( ( ( ( ( ( ( ( ( } } ( ( A A A A & > > > > > > > Q Q Q ( ( ( ( ( D ( ( ( ( ~ } } } _ } } P V 0 i i i d b b b b ",
"( ( ( ( ( ( ( ( ( ( ( ( ( ( ( ( ( } } ( ( A A A A & > > > > > > 2 Q ^ Q ( ( ( ( S D ( ( ( ( ( D D D } Y Y V x r 0 0 0 r y y b b ",
"( ( ( ( ( ( ( ( ( ( ( ( ( ( ( ( ( } } ( ( Z Z Z Z & 2 2 2 2 J J J Q ^ Q ( ( ( ( ( ( ( ( ( ( ( ( ( ( R ( ( V V a p p p d d d b b ",
"( ( ( ( ( ( ( ( { { F F F W W F F ( ( _ _ S S S Z & 2 2 2 2 2 J J S S Q ( ( x D D D ( ( J J J D D D } Y Y V V a p p p d d d b b ",
"( ( ( ( ( ( ( ( ( { F F F W W F F Y Y } } S W S S - 6 6 6 6 6 6 6 ( ( ( ( ( N D C C ( ( J J J D D D } Y Y S V a p p p d d d b b ",
"( ( ( ( ( ( ( ( ( ( F F F } } } } Y Y } } S W W W 2 6 6 6 6 6 6 6 ( ( ( ( ( x b b b K K K K K b b b Z K K V V y 9 9 g x j j m m ",
"( ( ( ( ( ( ( ( ( ( ( { { } } } } S S } } S ( ( ( 6 ( ( 9 9 9 9 9 ( ( ( ( S x b b b K K K K K b b b x K K K K v g g c C m m K K ",
"( ( ( ( ( ( ( ( ( ( ( ( { } v v v v v ( ( x S S S 7 ( ( q q q q S x } S S n x b b b K K K K K b b b x C K K K v g g c C m m K K ",
"( ( ( ( ( ( ( ( ( ( ( ( ( v v v v v v ( ( x S S S 7 ( ( q q S S x x } S S n x b b Z K K K K K b b b x C C K K v g g c C m m K K ",
"K ( ( ( ( ( ( ( ( V ( ( ( ( v v v v v ( ( x S S S 7 ( ( S x x x x x } S n n x b b Z K K K K K b b b x C C C C v g g c C m m K K ",
"K ( ( ( ( ( ( V V V ( ( ( ( ( v v v v ( ( x x S S x S S v v v v v v ( F F F n Z Z Z K K K K K b b b x C C C C s i g C C m J W W ",
"m V V V V V V V V V ( ( ( ( ( ( v v v ( ( ( I ( ( x v v d d d d * * l h h h d x x x K K b b b b b b x C C C C s j j n b J J W W ",
"m V V V V V V V V V ( ( ( ( ( ( ( ( v O. .I I ( ( x v v d d * * * * l h h h d x x x K K b b b b b b x P P P I i j j M m J J W W ",
"m V V V V V V V V V ( ( ( ( ( ( ( W W +. .I I ( ( x v d * * * * * * l h h h d x x x K K b b b x x x V P P I I j j j M m c c S S ",
"m V V V V V V V V V ( ( ( ( ( W W R +.+.+.R I c c d d d * * * * * * l h h h d x x x K b x x x x x x V I I I I j j j M m c c S S ",
"D G G G G G G G G G ! ! ! W W W R +.+.+._ B B x c d d d * * * * * * l l l l M z z z x x V V V V V C Y ( ( ( ( j j j M E S S E E "
};
