/* XPM */
static char *result[] = {
/* columns rows colors chars-per-pixel */
"64 64 210 2 ",
"   c #347B32",
".  c #327F3A",
"X  c #377D2E",
"o  c #427D3A",
"O  c #437854",
"+  c #5B697C",
"@  c #5E7B7B",
"#  c #6C6F77",
"$  c #478A36",
"%  c #4B993B",
"&  c #50933A",
"*  c #5DAB3D",
"=  c #5FB13F",
"-  c #64B43C",
";  c #67B83C",
":  c #6EC33F",
">  c #73C13F",
",  c #368945",
"<  c #388D50",
"1  c #3C914A",
"2  c #508341",
"3  c #459746",
"4  c #569A44",
"5  c #468859",
"6  c #4A9D5C",
"7  c #489B57",
"8  c #598E53",
"9  c #738C57",
"0  c #56AC43",
"q  c #5AAD42",
"w  c #5FA04B",
"e  c #55AB4A",
"r  c #58A849",
"t  c #5DB243",
"y  c #59B14B",
"u  c #56AB52",
"i  c #55A85A",
"p  c #5BB254",
"a  c #5BB45B",
"s  c #57B155",
"d  c #4FA653",
"f  c #65AB48",
"g  c #65B441",
"h  c #6AB544",
"j  c #6DBB43",
"k  c #6AB34C",
"l  c #6CBA4C",
"z  c #65B24F",
"x  c #72BC46",
"c  c #73BC4B",
"v  c #79BF4C",
"b  c #65B251",
"n  c #7ABC54",
"m  c #71B551",
"M  c #71A657",
"N  c #47866A",
"B  c #499D66",
"V  c #589869",
"C  c #528B7A",
"Z  c #7C956C",
"A  c #609178",
"S  c #768675",
"D  c #52A563",
"F  c #57AB63",
"G  c #59AA6A",
"H  c #5CB362",
"J  c #58B26E",
"K  c #5CAB7A",
"L  c #5EBA7C",
"P  c #57B574",
"I  c #4CA86A",
"U  c #67A561",
"Y  c #62B86A",
"T  c #64BB7A",
"R  c #74C444",
"E  c #79CA45",
"W  c #76C34B",
"Q  c #7AC24C",
"!  c #7ECC49",
"~  c #7CC352",
"^  c #899657",
"/  c #87BB5B",
"(  c #879578",
")  c #89B469",
"_  c #88AB73",
"`  c #94BB75",
"'  c #8AA872",
"]  c #C8AC7A",
"[  c #83CD4D",
"{  c #80C44F",
"}  c #82C652",
"|  c #84C953",
" . c #89CC56",
".. c #8AC65B",
"X. c #8DCB5B",
"o. c #86C758",
"O. c #92CE5E",
"+. c #8CD353",
"@. c #8BD255",
"#. c #94D25D",
"$. c #99D65E",
"%. c #9BD95F",
"&. c #86D24F",
"*. c #8EC562",
"=. c #93CC62",
"-. c #91C069",
";. c #99D462",
":. c #98D363",
">. c #6D5E8E",
",. c #6A4797",
"<. c #755494",
"1. c #557A8C",
"2. c #5F7B93",
"3. c #756698",
"4. c #69799B",
"5. c #6C718E",
"6. c #5A52AD",
"7. c #7543A9",
"8. c #7654A8",
"9. c #6A4AB9",
"0. c #7949B8",
"q. c #7152AE",
"w. c #5F78A5",
"e. c #7775A7",
"r. c #7D5ACC",
"t. c #7353CF",
"y. c #6B51C8",
"u. c #7E6AC1",
"i. c #847E8D",
"p. c #8D7298",
"a. c #8E54B9",
"s. c #834FB2",
"d. c #8C65AC",
"f. c #967AA7",
"g. c #9569B8",
"h. c #9C7BB1",
"j. c #A277B6",
"k. c #8A4EC0",
"l. c #965CC2",
"z. c #9B5DC1",
"x. c #8D5BCC",
"c. c #A35ED8",
"v. c #866BC7",
"b. c #8E70DA",
"n. c #9175D5",
"m. c #A875C6",
"M. c #A767D6",
"N. c #B47BD5",
"B. c #B67DD9",
"V. c #A66DCA",
"C. c #5A9688",
"Z. c #649A89",
"A. c #699595",
"S. c #6F8A87",
"D. c #64BC82",
"F. c #67B885",
"G. c #67A581",
"H. c #6DC384",
"J. c #878B88",
"K. c #8B8C8B",
"L. c #9EBB9C",
"P. c #9AA48D",
"I. c #A4BD86",
"U. c #8184AF",
"Y. c #9789A2",
"T. c #AE95AF",
"R. c #AF92BA",
"E. c #A3BDA4",
"W. c #B0A2B0",
"Q. c #D7BB8B",
"!. c #D7BD98",
"~. c #A5C187",
"^. c #DDC08C",
"/. c #DFC291",
"(. c #E6C898",
"). c #DECEBA",
"_. c #DAC6A5",
"`. c #EDD0A3",
"'. c #F4D8A8",
"]. c #F1D8B1",
"[. c #FBE4BB",
"{. c #9D8BDB",
"}. c #B986D6",
"|. c #AC80C5",
" X c #C18DDB",
".X c #C491DD",
"XX c #E2DBDB",
"oX c #E8DCD2",
"OX c #E9D6C1",
"+X c #FEEAC3",
"@X c #FEEDCD",
"#X c #F7E2C3",
"$X c #FFF0CF",
"%X c #E8E3DE",
"&X c #FDECD3",
"*X c #FDEEDC",
"=X c #F2E5D7",
"-X c #FFF2D4",
";X c #FFF5DB",
":X c #E5DEE1",
">X c #EBE5E3",
",X c #EFEAE8",
"<X c #F4EBE3",
"1X c #FAEFE3",
"2X c #F4EDEA",
"3X c #F4EBE8",
"4X c #FEF4E2",
"5X c #F9F2EC",
"6X c #F6F0ED",
"7X c None",
/* pixels */
"7X7X7X7X7X7X7X7X7X7X7X7X7X7X7X7X7X7X7X7X7X7X7X7X7X7X7X7X7X7X7X7X7X7X7X7X7X7X7X7X7X7X7X7X7X7X7X7X7X7X7X7X7X7X7X7X7X7X7X7X7X7X7X7X",
"7X7X7X7X7X7X7X7X7X7X7X7X7X7X7X7X7X7X7X7X7X7X7X7X7X7X7X7X7X7X7X7X7X7X7X7X7X7X7X7X7X7X7X7X7X7X7X7X7X7X7X7X7X7X7X7X7X7X7X7X7X7X7X7X",
"7X7X7X7X7X7X7X7X7X7X7X7X7X7X7X7X7X7X7X7X7X7X7X7X7X7X7X7X7X7X7X7X7X7X7X7X7X7X7X7X7X7X7X7X7X7X7X7X7X7X7X7X7X7X7X7X7X7X7X7X7X7X7X7X",
"7X7X7X7X7X7X7X7X7X7X7X7X7X7X7X7X7X7X7X7X7X7X7X7X7X7X7X7X7X7X7X7X7X7X7X7X7X7X7X7X7X7X7X7X7X7X7X7X7X7X7X7X7X7X7X7X7X7X7X7X7X7X7X7X",
"7X7X7X7X7X7X7X7X7X7X7X7X7X7X7X7X7X7X7X7X7X7X7X7X7X7X7X7X7X7X7X7X7X7X7X7X7X7X7X7X7X7X7X7X7X7X7X7X7X7X7X7X7X7X7X7X7X7X7X7X7X7X7X7X",
"7X7X7X7X7X7X7X7X7X7X7X7X7X7X7X7X7X7X7X7X7X7X7X7X7X7X7X7X7X7X7X7X7X7X7X7X7X7X7X7X7X7X7X7X7X7X7X7X7X7X7X7X7X7X7X7X7X7X7X7X7X7X7X7X",
"7X7X7X7X7X7X7X7X7X7X7X7X7X7X7X7X7X7X7X7X7X7X7X7X7X7X7X7X7X7X7X7X7X7X7X7X7X7X7X7X7X7X7X7X7X7X7X7X7X7X7X7X7X7X7X7X7X7X7X7X7X7X7X7X",
"7X7X7X7X7X7X7X7X7X7X7X7X7X7X7X7X7X7X7X7X7X7X7X7X7X7X7X7X7X7X7X7X7X7X7X7X7X7X7X7X7X7X7X7X7X7X7X7X7X7X7X7X7X7X7X7X7X7X7X7X7X7X7X7X",
"7X7X7X7X7X7X7X7X7X7X7X7X7X7X7X7X7X7X7X7X7X7X7X7X7X7X7X7X7X7X7X7X7X7X7X7X7X7X7X7X7X7X7X7X7X7X7X7X7X7X7X7X7X7X7X7X7X7X7X7X7X7X7X7X",
"7X7X7X7X7X7X7X7X7X7X7X7X7X7X7X7X7X7X7X7X7X7X7X7X7X7X7X7X7X7X7X7X7X7X7X7X7X7X7X7X7X7X7X7X7X7X7X7X7X7X7X7X7X7X7X7X7X7X7X7X7X7X7X7X",
"7X7X7X7X7X7X7X7X7X7X7X7X7X7X7X7X7X7X7X7X7X7X7X7X7X7X7X7X7X7X7X7X7X7X7X7X7X7X7X7X7X7X7X7X7X7X7X7X7X7X7X7X7X7X7X7X7X7X7X7X7X7X7X7X",
"7X7X7X7X7X7X7X7X7X7X7X7X7X7X7X7X7X7X7X7X7X7X7X7X7X7X7X7X7X7X7X7X7X7X7X7X7X7X7X7X7X7X7X7X7X7X7X7X7X7X7X7X7X7X7X7X7X7X7X7X7X7X7X7X",
"7X7X7X7X7X7X7X7X7X7X7X7X7X7X7X7X7X7X7X7X7X7X7X7X7X7X7X7X7X7X7X7X7X7X7X7X7X7X7X7X7X7X7X7X7X7X7X7X7X7X7X7X7X7X7X7X7X7X7X7X7X7X7X7X",
"7X7X7X7X7X7X7X7X7X7X7X7X7X7X7X7X7X7X7X7X7X7X7X7X7X7X7X7X7X7X7X7X7X7X7X7X7X7X7X7X7X7X7X7X7X7X7X7X7X7X7X7X7X7X7X7X7X7X7X7X7X7X7X7X",
"7X7X7X7X7X7X7X7X7X7X7X7X7X7X7X7X7X7X7X7X7X7X7X7X7X7Xp.7X7X7X) ( f.<.7X7X7X7X7X7X7X7X7X7X7X7X7X7X7X7X7X7X7X7X7X7X7X7X7X7X7X7X7X7X",
"7X7X7X7X7X7X7X7X7X7X7X7X7X7X7X7X7X7X7X7X7X7X7X7Xz.N.( ) ..M S T.j.s.,.,.7.7X7X7X7X7X7X7X7X7X7X7X7X7X7X7X7X7X7X7X7X7X7X7X7X7X7X7X",
"7X7X7X7X7X7X7X7X7X7X7X7X7X7X7X7X7X7X7X7X7X7X7Xd.K.P.) ..=./ ( W.m.a.7.7.0.r.7X7X7X7X7X7X7X7X7X7X7X7X7X7X7X7X7X7X7X7X7X7X7X7X7X7X",
"7X7X7X7X7X7X7X7X7X7X7X7X7X7X7X7X7X7X7X7X7X7Xi.K.n } =.=.=.*.X.` Y.p.<.>.3.A.>.5 7X7X7X7X7X7X7X7X7X7X7X7X7X7X7X7X7X7X7X7X7X7X7X7X",
"7X7X7X7X7X7X7X7X7X7X7X7X7X7X7X7X7X7X7X7X7X= j Q  .O.O.=.O.X...} Q c g * r d i i 6 5 O 7X7X7X7X7X7X7X7X7X7X7X7X7X7X7X7X7X7X7X7X7X",
"7X7X7X7X7X7X7X7X7X7X7X7X7X7X7X7X7X7X7X7X; R Q  .=.=.=.*.*.O. .{ Q x - * 0 e i i D i B N ,.7X7X7X7X7X7X7X7X7X7X7X7X7X7X7X7X7X7X7X",
"7X7X7X7X7X7X7X7X7X7X7X7X7X7X7X7X7X7X7X- j E [ ) j.R.R.h.# 9  .Q W j h g q e s F H G D B C {.7X7X7X7X7X7X7X7X7X7X7X7X7X7X7X7X7X7X",
"7X7X7X7X7X7X7X7X7X7X7X7X7X7X7X7X7X7Xd.h R E _ h.N. XN.l.7.# { Q v j h t 0 0 u s G V + 2.B 2.6.7X7X7X7X7X7X7X7X7X7X7X7X7X7X7X7X7X",
"7X7X7X7X7X7X7X7X7X7X7X7X7X7X7X7X7Xg.h.c E _ h.M. X.XN.z.0.3.} Q v j - g q 0 e u Y @ 8.e.1.@ 6.7X7X7X7X7X7X7X7X7X7X7X7X7X7X7X7X7X",
"7X7X7X7X7X7X7X7X7X7X7X7X7X7X7X7X7Xg.' W ! f.c.}..X Xm.g.s.( } Q x j g = * 0 e u a 4.x.b.y.1.A.7X7X7X7X7X7X7X7X7X7X7X7X7X7X7X7X7X",
"7X7X7X7X7X7X7X7X7X7X7X7X7X7X7X7X7Xi.> E +.Y.M.}. X}.V.a.K./ | v x j - g t y y p a S.v.b.r.9.C 7X7X7X7X7X7X7X7X7X7X7X7X7X7X7X7X7X",
"7X7X7X7X7X7X7X7X7X7X7X7X7X7X7X7X7Xx > [ +.Y.M.N. X}.j.<.Z  .[ Q x j ; - z b p p b Y A.x.v.y.C.6 7X7X7X7X7X7X7X7X7X7X7X7X7X7X7X7X",
"7X7X7X7X7X7X7X7X7X7X7X7X7X7X7X7Xf : E ! [ S.g.}..X}.I.` / [ Q v j - & # d.3.U y s a A 8.r.t.Z.P I 7X7X7X7X7X7X7X7X7X7X7X7X7X7X7X",
"7X7X7X7X7X7X7X7X7X7X7X7X7X7X7Xf h : ! &.@.-.` ~.~.~.:.#. .o.} Q j - ( g.k.0.e.i s H H Z.4.y.Z.P P 7X7X7X7X7X7X7X7X7X7X7X7X7X7X7X",
"7X7X7X7X7X7X7X7X7X7X7X7X7X7X7Xh ; R ! @.+.$.;.%.%.%.$.:. . .} v x j # s.s.y.k.V a H Y T G.A.F.L L 7X7X7X7X7X7X7X7X7X7X7X7X7X7X7X",
"7X7X7X7X7X7X7X7X7X7X7X7X7X7X7X* ; R E | @.$.;.:.;.$.:.=. .} ~ W R R 8 + q.9.4.G a Y Y T D.H.D.H.T 7X7X7X7X7X7X7X7X7X7X7X7X7X7X7X",
"7X7X7X7X7X7X7X7X7X7X7X7X7X7X7X7X* ; E !  .#.:.:.#.X.O... .o.~ W l l l U 5.5.i p a H Y T D.H.D.D.H.7X7X7X7X7X7X7X7X7X7X7X7X7X7X7X",
"7X7X7X7X7X7X7X7X7X7X7X7X7X7X7X7X$ * Q Q }  . .X.#.X.X.o.~ ~ c m k z z r r u d d i G J P D.F.D.L L 7X7X7X7X7X7X7X7X7X7X7X7X7X7X7X",
"7X7X7X7X7X7X7X7X7X7X7X7X7X7X7X7X7Xo % f f c ~ n n m n m z f f r 4 % % 3 3 3 7 7 6 D G K F.F.F.L P 7X7X7X7X7X7X7X7X7X7X7X7X7X7X7X",
"7X7X7X7X7X7X7X7X7X7X7X7X7X7X7X7X7X7X7X7X2 8 f 4 & $ M f & $ X   X . . . , , , B < < I G.N 7X7X7X7X7X7X7X7X7X7X7X7X7X7X7X7X7X7X7X",
"7X7X7X7X7X7X7X7X7X7X7X7X7X7X7X7X7X7X7X7X7X7X7X7X7X7X7X^ ^ ^ 9 ^ ( ' L.E.E.L.7X7X7X7X7X7X7X7X7X7X7X7X7X7X7X7X7X7X7X7X7X7X7X7X7X7X",
"7X7X7X7X7X7X7X7X7X7X7X7X7X7X7X7X7X7X7X7X7X7X7X7X7X7X7X] ] ] ] ] !.).oX3X3X>X7X7X7X7X7X7X7X7X7X7X7X7X7X7X7X7X7X7X7X7X7X7X7X7X7X7X",
"7X7X7X7X7X7X7X7X7X7X7X7X7X7X7X7X7X7X7X7X7X7X7X7X7X7X7XQ.^.(.^.^._.).oX%X>X%X7X7X7X7X7X7X7X7X7X7X7X7X7X7X7X7X7X7X7X7X7X7X7X7X7X7X",
"7X7X7X7X7X7X7X7X7X7X7X7X7X7X7X7X7X7X7X7X7X7X7X7X7X7X(.(.'.'.'.`.).].oX%X>X%X7X7X7X7X7X7X7X7X7X7X7X7X7X7X7X7X7X7X7X7X7X7X7X7X7X7X",
"7X7X7X7X7X7X7X7X7X7X7X7X7X7X7X7X7X7X7X7X7X7X7X7X7X7X].[.[.+X[.[.#X#X=X=X3X%X7X7X7X7X7X7X7X7X7X7X7X7X7X7X7X7X7X7X7X7X7X7X7X7X7X7X",
"7X7X7X7X7X7X7X7X7X7X7X7X7X7X7X7X7X7X7X7X7X7X7X7X7X7X[.@X$X$X$X+X@X&X=X<X3X3XXX7X7X7X7X7X7X7X7X7X7X7X7X7X7X7X7X7X7X7X7X7X7X7X7X7X",
"7X7X7X7X7X7X7X7X7X7X7X7X7X7X7X7X7X7X7X7X7X7X7X7X7X[.$X$X-X;X-X$X&X&X=X1X2X2X>X7X7X7X7X7X7X7X7X7X7X7X7X7X7X7X7X7X7X7X7X7X7X7X7X7X",
"7X7X7X7X7X7X7X7X7X7X7X7X7X7X7X7X7X7X7X7X7X7X7X7X7X[.$X-X;X;X-X$X&X*X*X<X5X2X3X7X7X7X7X7X7X7X7X7X7X7X7X7X7X7X7X7X7X7X7X7X7X7X7X7X",
"7X7X7X7X7X7X7X7X7X7X7X7X7X7X7X7X7X7X7X7X7X7X7X7X7X+X-X;X;X;X;X$X*X*X;X<X5X5X2X7X7X7X7X7X7X7X7X7X7X7X7X7X7X7X7X7X7X7X7X7X7X7X7X7X",
"7X7X7X7X7X7X7X7X7X7X7X7X7X7X7X7X7X7X7X7X7X7X7X7X7X$X-X;X;X4X;X-X*X;X*X1X5X6X2XXX7X7X7X7X7X7X7X7X7X7X7X7X7X7X7X7X7X7X7X7X7X7X7X7X",
"7X7X7X7X7X7X7X7X7X7X7X7X7X7X7X7X7X7X7X7X7X7X7X7X7X@X-X;X;X;X;X-X-X*X*X1X5X5X6X,X7X7X7X7X7X7X7X7X7X7X7X7X7X7X7X7X7X7X7X7X7X7X7X7X",
"7X7X7X7X7X7X7X7X7X7X7X7X7X7X7X7X7X7X7X7X7X7X7X7X7X$X-X;X4X;X;X-X-X*X*X1X5X5X6X,X7X7X7X7X7X7X7X7X7X7X7X7X7X7X7X7X7X7X7X7X7X7X7X7X",
"7X7X7X7X7X7X7X7X7X7X7X7X7X7X7X7X7X7X7X7X7X7X7X7X7X$X-X-X;X;X;X&X*X*X*X1X5X5X6X>X7X7X7X7X7X7X7X7X7X7X7X7X7X7X7X7X7X7X7X7X7X7X7X7X",
"7X7X7X7X7X7X7X7X7X7X7X7X7X7X7X7X7X7X7X7X7X7X7X7X7X+X$X-X;X;X-X@X@X*X*X1X5X5X>X:X7X7X7X7X7X7X7X7X7X7X7X7X7X7X7X7X7X7X7X7X7X7X7X7X",
"7X7X7X7X7X7X7X7X7X7X7X7X7X7X7X7X7X7X7X7X7X7X7X7X7X+X+X&X-X-X-X@X@X*X1X1X6X2XXX7X7X7X7X7X7X7X7X7X7X7X7X7X7X7X7X7X7X7X7X7X7X7X7X7X",
"7X7X7X7X7X7X7X7X7X7X7X7X7X7X7X7X7X7X7X7X7X7X7X7X7X7X7X7X7X7X7X7X7X7X7X7X7X7X7X7X7X7X7X7X7X7X7X7X7X7X7X7X7X7X7X7X7X7X7X7X7X7X7X7X",
"7X7X7X7X7X7X7X7X7X7X7X7X7X7X7X7X7X7X7X7X7X7X7X7X7X7X7X7X7X7X7X7X7X7X7X7X7X7X7X7X7X7X7X7X7X7X7X7X7X7X7X7X7X7X7X7X7X7X7X7X7X7X7X7X",
"7X7X7X7X7X7X7X7X7X7X7X7X7X7X7X7X7X7X7X7X7X7X7X7X7X7X7X7X7X7X7X7X7X7X7X7X7X7X7X7X7X7X7X7X7X7X7X7X7X7X7X7X7X7X7X7X7X7X7X7X7X7X7X7X",
"7X7X7X7X7X7X7X7X7X7X7X7X7X7X7X7X7X7X7X7X7X7X7X7X7X7X7X7X7X7X7X7X7X7X7X7X7X7X7X7X7X7X7X7X7X7X7X7X7X7X7X7X7X7X7X7X7X7X7X7X7X7X7X7X",
"7X7X7X7X7X7X7X7X7X7X7X7X7X7X7X7X7X7X7X7X7X7X7X7X7X7X7X7X7X7X7X7X7X7X7X7X7X7X7X7X7X7X7X7X7X7X7X7X7X7X7X7X7X7X7X7X7X7X7X7X7X7X7X7X",
"7X7X7X7X7X7X7X7X7X7X7X7X7X7X7X7X7X7X7X7X7X7X7X7X7X7X7X7X7X7X7X7X7X7X7X7X7X7X7X7X7X7X7X7X7X7X7X7X7X7X7X7X7X7X7X7X7X7X7X7X7X7X7X7X",
"7X7X7X7X7X7X7X7X7X7X7X7X7X7X7X7X7X7X7X7X7X7X7X7X7X7X7X7X7X7X7X7X7X7X7X7X7X7X7X7X7X7X7X7X7X7X7X7X7X7X7X7X7X7X7X7X7X7X7X7X7X7X7X7X",
"7X7X7X7X7X7X7X7X7X7X7X7X7X7X7X7X7X7X7X7X7X7X7X7X7X7X7X7X7X7X7X7X7X7X7X7X7X7X7X7X7X7X7X7X7X7X7X7X7X7X7X7X7X7X7X7X7X7X7X7X7X7X7X7X",
"7X7X7X7X7X7X7X7X7X7X7X7X7X7X7X7X7X7X7X7X7X7X7X7X7X7X7X7X7X7X7X7X7X7X7X7X7X7X7X7X7X7X7X7X7X7X7X7X7X7X7X7X7X7X7X7X7X7X7X7X7X7X7X7X",
"7X7X7X7X7X7X7X7X7X7X7X7X7X7X7X7X7X7X7X7X7X7X7X7X7X7X7X7X7X7X7X7X7X7X7X7X7X7X7X7X7X7X7X7X7X7X7X7X7X7X7X7X7X7X7X7X7X7X7X7X7X7X7X7X",
"7X7X7X7X7X7X7X7X7X7X7X7X7X7X7X7X7X7X7X7X7X7X7X7X7X7X7X7X7X7X7X7X7X7X7X7X7X7X7X7X7X7X7X7X7X7X7X7X7X7X7X7X7X7X7X7X7X7X7X7X7X7X7X7X",
"7X7X7X7X7X7X7X7X7X7X7X7X7X7X7X7X7X7X7X7X7X7X7X7X7X7X7X7X7X7X7X7X7X7X7X7X7X7X7X7X7X7X7X7X7X7X7X7X7X7X7X7X7X7X7X7X7X7X7X7X7X7X7X7X",
"7X7X7X7X7X7X7X7X7X7X7X7X7X7X7X7X7X7X7X7X7X7X7X7X7X7X7X7X7X7X7X7X7X7X7X7X7X7X7X7X7X7X7X7X7X7X7X7X7X7X7X7X7X7X7X7X7X7X7X7X7X7X7X7X",
"7X7X7X7X7X7X7X7X7X7X7X7X7X7X7X7X7X7X7X7X7X7X7X7X7X7X7X7X7X7X7X7X7X7X7X7X7X7X7X7X7X7X7X7X7X7X7X7X7X7X7X7X7X7X7X7X7X7X7X7X7X7X7X7X",
"7X7X7X7X7X7X7X7X7X7X7X7X7X7X7X7X7X7X7X7X7X7X7X7X7X7X7X7X7X7X7X7X7X7X7X7X7X7X7X7X7X7X7X7X7X7X7X7X7X7X7X7X7X7X7X7X7X7X7X7X7X7X7X7X"
};
