/* XPM */
static char *result[] = {
/* columns rows colors chars-per-pixel */
"64 64 233 2 ",
"   c #1C5B57",
".  c #274D51",
"X  c #264D5D",
"o  c #284B5F",
"O  c #265554",
"+  c #235C52",
"@  c #26555D",
"#  c #2B5559",
"$  c #245B5D",
"%  c #2F5F5E",
"&  c #335A5B",
"*  c #1C7442",
"=  c #1F6E52",
"-  c #1F7452",
";  c #246B43",
":  c #206D4F",
">  c #26754D",
",  c #246354",
"<  c #2B6356",
"1  c #226C53",
"2  c #25655C",
"3  c #2F615E",
"4  c #256C5C",
"5  c #2A6C5A",
"6  c #366A5A",
"7  c #237654",
"8  c #277956",
"9  c #297C55",
"0  c #26745B",
"q  c #2A735B",
"w  c #36785C",
"e  c #1F556D",
"r  c #2C4764",
"t  c #224C65",
"y  c #2C4D63",
"u  c #2B436D",
"i  c #254C6E",
"p  c #2B4C6C",
"a  c #304663",
"s  c #324C69",
"d  c #245463",
"f  c #2B5463",
"g  c #245D65",
"h  c #2B5B65",
"j  c #25556D",
"k  c #2A556C",
"l  c #265C6E",
"z  c #2B5C6C",
"x  c #315264",
"c  c #325E67",
"v  c #34566C",
"b  c #2A4572",
"n  c #2B4772",
"m  c #274973",
"M  c #344872",
"N  c #2A5574",
"B  c #315472",
"V  c #325D71",
"C  c #246362",
"Z  c #2A6363",
"A  c #246C60",
"S  c #2B6C62",
"D  c #26636C",
"F  c #2B616C",
"G  c #266E6C",
"H  c #296E6C",
"J  c #326566",
"K  c #306D63",
"L  c #31626E",
"P  c #3A646A",
"I  c #257060",
"U  c #2B7262",
"Y  c #2C7C62",
"T  c #307166",
"R  c #397468",
"E  c #266070",
"W  c #2D6270",
"Q  c #306070",
"!  c #3D6171",
"~  c #367474",
"^  c #426F52",
"/  c #417B56",
"(  c #484D7E",
")  c #495C79",
"_  c #4A6C6F",
"`  c #436474",
"'  c #477874",
"]  c #6A7B71",
"[  c #687978",
"{  c #47823A",
"}  c #48933D",
"|  c #5CAC3E",
" . c #64AE3F",
".. c #64B43E",
"X. c #35874D",
"o. c #378C51",
"O. c #398767",
"+. c #4A8A47",
"@. c #548A48",
"#. c #459448",
"$. c #559848",
"%. c #488A56",
"&. c #479859",
"*. c #549958",
"=. c #699853",
"-. c #57A847",
";. c #59AD42",
":. c #4EA356",
">. c #56AB56",
",. c #5BB253",
"<. c #5BB25B",
"1. c #66AC4A",
"2. c #64B442",
"3. c #69B643",
"4. c #6DBB43",
"5. c #6BB74B",
"6. c #72BB46",
"7. c #71B34F",
"8. c #75BD4A",
"9. c #6AAA57",
"0. c #78B854",
"q. c #508D6D",
"w. c #499667",
"e. c #599973",
"r. c #6A946E",
"t. c #79936C",
"y. c #658977",
"u. c #48A06D",
"i. c #57A866",
"p. c #5DB365",
"a. c #4EA274",
"s. c #57AA79",
"d. c #5CB478",
"f. c #67AD72",
"g. c #64B979",
"h. c #77C746",
"j. c #7AC34C",
"k. c #7DC252",
"l. c #96985F",
"z. c #83BB5B",
"x. c #8B9377",
"c. c #88B267",
"v. c #89A676",
"b. c #96BB77",
"n. c #C5AA79",
"m. c #83CD4D",
"M. c #87D24E",
"N. c #82C553",
"B. c #87C757",
"V. c #8DCB5B",
"C. c #91CD5F",
"Z. c #8BD154",
"A. c #94D25E",
"S. c #9AD75F",
"D. c #93C866",
"F. c #97D264",
"G. c #99D461",
"H. c #96C271",
"J. c #A1C67A",
"K. c #3D4D83",
"L. c #525195",
"P. c #705794",
"I. c #556C8F",
"U. c #69708D",
"Y. c #746995",
"T. c #794AA8",
"R. c #7653B0",
"E. c #5766A1",
"W. c #736AB0",
"Q. c #7154C7",
"!. c #847798",
"~. c #8954B5",
"^. c #8767A7",
"/. c #9470B4",
"(. c #A67DB7",
"). c #985EC2",
"_. c #8267C9",
"`. c #9B65C4",
"'. c #8C6DD2",
"]. c #A76FCE",
"[. c #B37BD5",
"{. c #5A848E",
"}. c #678B88",
"|. c #6A918E",
" X c #789B98",
".X c #66BA83",
"XX c #69A192",
"oX c #7682AD",
"OX c #6CC183",
"+X c #848886",
"@X c #889889",
"#X c #908B96",
"$X c #899C9B",
"%X c #93A386",
"&X c #89A395",
"*X c #ACB091",
"=X c #9284A2",
"-X c #889EA5",
";X c #A78CB3",
":X c #85A4A4",
">X c #A9BCAA",
",X c #CFB587",
"<X c #B5C7B3",
"1X c #DDC293",
"2X c #E4C796",
"3X c #D1C8AC",
"4X c #D5D3B7",
"5X c #F5D9AC",
"6X c #E6D4B3",
"7X c #F9E3BB",
"8X c #B290C2",
"9X c #BC89D7",
"0X c #C18EDB",
"qX c #CED3CC",
"wX c #D6D7D5",
"eX c #E8DBC9",
"rX c #E4DFDA",
"tX c #EAE3C8",
"yX c #FBEAC7",
"uX c #FDF0CF",
"iX c #E7E2DD",
"pX c #FDEDD3",
"aX c #F4E8DA",
"sX c #FDEEDB",
"dX c #FDF2D4",
"fX c #FEF5DB",
"gX c #EBE6E3",
"hX c #EEE9E8",
"jX c #F4ECE7",
"kX c #FAEFE2",
"lX c #F4EDEA",
"zX c #F8F0E9",
"xX c #F9F2EC",
/* pixels */
"+   . . O . X X . X X X X X d d d j t t d f t k d @ @ @ @ X   d X $ + h Z h Z h f h d X . . + + O + . + # O # O + + + + ; : + * ",
", , , : +       X X X @ X X d k t d k d k X d d t f @ X X @ t X @ i k z V h Z F @ t o X .   . O . + O + + O O O + + + + O + + * ",
", ,   + + $ + + X X X X X X t d d d d d t X d k d i d X X X o i i i i p z h h h t d X @   + + O O # O O # # + # + + + + + , + ; ",
"2 2 2 2 2 Z C < O @ @ O # # d d d @ d @ @ # $ $ d   d # # r i i i p d d k $ @ $ X o   @ + + . + + + + + + + + + O + + + + + , ; ",
"2 $ h 2 2 h < < # # # # @ d @ $ $ $ $ $ $ % # # $ $ $ @ i y i i u i i m b p d k d y p p d @ @ d f f d @ # f # f d $ $ d O d d , ",
"2 2 Z 2 < < < < # # # # d   $ $ $ $ # $ $ % # # $ $ $ j j y t i i i m b b p j k d k p p d f f d $ d h f f f f f d @ @ @ $ d d = ",
"2 h 3 Z < < < < # # # # d @ $ $ $ $ $ $ $ % # # $ $ $ i i x y y i i b b u i k j i f f h @ d # d d 2 $ + < < , + < Z 3 2 2 4 2 1 ",
"Z 2 Z 2 < 0 5 4 $ 2 2 2 5 5 % 3 3 3 3 % 5 J % % 5 5 c f m x y y t m i u b r a f i f f f @ f # d   $ 2 2 , , 2 , < C h 2 h 2 2 4 ",
"Z C K q 4 5 5 1 2 2 $ 2 5 < 3 3 % % % 3 5 J 3 % 5 5 Z k l l y y a m u m p r r f i f f k O d #   $ 5 5 4 A 5 5 U A 5 A U A Y 0 8 ",
"U 6 U U 0 5 0 0 2 2 2 2 5 5 3 3 % % % % J J % % 5 5 c k k l i i u i u u m r a f i f f f @ @ # d $ 5 4 q 5 q 4 5 A q I S A U q 7 ",
"I U S U 4 4 1 5 $ 2 2 2 5 5 & % % 3 % % J   c % < 6 c f k k i j k u u u u r a f i h f f @ d # d $ 5 5 q q 4 q 5 A q A A S 0 U 9 ",
"U U q S 0 4 5 5 , 2 $ 2 < 5 % % % % % 3 J 2 J 3 5 5 c z Z k i i k y b i p i u i r a a m d X   $ 5 0 q 2 5 5 q q 5 5 A U q U A 7 ",
"> 9 9 9 0 0 4 7 $ 2 2 < 5 6 % % 3 3 3 % J   J L 3 3 x c & x N j k y n M u m a p i i i i @ @ @ $ < w q 5 0 q q 0 4 5 A 4 A q q : ",
": 9 X.7 > 9 9 q 5 5 5 5 % % J J J J J J = g 2   J J ) v x & P ` ) v N a i r t u p r i i   # t $ 5 q q 5 q q q w 5 0 S 5 A q 5 > ",
"0 I A - 0 0 0 0 5 c c h L h V V V L S F g g = g P ` [ _ _ _ y.x.!.P.( u N i i u u s p i t # X $ 5 0 q 5 5 5 5 5 5 I 5 q 5 q q q ",
"I 0 I 0 0 0 6 6 3 c c c V V g C g C V V g j g ! Y.=X@Xt.9.=.t.;X(.~.P.L.L.L.M s y r u i d # @   $ 5 5 5 5 5 4 5 5 I q 0 q 0 5 0 ",
"I 0 0 0 0 0 U 6 3 c c c V V V V V C V V g l ! U.x.%Xc.V.C.z.c.%X;X~.T.T.R.W.L.L & x p x # d @ d $ 5 5 5 5 5 5 5 4 I q q q q q q ",
"4 I I 0 0 0 0 0 5 5 < c c c c c c c c h J 6 q.x.z.B.V.C.C.D.V.D.%X+X[ [ [ |.U.w./ J & a # f O O h S A 0 A I A 4 A q A U 4 A S A ",
"0 A I 0 0 Y q q 6 5 5 5 c c c c c c h J R $...N.m.C.C.b.C.V.B.z.N.6.2.| -.-.:.>.:.&./ P v # @ @ h S A q A S S A A 0 A A A A A S ",
"A I I 0 0 0 q q 5 < 5 5 3 c c c c c c 6 $.4.j.N.b.b.b.b.c.c.z.m.8.6.2.| ;.-.>.:.i.i.w.%.I.) c d h A 4 5 A I A A S q S I U U A I ",
"q 0 q 0 0 0 q T 3 3 3 3 J J J V V V ` @.4.h.N.v.(.;X;X(.P.] z.m.z.6.....;.;.>.<.i.i.*.q.q.oXI.i h 4 A 5 A A A A q U S I A A U A ",
"5 I U q 0 0 q q 2 6 5 5 3 3 3 3 J ) Y.9.6.j.v.;X[.0X[.`.T.[ z.8.6.6.3.2.;.;.-.>.p.q.I.U.u.{.L.K.k A A 0 0 S A A 0 A I 5 S I U A ",
"5 I I 0 q q 8 0 5 5 5 3 J J J J ) Y.=X0.h.v./.].9X0X[.).~.!.z.h.8.4.....;.;.-.>.<.y.R._.E.{.E.L.J A Z 2 Z C Z A A 2 2 2 2 2 2 2 ",
"4 q q I I 0 0 q q 2 4 4 4 5 % J ) ^.v.j.h.#X].[.0X0X[.~.^.+Xz.j.8.4.3...;.;.-.>.<.}./.'.Q.E.I.I.Z S A C Z A = A 2 2 2 2 2 2 2 2 ",
"A A A A A I 5 Z Z T K 6 K q K q _ t.0.h.M.#X].[.9X9X].~.!.z.m.8.8...3.3.1.2.,.,.,.r.W.'._.Q.{.Y 5 4 4 2 A A A 4 2 2 2 2 2 2 2 < ",
"A A A A I 4 q Z Z Z S Z U 6 K 6 %.3.h.h.Z.@X/.[.9X9X;X!.t.N.B.N.h.6. .1.=.r.,.,.<.p.XXW._.Q.{.O.w 0 A 2 = A A 2 2 2 2 2 2 2 2 2 ",
"= = 4 4 0 5 Z 5 S $ g $ $ 5 5 / 1...h.h.m.v.=X8X8X8X*XD.B.B.k.j.6...=.] ^.R.y.9.,.<.e.U.W.Q.|..Xw.I 4 2 C A 2 2 2 2 2 2 2 2 2 2 ",
"= A A 5 5 5 Z g 2 2 g 2 g 2 $ %.2.h.h.M.M.B.H.J.J.J.F.F.Z.B.N.j.....t.!.~.~.W.e.,.p.p.f.|.W.|..Xu.Y 4 2 2 C 2 2 2 2 2 2 2 2 2 2 ",
"C D D z F k B i k k k k k k k / 2.6.h.M.Z.S.G.S.S.S.F.F.V.N.k.j.6.4.r.P.R.R.Q.y.<.p.p.g..XXX.Xd.u.U A 2 2 3 5 2 2 2 2 2 2 2 2 2 ",
"= D C F z z z j k k k k k k v / | h.h.m.Z.A.F.G.G.G.F.F.Z.N.k.j.8.6.-.[ P.R.U.e.<.p.d.g.g.OX.X.Xa.Y C 2 2 2 2 2 2 2 2 2 2 2 2 2 ",
"g D C l F F F g z Z Z k x k k 6 +...h.j.m.V.C.F.G.C.V.B.B.k.k.j.5.5.5.9.q.[ :.>.>.p.p.f..X.X.X.Xa.U A C $ Z $ Z % Z h 2 Z 2 3 Z ",
"C C C D F z z D g g z D Z k k t 6 } 2.6.j.k.B.B.V.V.B.k.0.0.5.5.1.1.-.-.-.>.:.:.:.i.d.d.g..X.X.Xu.Y C D Z % Z % Z $ Z Z Z D A S ",
"2 C C C D Z Z D D C C C W m n n x ^ +.$.-.1.7.7.7.7.7.1.1.1.$.| } } +.} X.#.#.&.&.*.i.s.s.s.s.s.O.Y I D D Z C Z C H D Z H D D W ",
"2 g C C Z C C C C Z D Z z M M M s x x v ^ @.*.@.+.{ $.=.@.} { } { +.*.%.*.*.o.o.o.X.w.a.w.R T Y O.I G A C Z H C Z C C Z C Z D H ",
"2 g C C 2 g g C C C C g l p p p p i n i B P 6 5 < & 6 t.l.l.l.l.v.*X>X>X<X>X&.X.> > 9 O.A Z C A A 4 $ C C 2 C $ C C g 2 $ C C C ",
"2 2 C   g 2 C C Z D C C E p p p p m m m N k d h d r ( l.n.n.n.n.,X6XeXgXgXqXq.> 1 : , 1 , 1 = - = 7 2 2 2 2 2 2 2 2 2 2 2 2 2 2 ",
"4 A A g C C C Z Z Z C Q W z N N p p p p N B F F F j ] *X2X2X2X1X2X6XeXiXgXqX*.8 9 7 7 : 1 = 1 - - = = = 1 : 7 : = , = = 1 1 : : ",
"A A A A A A D Z S D Z Q W B B B B p n p V z E E j P *X2X5X5X5X5X6XeXeXiXgXqXe.9 9 9 0 9 q C Z 5 0 5 Z C 2 C C C C = C C Z 2 = 2 ",
"2 2 = g g 2 C = A A D D D k k j j y k d F Q Z Z C Z ,XtX7XuX7X7XyXeXtXjXhXrX X' 5 0 q U 4 D F C C C Z D D D D D l D D D D D C C ",
"2 2 2 2 = A I A A A D D D k k k k d d k f Q Z Z C ' 3XyXuXdXdXyXyXpXaXaXjXiXqX}.T T Z U S H H A A G Z Z Z Z D Z Z D D D l D D E ",
"= = - = - - 7 0 = A C C 2 f f f f @ d   j C Z Z R *XeXuXdXfXdXuXpXpXaXkXxXlXiX|.H T S U q H H G A H Z D D D D D D D D D D D Z C ",
": : : - - - : = g g C C C d d h d d d d @ d C Z ' 4XyXdXdXfXfXuXpXpXsXkXxXlXgX|.H C Z U S H H S G H K D Z S F Z S D S Z Z D A D ",
"- - - - - = 2 2 A = = C 2 @ @ d j @ @ @ @ d = g R 4XuXdXfXfXfXdXpXsXsXkXxXlXhX>Xy.K Z I U H J T K K T Z S F Z S Z D H H Y U Z D ",
"= : 1 2 C C A 2 C C g   2 d d d @ d d i @ d C g ~ 4XuXfXfXkXfXdXsXsXsXkXxXxXlXrX X~ C U I T U T H T U H H H H H H U Y U U U Z A ",
"= = = A A A A A A A A A A A g g h d h # @ g C C ' 4XuXfXfXfXfXdXpXsXsXkXzXxXxXhX:X~ S U Y T H H H H H U S H U H G G G G G G A S ",
"$ = C A A A A A A A A A A A A g @ d j f h h f Z ' 4XuXfXfXfXfXdXpXsXsXsXxXxXxXhX X~ U I Y T H H H H H U T U U G G G G G G G S S ",
"2 2 = C = C A A A C = A A A A g f d d f h 2 g Z ' 4XuXfXfXfXdXdXpXsXsXsXzXlXhXwX X~ U Y U T H H H H H T H U U G G G G G G G Z 5 ",
"2 2 C A A A A C A A C A A A 4 f h f d d h h p = ~ 3X6XtXtXtXtXtXeXeXrXiXiXgXwX:XI.G U U S U H T T T T H G H H G G U Y I U Y C D ",
"2 2 2 A A A A = C A A A A A A   f h d f C Z f k J y.&X&X&X&X&X$X$X-X-X-X-X-X X' H H U U U T U T T T T H H H H H H H G H U D l j ",
"2 2 = A A A A A C A A C A A A e f d d f g % f h C $ 2 J C C Z z z z z Q l W N z z V z C C F Q L Q Q Q l l l l l l l l l l l j j ",
"2 2 g C A A A A A A A A A A A e f d h # g $ f f f $ g Z C C F l z z z Q l z z z z Q k S D F L L Q L Q l l l l l l l l l l l j k ",
"2 2 2 A A 4 A A A A A A A A A   @ j d f h Z f f f $ 2 Z C Z Z l z z z Q l V z V z Q k S Z F L Q L L F l l l l l l l l l l l k j ",
"2 2 2 A A A 2 A A A A = A g A e f h d f g h d j h C g Z C C C l l z z Q z z z z z V z Z C l W F F F F l l l l l l l l l l j j f ",
"2 2 2 2 2 2 2 2 2 2 C 2 A = 2 $ d f @ d $ @ d   d d C C g = C E E E V z Q Q z Q Q z k C S l F z F F F l l l l l l l l l l l j k ",
"2 2 2 2 2 2 2 2 2 2 2 2 2 2 2 @ d @ f d @ #   d   d d g g C C E E l Q z Q Q z Q V k k Z D l F F F F F l l l l l l l l l l l j h ",
"2 5 2 2 2 2 2 2 2 2 2 2 2 2 2 @ d @ $ d @ @ d d d d   d   g C E E D V z Q Q z F L k k H C l F z F F F z l l l l l l l l l l j h ",
"5 3 2 2 2 2 2 2 2 2 2 2 2 2 2 @ d f @ d d @   d   d d d d 2 C E E E L k F Q F Q z k k Z D D F F z F F l l l l l l l l l l l j t ",
"2 2 2 2 2 2 2 2 2 2 2 2 2 2 2 @ d @ @ h @ @ d d d d d d d d f E E E L k Q Q z z j k k Z C l F F F F F l l l l l l l l l l l p t ",
"2 5 2 2 2 2 2 2 2 2 2 2 2 2 2 $ d @ d d @ @ f d d d d g d d f k E W k k Q L z j z k j Z Z C F F F F F l l l l l l l l k j k r y ",
"Z 2 2 2 2 2 2 C 2 2 2 2 2 2 2 @ f @ @ d @ @ d     d d d k d d f k j V x k j p x x i i f f k h f f h f X k d y f y k f t f t o . ",
"2 = g C = g C C Z C 4 Z 2 4 2 @ @ $   @ @ $ d   d d d d d d h j j j v V p f p x f i i f X k f h k h d k o o o o o o o o o o o . ",
"4 A 4 2 A g 2 = = C = C 2 2 4 g d h j $ $ d @ d $ g $ f @ @ @ j j j k x k p p x x i i f f d h k h h f @ o o o o o o o o o o o . ",
"= A A = C = = C C C C = 2 A 5 g C d g $ $ d f g $ h @ @ $ @ @ g j j x f p p k f f p k t f y d h h f f k o o o o o o o o o o o . ",
"C C A C A C C g = A 2 4 U q S Z g g d $ $ $   $ f 2 @ @ @ d   j j j f x k k p s f i y f f d h d h h f d o o o o o o o o o o o . "
};
