/* XPM */
static char *result[] = {
/* columns rows colors chars-per-pixel */
"64 64 185 2 ",
"   c #010101",
".  c #0D0102",
"X  c #010909",
"o  c #0E0E0E",
"O  c #1B0F0A",
"+  c #05110E",
"@  c #08140F",
"#  c #051F0D",
"$  c #061311",
"%  c #071816",
"&  c #101010",
"*  c #1B1B1B",
"=  c #2C0506",
"-  c #2C090B",
";  c #350608",
":  c #380608",
">  c #24140D",
",  c #2C1C1F",
"<  c #06210E",
"1  c #2F1E21",
"2  c #01222B",
"3  c #222222",
"4  c #2E2E2E",
"5  c #312123",
"6  c #353535",
"7  c #313833",
"8  c #393939",
"9  c #423D3E",
"0  c #76442D",
"q  c #7C4830",
"w  c #726338",
"e  c #1E3C48",
"r  c #1D3A50",
"t  c #1D564D",
"y  c #1C5E55",
"u  c #21414F",
"i  c #3E4847",
"p  c #3F4B4A",
"a  c #274D51",
"s  c #264D5D",
"d  c #284B5F",
"f  c #265554",
"g  c #235C53",
"h  c #2B5D56",
"j  c #24535C",
"k  c #2B5559",
"l  c #245B5C",
"z  c #2D5E5D",
"x  c #345857",
"c  c #35525E",
"v  c #335C5B",
"b  c #1D6F4C",
"n  c #1C7346",
"m  c #1F6E52",
"M  c #1F7352",
"N  c #24674A",
"B  c #206D4F",
"V  c #25704D",
"C  c #237D4F",
"Z  c #246354",
"A  c #2B6355",
"S  c #226C52",
"D  c #25655C",
"F  c #2B635B",
"G  c #266D5B",
"H  c #296C5A",
"J  c #326A57",
"K  c #31685D",
"L  c #237654",
"P  c #2A7155",
"I  c #247E52",
"U  c #287B55",
"Y  c #26745B",
"T  c #2A725B",
"R  c #2C4764",
"E  c #224D65",
"W  c #2C4D64",
"Q  c #2B446C",
"!  c #254C6E",
"~  c #2A4A6C",
"^  c #304663",
"/  c #304D62",
"(  c #324D6B",
")  c #245363",
"_  c #2A5463",
"`  c #2B5A65",
"'  c #24536E",
"]  c #2A556C",
"[  c #265C6E",
"{  c #2B5B6C",
"}  c #315263",
"|  c #325C65",
" . c #264370",
".. c #2B4772",
"X. c #274970",
"o. c #2F4874",
"O. c #235472",
"+. c #256363",
"@. c #2A6362",
"#. c #256D61",
"$. c #2C6C61",
"%. c #26636C",
"&. c #2B616C",
"*. c #266E6C",
"=. c #296D6C",
"-. c #326565",
";. c #306C65",
":. c #32666C",
">. c #257060",
",. c #2B7261",
"<. c #2D7C62",
"1. c #387170",
"2. c #464646",
"3. c #484747",
"4. c #4F4C43",
"5. c #414A4A",
"6. c #4C4C4C",
"7. c #514B4C",
"8. c #49514F",
"9. c #485151",
"0. c #515151",
"q. c #575B59",
"w. c #5A5A5A",
"e. c #625255",
"r. c #665658",
"t. c #68575A",
"y. c #725C5F",
"u. c #4E7A51",
"i. c #766457",
"p. c #447777",
"a. c #616161",
"s. c #686868",
"d. c #786F64",
"f. c #727272",
"g. c #B4151B",
"h. c #B71921",
"j. c #C0161D",
"k. c #DE1A21",
"l. c #E11D26",
"z. c #ED1C24",
"x. c #E21F28",
"c. c #E12027",
"v. c #83503A",
"b. c #925438",
"n. c #9A593C",
"m. c #198739",
"M. c #5C834B",
"N. c #48BC6A",
"B. c #D7A719",
"V. c #F2BC11",
"C. c #FDC10E",
"Z. c #C47E88",
"A. c #078FB9",
"S. c #1B9BC0",
"D. c #1DA5CD",
"F. c #24A1C5",
"G. c #959A9A",
"H. c #9A9A9A",
"J. c #959FA0",
"K. c #A1A1A1",
"L. c #ADADAD",
"P. c #BFAFB2",
"I. c #B2B2B2",
"U. c #B8B2B3",
"Y. c #CC838E",
"T. c #D28C97",
"R. c #DD929D",
"E. c #EF98A5",
"W. c #F39DAA",
"Q. c #C2B0B3",
"!. c #FCA2AC",
"~. c #EDA7B1",
"^. c #FFA3B1",
"/. c #F2AAB5",
"(. c #FFB4BF",
"). c #C2C2C2",
"_. c #C3CBC6",
"`. c #CFCFCF",
"'. c #D2D2D2",
"]. c #DDDDDD",
"[. c #EFEFEF",
"{. c #F3E3E5",
"}. c #FFEDF0",
"|. c #F3F3F3",
" X c #FFFFFF",
/* pixels */
"g t f a a f s s s u d j d s _ ) ) ) ' ) ) E ) ) ) j _ j j j E j s ) g ` ` | &.@._ ` j E a a f g t g f f f h f k g g t g t Z Z n ",
"Z Z g m y g y y s E s s d k E ) ) ) E ] _ W ) ) ] E j j s j j j j ' ] { { @.&.` _ E s s t t a f f f k f f f f l g g N g g N N n ",
"N Z y g y g y g s s s j s s ] ) ) ) ) ) ) W ) ) ) ) ) W s s s ! ! ! E ] { ` @.` _ _ j j f g t k f f f g f f f f t g g t f N h N ",
"D D D ` @.@.@.A k j j f k f ) ) j ) ) j ) k l l ) ) j k k W ! X.! ~ ] ) ] l l j j E j j y g f g h h g g g g h h f h g g g g g n ",
"D +.F +.@.D A A k k k k ) y ) l l l l l l ` k k l l l j ' W ! X.! X.X.X...~ ) ] ) ) ~ ~ ) l z ) j ` ) z _ j _ k ) l ) ) j ) ) Z ",
"D F ` F Z A h A k k k k j ) l l l l l l l v k k l l l ! ! } E X.! ! X.....~ ' ] _ ) ~ ~ _ ) _ ) ) j ) _ z _ j _ ] j l y l j ) Z ",
"D @.D +.F A A A k k f k ) ) 5.2.2.3.l l D v k k l l l ' ' } W W X.!  .....! _ ' ~ _ _ _ j ) k ) j D D Z A Z D Z A +.@.z @.G G S ",
"+.@.@.@.A G H G D D D D H A 5.2.2.3.x v H -.z v H H ` { ! } W W W X.~  . .R ^ _ ~ _ ` _ l ) f ) ) D l Z h Z Z h A +.F ` @.D D Y ",
"@.@.,.,.G G G G D D l D H p 2.2.2.2.x v H -.| F A H | { { [ W W R ! ~  .Q R R _ X._ _ _ j ) h ) l H H G G T T H G H >.$.>.,.Y U ",
",.T ;.H G P G P D l D D A p 6.7.7.3.v z :.-.F v H J ` { { [ ! ' X. . .~ X.R ^ _ X.` ` _ j ) k j l H H H G $.G H #.T #.>.#.,.,.I ",
",.,.$.,.Y G G G D D l D J 8.R.^.^.t.x F -.m ` ` H H | ` ] ] ! ! ] Q Q Q ~ W ^ _ ! ` _ _ s ) k ) l A H H G H H T #.T #.$.#.,.,.I ",
",.T ,.,.G G P H D D D F p R.^.^.^.t.3.x -.D :.v H J ` { | ] ' ! ] / ..X.Q ! Q ! R ^ ^ X.y k s j p 2.2.3.J H T T H H #.#.T $.#.L ",
"B U U U Y G P H D D D i 6.R.^.^.^.t.2.v :.y -.-.z v } ` ` ] ] ! ] / o.o...X.R ~ ! X.! ! ) f 5.2.6.7.7.3.J T T <.H G #.#.G T T V ",
"V U U I C C I T H A 8.7.R.^.^.^.W.r.2.| l D i 2.2.2.3.c } | ] ] / ) O.( O.^ E Q ~ R ! ! j 5.2.2.R.^.^.t.3.J T T H G #.G #.T T V ",
"Y >.>.Y T T T Y H 5.R.^.^.^.^.^.t.2.2.2.h i 2.2.2.2.3.3.c | ] ] / ) O.O.O.) E ~ ~ ^ ~ ! ) i 2.6.R.^.^.t.2.A H H G ,.T T Y T Y H ",
"#.Y Y Y T T ,.K v 5.R.^.^.^.W.W.r.2.2.2.2.2.2.6.6.6.3.2.2.3.3.2.2.2.~ O.' E ^ ~ Q / ~ ! j i 6.R.^.^.^.t.2.A H H G #.T P H T T T ",
">.Y Y Y Y Y H K K 5.T.W.W.W.t.2.2.2.2.2.2.2.2.H.L.I.a.6.6.2.2.2.2.2.2.2.2.2.2.2.^ ^ ! / 5.6.R.^.^.^.^.t.2.h A G H >.T T Y Y T H ",
"H >.>.Y Y P 5.5.2.2.2.2.2.2.2.2.2.2.2.2.2.2.2.2.2.H.L.L.L.w.2.2.2.2.3.2.2.2.2.2.3.2.2.2.2.R.^.^.^.^.^.t.2.2.H $.G T >.$.#.$.>.#.",
"Y >.>.Y Y 5.3.2.2.2.2.2.2.2.2.2.2.2.2.2.2.2.2.2.3.6.6.6.2.3.2.2.2.2.2.2.3.2.3.2.2.2.2.2.2.T.^.^.^.^.^.t.4.4.H *.#.T #.#.>.#.$.>.",
"G #.>.Y p 2.2.3.2.3.2.2.2.2.2.9 0.0.2.2.2.2.2.2.H.L.L.L.w.3.2.3.2.2.2.2.2.2.2.2.2.3.2.2.2.2.T.W.W.W.!.t.B.V.M.m #.T $.>.$.>.$.#.",
"T Y T Y p 2.2.2.2.2.2.2.2.2.2.o `. X4 8 2.2.2.2.6.6.6.6.H.w.2.2.2.2.2.2.2.2.2.2.2.2.2.2.2.2.2.3.2.2.B.w 2.B.C.M.T #.#.#.>.,.#.#.",
"H >.,.Y p 2.2.2.3.2.2.2.2.2.o   _.[.4 8 2.2.2.2.H.L.L.L.L.q.2.2.2.9 8 2.2.2.2.2.2.2.2.2.2.2.2.2.2.2.B.C.w B.V.u.T #.,.#.#.#.>.$.",
"T >.Y Y 5.2.2.2.2.2.2.2.2.8 o   m.#   6 2.2.2.2.2.2.2.2.3.2.2.* &     6 2.3.2.2.2.2.2.3.2.2.2.2.2.2.2.B.V.V.u.+.#.D D D D D D D ",
"G H T Y p 2.2.2.2.2.2.2.2.o   m.#     8 3.2.2.2.2.2.3.2.2.2.2.]. X7     6 3.2.2.2.2.2.2.2.3.2.2.2.2.2.2.4.F G #.D D D D D D D G ",
"#.#.#.#.p 2.2.2.2.2.2.3.3.&           8 2.2.2.3.2.2.2.2.2.2.2.`.[.N.<   8 2.2.2.2.2.2.3.2.2.2.2.2.2.2.2.2.F #.#.D D D H D D D D ",
"#.#.+.m p 2.2.2.2.2.2.2.5.2.&     8 3.3.2.2.2.2.2.2.2.2.2.2.3.o   m.#   8 2.2.2.2.2.2.2.2.2.2.2.2.2.2.2.2.D #.D D D D D D D D H ",
"m #.>.G p 2.2.3.2.2.2.2.2.2.2.2.2.3.5.3.2.2.2.2.2.2.2.2.2.2.2.o         8 2.2.2.2.2.2.2.2.2.2.2.2.2.2.2.D G D D D D D D D D D D ",
"M #.#.G 5.2.2.2.2.6.6.6.6.6.6.6.3.2.2.3.3.2.2.2.2.2.2.3.2.2.2.&       8 2.2.2.3.2.3.2.2.2.2.2.3.2.2.2.2.l D D D D D D l D D D D ",
"+.+.+.[ p 2.2.2.2.H.L.L.L.L.L.I.a.6.2.6.6.6.2.2.2.2.5.3.3.2.2.2.3.2.2.2.2.2.3.2.2.2.2.2.2.2.2.2.2.3.2.l D G D D i 6.6.2.2.h D D ",
"+.+.%.[ p 2.2.2.2.2.2.2.2.3.2.H.L.I.a.K.U.U.a.6.6.6.6.6.6.6.6.6.3.2.2.2.2.2.2.2.3.2.2.2.2.2.2.2.2.2.l H D D D D i G.L.a.6.3.h D ",
"+.+.+.[ p 2.2.2.2.2.2.2.2.2.2.2.2.H.L.I.~.^.Q.L.L.L.L.L.L.L.L.L.w.2.2.2.2.2.2.2.2.2.2.2.2.2.2.2.3.5.K +.` F F @.8.6.2.H.L.w.v @.",
"+.+.+.+.p 2.2.2.2.2.2.2.2.2.6.6.6.6.3.K.~.W.P.a.6.6.3.2.2.2.2.2.2.2.2.2.3.2.2.2.2.2.2.2.3.2.2.2.2.A +.+.@.F ` @.G.L.a.6.6.2.H.p.",
"D +.+.+.p 2.2.2.2.6.6.6.6.6.H.L.L.L.I.L.L.0.G.L.L.I.a.6.6.2.2.2.2.2.2.2.2.2.2.2.2.2.2.2.2.2.2.2.l Y =.@.%.#.+.@.5.2.H.L.L.p.%.%.",
"D +.+.+.[ p 2.2.2.H.L.L.L.L.w.6.0.0.K.3       6 2.H.L.I.U.w.2.2.2.2.2.2.3.2.2.2.2.2.2.2.2.2.2.H Y ,.,.+.+.+.%.5.6.2.2.2.2.z =.%.",
"D ` y ` l i 2.2.2.2.3.2.2.2.2.]. X X X8 o o o 2.0.0.3.H.I.a.6.3.2.2.2.2.2.2.2.2.2.2.2.2.2.4.2.H #.#.@.` +.l l i K.a.2.2.z +.` D ",
"` m +.+.+.p 2.5.2.2.5.2.2.2.2.]. X X X X}. X X X X Xs.2.G.L.L.w.2.2.2.2.2.3.2.2.2.2.2.2.2.5.Z b m m D G D H p 2.G.I.a.2.l D D D ",
"#.#.y %.+.+.p i 2.2.2.2.2.2.2.]. X X(.^.E.!.^.}. X|.s.2.2.2.2.2.2.2.2.2.2.2.2.2.2.2.2.2.2.Z S M M m m S S S p 2.2.G.L.q.N S B B ",
"#.#.#.#.#.#.+.p 2.2.2.2.2.2.2.'.|. X(.^.1 Y.^.}. Xs.2.2.2.2.2.2.2.2.2.3.2.2.3.2.2.2.2.P P +.+.T G Y +.+.+.D 8.6.6.2.2.z +.D +.D ",
"+.y m +.D D D #.i 2.2.2.2.2.2.2.2.'./.W.5 Y.W.{.|.s.2.2.2.2.2.2.2.2.2.2.2.2.2.2.2.2.K $.G &.&.+.D +.+.%.%.p H.L.I.a.{ %.%.%.D +.",
"D +.+.m D G >.#.p 2.2.2.2.2.2.2.2.2.2.2.2.2.2.2.2.2.2.2.2.2.2.2.2.3.2.2.2.2.5.2.K $.$.,.T *.=.#.#.*.@.@.&.8.6.6.H.L.1.%.[ %.%.%.",
"m m m m M M M Z N i 2.2.9 2.2.2.2.2.2.2.2.2.2.2.2.2.2.2.2.2.2.2.2.2.2.2.5.2.F #.#.$.@.,.,.=.=.*.#.*.@.%.J.L.L.I.a.@.&.%.%.%.@.#.",
"B m M M b b $     8 2.2.& 6 9 2.2.2.2.2.2.2.2.2.2.2.2.2.3.2.2.2.2.2.2.2.} _ #.+.+.#.$.,.,.*.=.#.*.=.;.i 2.2.3.J.L.p.=.$.@.%.+.%.",
"M M M M @   8 2.&     6 v.>   6 2.2.2.2.2.2.2.2.2.2.2.2.2.2.2.2.2.2.2.} _ ] $.;.;.$.@.#.,.=.;.;.;.;.:.9.6.3.5.{ @.%.=.*.<.,.+.+.",
"S m S Z + 8 2.2.2.2.3.&   0 >   6 2.2.2.2.0.0.0.0.0.3.2.2.2.2.2.2.2.2.2.} ] @.@.@.=.@.,.,.;.;.$.5.2.2.H.I.a.9.%.=.,.,.,.,.,.#.%.",
"B B B $   8 2.2.2.2.2.2.&   0 >   6 2.2.6.]. X X X Xf.0.2.2.2.o   8 2.2.2.d =.;.=.=.;.,.<.,.=.=.9.6.2.2.H.L.L.M.*.*.*.*.*.*.$.#.",
"D H D + 8 2.2.2.2.2.2.2.2.o   0 >   6 0.{. X X X X X X Xs.2.2.o 8 2.2.2.o 8 K &.=.=.;.T <.;.=.5.H.I.a.2.2.5.K *.*.*.*.*.*.*.@.$.",
"D D D + 8 6.6.2.2.2.2.2.2.2.o   q >   ).|. X X X X X X Xf.2.o 8 2.2.2.2.o 8 2.K =.=.;.T G 9.6.5.2.H.I.a.5.K *.*.*.*.*.*.*.*.$.$.",
"D D D + 8 T.r.2.2.2.2.2.8 o 6 o 0 n.>   _.[. X X X X X X Xf.& 8 2.2.2.2.o 6 2.2.-.:.;.8.3.H.U.a.2.2.H.L.p.=.*.*.*.,.,.<.,.,.+.+.",
"D D D + 9 2.6.2.9 2.2.o     8 &   0 n.n.>   ). X X X X X X X4 8 2.2.2.2.o 8 2.2.2.2.2.H.a.2.H.I.a.5.2.@.=.=.=.=.=.=.=.<.=.%.[ ] ",
"D D D $ Y.y.T.,         8 2.3.5.&   0 b.n.>   ). X[.[. X X X4 9 3.2.2.7.o 8 2.2.2.2.2.H.I.q.2.H.I.q.| [ [ [ [ [ [ [ [ [ [ [ ' ' ",
"D D D $ Z.E.1   t p 2.2.3.2.2.2.3.3.&   0 b.>   ).4   ).|.[.4 Y.r.7.3.T., 6 2.2.2.2.2.2.K.a.2.2.H.p.:.[ [ [ [ [ [ [ [ [ [ [ ] ' ",
"D D D %       t #.p 2.2.2.2.2.2.5.6.0.* &   0 O     X     X   8 7.R.y.3.o 8 2.2.2.2.2.2.H.I.q.2.3.| &.[ [ [ [ [ [ [ [ [ [ [ ' ] ",
"D D D #.%   t G #.p 2.2.2.2.2.2.0.]. X X X8 & o q O A.d.n.D.2 6 T.W.W.e.& 8 2.3.2.2.2.2.2.H.w.| { &.&.[ [ [ [ [ [ [ [ [ [ [ ] ` ",
"G D D D D % t D D p 2.2.2.2.2.7.]. X X X X X X X8   q F.d.F.2   6 9 i o 6 3.2.2.2.2.2.2.2.2.5.| &.{ &.[ [ [ [ [ [ [ [ [ [ [ ' ` ",
"D D G D D D D D D D p 2.2.2.2.]. X X X X X X X X X6 0 b.S.i.O           8 3.2.2.2.2.2.2.5._ &.&.&.&.&.[ [ [ [ [ [ [ [ [ [ [ ] _ ",
"D D @.D D D D D m G D p 2.2.0.]. X X X X X X X X X8 o o & & & 8 3.3.2.3.5.2.2.2.| ] ] &.+.[ &.&.&.&.&.{ [ [ [ [ [ [ [ [ [ [ ' ` ",
"D D D Z l g g g l l h g g i `.[. X X X X X X X X X X X X X X Xs.3.2.2.2.2.2.2.2._ { ] @.=.[ &.&.&.&.&.[ [ [ [ [ [ [ [ [ [ [ ] E ",
"D D D + .       . .       . .   ).[.[.[. X X X X X X X X X X Xs.2.2.2.2.2.2.2.2.} ] ] @.+.[ { &.&.&.&.[ [ [ [ [ [ [ [ [ [ [ Q E ",
"D D + . j.:     g.z.:     g.z.; . . .   ).[.[.[.[.[.[.[.[.[.[.a.2.8 2.2.2.8 9 2.d { ] +.@.+.&.&.{ &.&.[ [ [ [ [ [ [ [ ] ] ' ~ d ",
"$.F + j.z.z.=     g.z.=   g.z.z.z.z.z.: . .     . .     . . .     . .     . .     r ! W _ _ ] ` ` ` ) _ W _ _ E _ _ ) _ _ _ d a ",
"D m + h.z.z.:     g.z.:     g.z.z.z.z.z.l.k.: . j.z.=   j.z.z.=   j.z.=   j.z.;     r _ W _ ` ) _ ) ` _ d d d d d d d d d d d a ",
"G #.o g.z.z.z.:     g.z.;   j.z.z.z.z.l.=   j.z.z.z.=   g.z.z.;   j.z.=   g.z.=   .   e _ ) ` ` ` ` ) _ d d d d d d d d d d d a ",
"#.G $   j.z.z.z.;   g.z.=   j.z.z.x.k.-     j.z.z.z.:     g.z.:   g.z.=   j.z.:   g.:   e _ _ ` ` _ { _ d d d d d d d d d d d a ",
"m +.+.% h.c.c.c.-   X h.- . h.x.c.-         g.x.x.x.x.- . h.x.x.- h.x.-   h.x.x.- h.x.-   r { ) ` ` ) _ d d d d d d d d d d d a "
};
