/* XPM */
static char *result[] = {
/* columns rows colors chars-per-pixel */
"64 64 86 1 ",
"  c #1A5E51",
". c #1D575D",
"X c #1D5D5D",
"o c #255D4D",
"O c #274D51",
"+ c #264C5C",
"@ c #284B5F",
"# c #265554",
"$ c #235C52",
"% c #295E57",
"& c #26555D",
"* c #2B5559",
"= c #255B5D",
"- c #2F5F5E",
"; c #1D7342",
": c #1E6D52",
"> c #1F7352",
", c #216C45",
"< c #226D4F",
"1 c #277446",
"2 c #207F42",
"3 c #297944",
"4 c #24704D",
"5 c #227C4F",
"6 c #246454",
"7 c #2A6453",
"8 c #236B53",
"9 c #2A6A56",
"0 c #25655C",
"q c #2C625E",
"w c #266C5B",
"e c #2A6B5A",
"r c #237453",
"t c #297255",
"y c #257A54",
"u c #287B55",
"i c #26745B",
"p c #29725B",
"a c #1F556D",
"s c #2C4764",
"d c #224D65",
"f c #2D4E63",
"g c #2B436D",
"h c #254D6E",
"j c #2B4B6D",
"k c #304663",
"l c #314D6B",
"z c #245463",
"x c #2B5463",
"c c #255C65",
"v c #2B5B65",
"b c #25566E",
"n c #2A556B",
"m c #265C6E",
"M c #2B5C6C",
"N c #315465",
"B c #315D67",
"V c #32566E",
"C c #264370",
"Z c #2B4772",
"A c #274973",
"S c #2E4874",
"D c #304971",
"F c #245372",
"G c #2C5472",
"H c #2B5873",
"J c #305370",
"K c #315D70",
"L c #1F6464",
"P c #246262",
"I c #2A6362",
"U c #246C60",
"Y c #2C6D64",
"T c #26636B",
"R c #2B616C",
"E c #266E6B",
"W c #296E6B",
"Q c #316666",
"! c #306D60",
"~ c #31626E",
"^ c #257060",
"/ c #2B7262",
"( c #2D7B61",
") c #266070",
"_ c #2C6270",
"` c #306070",
/* pixels */
"$ OO#O+++++@+@zzzhzhzzzzz&&zz+.&+zovvRRvxc&dOO# #o#####*#o#  6:;",
"6666 X $+d&+&@nzzzzxzfhzhz&++&+z&bnMKvvIxd@+O#O*####*#%#o $ o$$;",
"66 $$$X$++&+++dzzdzzd@zzzzz@+z+hhhhnMvR=d&&&  ###*#**#%##$oo$o$,",
"000IP=-7*&#&**zzz&z&z*-$z&z*#shhhjzdnc#=&d+& o#$$$$oo$$$#$$$$7$,",
"0=0-0c77****&.=======-**===&bsAhhhAAZjzxxdjjz&&zc&z=x*&xz&=&&cz6",
"0qvI67q7****a&===0===-**=&&bhxfhhChZZjbnzzjjxxxzzczxxxxxz&.=&zz6",
"0qP07677****&&=====*=-**===hhfssChCZZhxFjxxx#z*z&0=%70$$0I0vcw0r",
"0P0IqwwpP$00e9------9Q--weBvbNffshgCCskxhxxn&c*..=0777707qqcq00i",
"0I//wwww00=07e------!Q--e9BnnmsfshjCgsfxhxxx#z*z=ewppeepUw/e/(^y",
"//eYiwrt0000ee------QQ--99vMMmbhhCgCjssxCnxx#z*z$eewUpUeUpUUU/pr",
"/e/pwwww=000q9------Q0--99BMnnhbngggAssxhxxn&z#aceewepepUiU/^/(r",
"^//^wwtw00=099------Q0Q-eqBvvnhhnfSjghsCskkh.*&=9ipewe/p9eUUpU^r",
"4uuuiwwt0q0099--q---QX~~--NBBxhbnfZZCjsghhhha#+=9ppeppppeeUwUpw4",
"4uu>55yp9e7eQ-QQQQQQ=0X:QQKNNBnnNzFjFsdjsfhh&*.=0pp9ppppweUUUpp4",
"i^^iptpp9vvBBBKKHQQQ:c0=QQKVNBnnfdFFFzdjgkjhd*+$9ppe8eeep^tppppw",
"^iiippeeQBBBKKcvcPK~aF=0QQKVNBnnNbFFFzjgjfsA.**acw9/wwewpUwpwwpt",
"^iiiiipeBBBBKKKKKcKBcmX0QQNVNBnnfahFFkzjjkhf*z*z=eewee9we/wpippw",
"i^^iiipp999vBBBBBBBvBK--99BNBnbhndFSSnfnkhkk*&&#veUwUUUUwp/eUU/e",
"w^^ii^ppe99eBBBBBBvQBK--e-NNNNnnfNlSSnnhkhsk*#&#vUUpUUYUUpU/UUUU",
"w^^iuuppeq99-BBBBBBvBB990-NNfnjhAnSjjhNv+*++*&*&vUwwUUeUUpUU/pU/",
"pipiiii/I---QQQKKKBBvv00=%vBnhFhhnSSjA*xx*O+*#*&vUUiUUUUpU^eUUU/",
"p^/p^ippeeee---Q--e9Q-746o***zxx.+nhhhNxx*++*&&*BUwiUUUUp/U/U/^e",
"wi^iipupe09qQQQQQQ--QQ!(9:XX-=&z+*fnnh=-=d+++@fn-UIPII0UU0000000",
"Uww^/ipi!wwww9---q99--94<%-*=+zz**fnhn=--++O+*@zvwwP0UUU00000000",
"UU:UUUwII!!!!!!!!!I0==<666$*xxxxaOhnnnxPPvzzdzz&Piw0UUUw00090000",
"UUUUwipIIIRYeY!!!!II!!t866z&xxzznxSbnb*ccv&&&z&.0iw0UUU00000000q",
">LUe9wI!Y$===e9799==0=6 6o**==&z&&nbbbxccc&&&&&&0pw0Lw0000000000",
">UUwwwc0PcP00cP0cPvv0c6::6z=&zxxzx&VJGxcc&=zz+&0iiw0000000000009",
"0TTMRVGhnnnnnnnnnnnJmm=0.+&nhxzqzxxcJnQ-P&000L:0UeUPe00000000000",
"PPPRMMRhnnnnxnnnnnhhJJvvzzzx#$c&x#zqvqUUPIe000PweU0w000000000000",
"0PPMRMRPcIInnnznnnzbJJnczxzxxxx&q&-vqvuteI00000IPPPTqcv00qIvIII-",
"LPTPMTRcPMPmqnnhnnhhJnc&zxzcx*79=cqIPIttt9<<>00IwiTPI=qqc-IPPTUU",
"0PPTTIITTPPTMZZZSGHDSjbnFnHxNx=v99q===rrr4weiP0Pw/^PTITTUITIWTWR",
"00ccPPPPPRPPMDDDlDDSnJzMnznNnbvv67777733330eiw0i^^UWIPUIUTPPPTWR",
"0c:cPPcPPPP0mjnjjASjFGnczjzxbnvc=%79773118<:PPPwUwIc0cPPPP0P0cc0",
"00c0P=PITIcPTjSjjAASFnzcznxjnxv&%%7$o%11887:88w>:r00000000q00000",
"UwLPPPPIIPv__HGHSnSjHJRRMbRMnnPP9687772yuyi>8ww:>>88<88:8::<88::",
"ULLwLUPWIWI_`GJJJjjjJH))FvbnnnqI66;11;yyuuturP0iwwPPL0PU0P00P000",
"00ww00wiLUTTTnnnnxzzR_eI:0PPq-=74,,670p/ew//wMRPPPTTTTTTTmTTTT0L",
"0000P:^L^wTTTnnnndznx`IIaa0Pnv7 ,,67qv///pI/pEWUUUIYIIIIPTmTTTTT",
"::::r>>rw000PvxxxzzzzPIIP0aPnv7::vqqnHUUP/U//YWEEEITTTTWTTTTTTIL",
"<:>>>>::PPP00zczzzzd&PPPcP:I&c66bbnbxnPUUPI//WW/UW!YYIIRIIWIYRPP",
">>>>>U00P0000&&xz&x&&&Lca:cIcz:nnnbnnxYQYYI//Q!!YQYRRIWIWIWE^(WI",
"<8<000P0P:PPPzzzzzzz&zPPPX0II-cnnnnmnMIQIIP//WWWWY/WWWEWW/(^^/TP",
"4::UUiULULwiUUccvzzx&cPPPPPUPPP)T)vTvMWQWW!/(YWWWWWWW/YYEEEEEEUY",
"000UULUwiLULUUUc*nz*cIcIIPIIIPIMHM~R``WWWWY/(WWWWWW/YYYEEEEEEEYU",
"000LLULiiULUUUUcxzzvcqzII=0IPPIMMHRR`MYWWWQ//!WWWWW/W/^EEEEEEEqe",
"00wUwiLULUwwLUUcvzzxcvx00=cRPPYHMmR`HMYWWW!(//W/!W/WEWEEE/(//(TP",
"000wiULwL^LiUwLPxzz*Mqxn00=PPPIMMRM`HM!WWW!i//W!(Q(WWEWWEWWE(Tmn",
"600ULU^UiLUiLUUcxcn=cvxx==PIPPRRHHM`RHMMH`vTIR~~`~`Kmmmmmmmmmmhb",
"000ULwUUUULLLUUcxzzvcqnxx0PIPPIMRMH~MMMHR`MITR~~~~`Hmmmmmmmmmmbb",
"00wLwLUULwiUiUUc*zn*cqxxx=PIPPIRHMM`RHvRH`MIIR~~~`_)mmmmmmmmmmnb",
"000UUUwUwLUwULwcvnzxc-xxn=cIPPIHRMHRMHvHR`HIEmMRRRRmmmmmmmmmmmnn",
"e0000000000000w&z&&z&#az.zcca:P)))`v``_``vMPImRRRRRmmmmmmmmmmmnz",
"0000000000e0000&z&&z&&z.az.:LaP)))`v``H``nnIPmRRRRRMmmmmmmmmmmnv",
"00w000000000000zzx&c&&.z&=a&=:Pm))`M``M``nvTImRRRRRHmmmmmmmmmMFc",
"e00000000000000#z&&z&&..&zzzzPP)))`vK`H`bnnIEmRRRRMmmmmmmmmmmmFd",
"P0000000000e000&n=&n&=&.ac.zzzx)))`M``HvHvnIPmMRRRRmmmmmmmmmmmjd",
"0e9000000000000&z&&z*=za.&a&zcxx)mvv_KvHFnnIITRRRMRmmmmmmmmbnbss",
"P000000P000000w&z&zc&&z&.czzznznnMJJnnnxxjhzxzvnvvnxdxfznfzfxx+O",
"00L000wP00PP0w0=&z=&z#.a&zzzzc&bnbVKjjnNNhjxdxzvnvn&@@@@@@@@@@@O",
"wUw000P:wPw:0PPczzz===*z&c=&&&&bHnnNnjjfxhhxxxvnvznx@@@@@@@@@@@O",
":U:PULL0L00P0UpcPcc.==&=&v&x&-&zbbNxnfnNxjzfxxzvzvv&@@@@@@@@@@@O",
"UwLPP:0LP:Ue/pUIvPz==zc==0&&&..aabxNjjjxxhfxxdvnvvzf@@@@@@@@@@@O"
};
