/* XPM */
static char *result[] = {
/* columns rows colors chars-per-pixel */
"64 64 4 1 ",
"  c black",
". c #020757",
"X c #9C5A3C",
"o c #C26813",
/* pixels */
"ooooooooooooooooooooXXXXXXXXXooooooooooooooooooooooooooooooooXXX",
"oooooooooooooooooooooooooooooooooooooooooooooooooooooooooooooXXX",
"oooooooooooooooooooooooooooooooooooooooooooooooooooooooooooooXXX",
"oooooooooooooooooooooooooooooooooooooooooooooooooooooooooooooXXX",
"oooooooooooooooooooooooooooooooooooooooooooooooooooooooooooooXXX",
"oooooooooooooooooooooooooooooooooooooooooooooooooooooXXooooooXXX",
"XXXXXXXXXXXoooooooooooooooooooooooooooooooXXXXXXXXXXXXXooooooXXX",
"XXXXXXXoooooooooooooooooooooooooooooooooooooooooooooXXXooooooXXX",
"XXXXXXooooooooooooooooooooooooooooooooooooooooooooooXXoooooooXXX",
"XXXXXXooooooooooooooooooooooooooooooooooooooooooooooXXoooooooXXX",
"XXXXXXoooooooooooooooXXXXoooooooooooooooooooooooooooXXoooooooXXX",
"XXXXXXooooooooooooXXXXXXXXXXXXXXooooooooooooooooooooXXoooooooXXX",
"XXXXXXoooooooooo        .............oooooooooooooooXXoooooooXXX",
"XXXXXXoooooo             ...............            XXooooooXXXX",
"XXXXXXXXXXXX              .............             XXooooooooXX",
"XXXXXXXXXXXX               ..........               XXXXooooooXX",
"XXXXXXXXXXXX                .........               XXXXooooooXX",
"XXXXXXXXXXXX                 ......                 XXXXooooooXX",
"XooooooXXXXX                  ....                  XXXXooooooXX",
"XooooooXXXXX                   ..                   XXXXooooooXX",
"XooooooXXXXX                                        XXXXooooooXX",
"XooooooooXXX                                        XXXXooooooXX",
"XooooooooXXX                                        XXXXooooooXX",
"XooooooooXXX                                        ooooooooooXX",
"XooooooooXXX.                                     ..ooooooooooXX",
"XooooooooXXX...                                  ...ooooooooooXX",
"XooooooooXXX...                                 ....ooooooooooXX",
"XoooooooXXXX....                               .....ooooooooooXX",
"XoooooooXXXX.....                             ......ooooooooooXX",
"XoooooooXXXX......                           .......ooooooooooXX",
"XoooooooXXXX.......                         ........ooooooooooXX",
"XoooooooXXXX........                        ........ooooooooooXX",
"XXooooooXXXX........                        ........ooooooooooXX",
"XXooooooXXXX.......                          .......ooooooooooXX",
"XXooooooXXXX......                            ......ooooooooooXX",
"XXXXXXXXXXXX.....                              .....ooooooooooXX",
"XXXXXXXXXXXX....                                ....ooooooooooXX",
"XXXXXXXXXXXX....                                 ...ooooooooXXXX",
"XXXXXXXXXXXX...                                   ..ooooooooXXXX",
"XXXXXXXXXXXX..                                     .ooooooooXXXX",
"XXXXXXXXXXXX                                        XoooooooXXXX",
"XXXXXXXXXXXX                                        XooooooXXXXX",
"XXooooooXXXX                                        XXXXXXXXXXXX",
"XXooooooXXXX                   .                    XXXXXXXXXXXX",
"XXooooooXXXX                   ..                   XXXXXXXXXXXX",
"XoooooooXXXX                  ....                  XXXXXXXXXXXX",
"XoooooooXXXX                 ......                 XXXooooooXXX",
"XoooooooXXXX                ........                XXXooooooXXX",
"XoooooooXXXX               ...........              XXXooooooXXX",
"XoooooooXXXX              .............             XXXooooooXXX",
"XoooooooXXXX             ..............             XXXooooooXXX",
"XooooooXXXXX            ................            XXXooooooXXX",
"XooooooXXXXXXXXXXXXXXXXXXXXXXXXXXXXXXXXXXXXXXXXXXXXXXXXooooooXXo",
"XooooooXXXXXXXXXXXXXXXXXXXXXXXXXXXXXXXXXXXXXXooooooooXXooooooooo",
"XooooooXXXXXXXXXXXXXXXXXXooooooooooooooooooooooooooooXXooooooooo",
"XooooooXXXXXXXXXXXXXoooooooooooooooooooooooooooooooooXXooooooooo",
"XooooooXXXXXXXXXoooooooooooooooooooooooooooooooooooooXXXXXXXoooo",
"XooooooXooooooooooooooooooooooooooooooooooooooooooooooooooXXoooo",
"XooooooXooooooooooooooooooooooooooooooooooooooooooooooooooXXoooo",
"XooooooXooooooooooooooooooooooooooooooooooooooooooooooooooXXoooo",
"XXXXXXXXooooooooooooooooooooooXXXXXXXXXXXXXXXXXXooooooooooooXXXX",
"XXXXXXXXoooooooooooooooooXXXXXXXXXXXXXXXXXXXXXXXooooooooooooXXXX",
"XXXXXXXXoooooooooooooXXXXXXXXXXXXXXXXXXXXXXXXXXXooooooooooooXXXX",
"XXXXXXXXXXXXXXXXXXXXXXXXXXXXXXXXXXXXXXXXXXXXXXXXooooooooooooXXXX"
};
