/* XPM */
static char *result[] = {
/* columns rows colors chars-per-pixel */
"64 64 11 1 ",
"  c black",
". c #464646",
"X c #ED1C24",
"o c #9C5A3C",
"O c #22B14C",
"+ c #FFC20E",
"@ c #00B7EF",
"# c #B4B4B4",
"$ c #FFA3B1",
"% c white",
"& c None",
/* pixels */
"&&&&&&&&&&&&&&&&&&&&&&&&&&&&&&&&&&&&&&&&&&&&&&&&&&&&&&&&&&&&&&&&",
"&&&&&&&&&&&&&&&&&&&&&&&&&&&&&&&&&&&&&&&&&&&&&&&&&&&&&&&&&&&&&&&&",
"&&&&&&&&&&&&&&&&&&&&&&&&&&&&&&&&&&&&&&&&&&&&&&&&&&&&&&&&&&&&&&&&",
"&&&&&&&&&&&&&&&&&&&&&&&&&&&&&&&&&&&&&&&&&&&&&&&&&&&&&&&&&&&&&&&&",
"&&&&&&&&&&&&&&&&&&&&&&&&&&&&&&&&&&&&&&&&&&&&&&&&&&&&&&&&&&&&&&&&",
"&&&&&&&&&&&&&&&&&&&&&&&&&&&&&&&&&&&&&&&&&&&&&&&&&&&&&&&&&&&&&&&&",
"&&&&&&&&&&&&&&....&&&&&&&&&&&&&&&&&&&&&&&&&&&&&&&&&&&&&&&&&&&&&&",
"&&&&&&&&&&&&&&....&&&&&&&&&&&&&&&&&&&&&&&&&&&&&&&&&&&&&&&&&&&&&&",
"&&&&&&&&&&&&&.....&&&&&&&&&&&&&&&&&&&&&&&&&&&&&&&&&&&&&&&&&&&&&&",
"&&&&&&&&&&&&&.....&&&&&&&&&&&&&&&&&&&&&&&&&&&&&&&&&&&&&&&&&&&&&&",
"&&&&&&&&&&&&&.$$$.&&&&&&&&&&&&&&&&&&&&&&&&&&&&&&&&&&&&&&&&&&&&&&",
"&&&&&&&&&&&&.$$$$..&&&&&&&&&&&&&&&&&&&&&&&&&&&&&....&&&&&&&&&&&&",
"&&&&&&&&&&&..$$$$..&&&&&&&&&&&&&&&&&&&&&&&&&&&......&&&&&&&&&&&&",
"&&&&&&&&&&..$$$$$..&&&.....&&&&&&&&&&&&&&&&&&...$$$..&&&&&&&&&&&",
"&&&&&&&&&.$$$$$$....&.......&&&&&&&&&&&&&&&&&...$$$..&&&&&&&&&&&",
"&&&&&&&&&.$$$$$$..................&&&&&&&&&&&..$$$$..&&&&&&&&&&&",
"&&&&&&&&&.$$$$.........###..............&&&&..$$$$$..&&&&&&&&&&&",
"&&&&&&...................####................$$$$$$...&&&&&&&&&&",
"&&&&&........................................$$$$$$...&&&&&&&&&&",
"&&&&....................####..................$$$$$.++&&&&&&&&&&",
"&&&&........... %% .........#.....................+..++&&&&&&&&&",
"&&&&..........  %% .....#####.....................++.++&&&&&&&&&",
"&&&&..........  O  ............    ................+++&&&&&&&&&&",
"&&&&.........  O   ............%%   .................&&&&&&&&&&&",
"&&&&.........      ............%%O  .................&&&&&&&&&&&",
"&&&&..........   ..............  O  .................&&&&&&&&&&&",
"&&&&...........................     ................&&&&&&&&&&&&",
"&&&&...........................    .................&&&&&&&&&&&&",
"&&&&.....#######...................................&&&&&.....&&&",
"&&&&...........###.###............................&&&&&&.##...&&",
"&&&&.............###$$##########..................&&&&&&...##.&&",
"&&&&...............#$$#..........................&&&&&&&##....#&",
"&&&&..........#######.####......................&&&&&&&&..###&&&",
"&&&&&....#####....#    ..####..................&&&&&&&&......&&&",
"&&&&&..........%%%%    ....##..................&&&&&&&&.#...&&&&",
"&&&&&..........%%%%%%%%%%%..###...............&&&&&&&&..##..&&&&",
"&&&&&&.........%%%$$$$$%%%...................&&&&&&&&&...##.&&&&",
"&&&&&&&........%%%$$ $$%%..................&&&&&&&&&&&.....&&&&&",
"&&&&&&&&.........%$$ $$%%.................&&&&&&&&&&&.###.&&&&&&",
"&&&&&&&&................................&&&&&&&&&&&&&...##&&&&&&",
"&&&&&&&&&.............................&&&&&&&&&&&&&&####.&&&&&&&",
"&&&&&&   ... .......................&&&&&&&&&&&&&&&....##&&&&&&&",
"&&&&  ..   .o  ....................&&&&&&&&&&&&&&&&....&&&&&&&&&",
"&&&& ......  o  ....................&&&&&&&&&&&&...##..&&&&&&&&&",
"&&&  .......  o  ....%%%%%.....  ....&&&&&&&&&&&....###&&&&&&&&&",
"&&& .........  o  ..%%%%%%%%... .... .&&&&&&&&&.##....&&&&&&&&&&",
"&&& ..........  o  %%%%%%%%%.. ..... ..&&&&&&....##..&&&&&&&&&&&",
"&&& .$....... . oo  %%%%%%%%%. ..... ...&&&..##...##&&&&&&&&&&&&",
"&&& .......   .  ooo  %%%%%%%% ..... ......#..##...&&&&&&&&&&&&&",
"&&& $.$     ....  ooo  %%%%%%% ..... ......##..##.&&&&&&&&&&&&&&",
"&&& $$  &.........  oo  %  %%% $...$ .......#...#&&&&&&&&&&&&&&&",
"&&&    &&..........   o        ..$.. .......##...&&&&&&&&&&&&&&&",
"&&&&  &&&........%%%%   o @oo@ .$$$. ........#.&&&&&&&&&&&&&&&&&",
"&&&&& &&&.......%%%%%%%%  o@o@  ... ...........&&&&&&&&&&&&&&&&&",
"&&&&&&&&&&.....%%%%%%%%%% oo@o      .........&&&&&&&&&&&&&&&&&&&",
"&&&&&&&&&&&....%%%%%%%%%%      .........&&&&&&&&&&&&&&&&&&&&&&&&",
"&&&&&&&&&&&&&.%%%%%%%%%%%%%%%%%.........&&&&&&&&&&&&&&&&&&&&&&&&",
"&&&             %%%%%%%%%%%%%%%.........&&&&&&&&&&&&&&&&&&&&&&&&",
"&&  X   XX   XX     %%%%%%%%%%%.........&&&&&&&&&&&&&&&&&&&&&&&&",
"&& XXX   XX  XXXXXX                      &&&&&&&&&&&&&&&&&&&&&&&",
"&& XXX   XX   XXXXXXXX  XX  XXX  XX  XX   &&&&&&&&&&&&&&&&&&&&&&",
"&& XXXX   XX  XXXXXX  XXXX  XXX  XX  XX    &&&&&&&&&&&&&&&&&&&&&",
"&&  XXXX  XX  XXXXX   XXXX   XX  XX  XX  X  &&&&&&&&&&&&&&&&&&&&",
"&&& XXXX   X  XXX     XXXXX  XXX XX  XXX XX  &&&&&&&&&&&&&&&&&&&"
};
