/* XPM */
static char *result[] = {
/* columns rows colors chars-per-pixel */
"64 64 54 1 ",
"  c #2C2D2D",
". c #2E302F",
"X c #2D2E30",
"o c #2F3130",
"O c #333434",
"+ c #363837",
"@ c #363739",
"# c #373938",
"$ c #3A3C3B",
"% c #3E403F",
"& c #3E3F41",
"* c #3F4140",
"= c #424443",
"- c #464847",
"; c #464749",
": c #474948",
"> c #4A4C4B",
", c #4E504F",
"< c #4D4E50",
"1 c #4F5150",
"2 c #535454",
"3 c #565857",
"4 c #565758",
"5 c #575958",
"6 c #5B5D5C",
"7 c #5E605F",
"8 c #5E5F61",
"9 c #5F6160",
"0 c #636564",
"q c #666867",
"w c #666769",
"e c #676968",
"r c #6B6C6C",
"t c #6E706F",
"y c #6D6E70",
"u c #6F7170",
"i c #727473",
"p c #767877",
"a c #757678",
"s c #777978",
"d c #7B7C7C",
"f c #7E807F",
"g c #7E7F81",
"h c #7F8180",
"j c #828483",
"k c #868887",
"l c #858688",
"z c #878988",
"x c #8A8C8B",
"c c #8E908F",
"v c #8F9190",
"b c #929493",
"n c #969897",
"m c #989A99",
/* pixels */
"jrritqqqqq0:$qfpuuuee5O79ifittt9e%-e9%     -tff01O70fmmnmmcq%>qq",
"ptrrrrrqqq>-5qitryrr1# %5rtuttrqq%+**222223-%fur1%0ffffffffq3->q",
"tirerrr6,>O%2qrqe9q22752,7qrrrt9,-**-ufff7q,%rtr1o7fftrqrttqr%%q",
"ttertqq2 ###*60qe97-rbxh:*977777+2tiicbvxfr>%0qq2%7qtttftttqr>%7",
"rrrtq002+7005%5099+ahgw9**7+OO*7%2fnbxhkfbf:%q071%0trqtttrrrqq2%",
"eqee0=#>ufkch5%$@&X*;*@&OO*375,%2fxkkhhfufr:%7%%%70qqrtrreetrq1 ",
"eqq9>36rjjxccf$,9w8&&>;O*>2ffhrO*hvhfffptt1% *0r7-70q0rqereeee3 ",
"333,=pjddfftti%tbxg*>91@2tfcbct.%ihffiuutr%%,1hnf%17370qrreee9> ",
"O.O%7ft0979>...7fp9#>5@o,uxhfi3O79uuuuuut7%7ccffa9@oo&9999779*.o",
"7773%0e2++O....O#%Ooo*99*%-qre3.O2ruuurr7% *fkfuy9@<9<&XO%%O%  o",
"00e7>==%.. %,,,,2>O:9azzq% %**%  7rrtreq7. %,ut07*@4ahw& %>>,>11",
"pfie0-OO%%%7fsdt97+9zbvvj9%  %%% *,,17e7,%%%%,171 *yhvh& %effpff",
"bnjtee=%etthbnnfr7ofchhhvf7.O2te*%..%27,%rut7%%,,O9xcgy&o>fmbmnn",
"jjfre0=%tcbcjjjch7+rduuuff7O2fbnxu-O7%O*qcnbx90:o+9fh9&X,pchhhhh",
"jiee0=>ekzkjjfpsp7o*5eruu5%.7fbkki,%7O%7xkxhxxkt22*9y9oo9vhhhhhx",
"pre9>O,dnjffddit9>:-->1qr1o-ijfff7-,7%>fxffffcchp9O5w8@*axpffffh",
"737,..,ikfffrtuu3%0q,%%,3%%7xftuf>*e7%*tfuuuufffh7.>99@2ww9yyutt",
"OoOo..,e0fuuutrq-%0eeq3%%.%7fftue**e0%,rfuututtff7Oo*5@o@@*99999",
"773777=>euuutee,%7qkvj072=%9uuuue%*e9%>ffftuuuff7%  O*79895*O%%+",
"eerree=%errrr0q%=rfkckjjf-%9rruq%%%*%.>ruetttffu1O>>,299999<>1*o",
"qtttre,=2123002%%tbkfjbbt1%>29t3%%%%%%*,30tttttt1+9rtfppifpeer5 ",
"7777770,.%%=72%.-ubkjjfff06%%,61.2q0te>%%277e077>%9thbnmbnctrr7O",
"OOOOOOO=779>%. -9fckfffrf01%1=%%7qfcbu0q3%%*e0%.*9ehxhxxhhhbnh99",
"23=O1,,7rkt61,%10efffuu0ee3%36=.7fchchxhf73*%*,%*thchhhhhhfxxhfe",
"q2->qffffcfff0-,3efreqtee7,=9t2%7xvfhvbvvff0*:*%*unxfffffptfphxr",
"7%-eicvbcfvbxue%%37367qte,%qte1%qhvfffffhvbht0%%>rbcfrrtrept9rr7",
"O -ixkjfjfjjxvr=..%  %09q,%qe-%9qcbffufriffff0%*0tvht99999999>%.",
"3%-tjfiffffjkbu7-.,%  %%%-6qq-%qqhvfrttrttffu7%.,eitr7%%%%%%%3e5",
"q2=2ftttrtffffte2%7,--==%%,qq=%0evxftttuuuuut0O %**>>>*%  %**9fi",
"0q-%rrttttutree7%%6ffffe=.%23%%0rhhfttttuttuu9% .%>**1u*.O*9ppif",
"qq>%0qrttttrq00= %0xxbvuqe6%% %60fftqfreutett9% *rbbvbbt%*erxhtt",
"tr>%00qqqeeqq0e=%9kkjkkvvf073= %%3rq0qrteeeee7% 2hffpufr**rxfttt",
"ir6,=-=,qqqqqqe**ubhpppxxzhrq>   %%>qqere*****o*9frruuue**efrrru",
"re7>   $,,22222:,uvduuudfkzq3$O*%%%%2222* *****132119utq**0qurer",
"e0>OOOO+OO+O  X2qtvduuuuupdq$o=qqtr7%   .%5eftr*o%%.*q65*%60rree",
"0*-07009999-..o1qrhptiurqri0$>0thnfq2% %O6qhbbvf9999* %%% %9e000",
"q%-0ekxxxxi622OO,rfiuuuqrrq0$>uxxvxh932*%6hvhbhchcvf*%23331*%%%%",
",-2rdxvvvvjda0@ *rhprrrqrr9,O>ixhhhxfff3@9hhhhhhvbhf*%00qe6. %*%",
".3rsvzjjjjvmcr=o*rdirqqqqq6O+2idhhfhbnf2@9fhhhhhhhht*%9fut6o 1ur",
".2hvjjhhjjjjhd0==qurruqrrq6O3ifitffhfff7o6fhiftfhhh* %rhmh3%o0vf",
" 2sjpppipipsir*o=ewqqqqeqe7O3sfttuufff2%O9hfuuuitfu*O*hhhh9%ehhr",
">>>,>>>>,e2:>-o +::9qqqq,-*O6titteetef*.O9fpitiutuu*o*mfff9offuq",
"3=$+    O,+O+o$%%$.>4233$  .>7rtqqettt* O9iputtuttu* *nfrr6%euqe",
".203O$OO+OO:2O7re0$OOOo++++O.,rtett0qt* *9yyrettrqy*o1hftr7O2099",
".31%0hxxj09>O+hbbxsy0<$dfpi7#>eq0eeqqq%%59rrrqtreqq**thuyy8OOO%o",
" $>7jxxxxzz6+04thgsyr4@gjq>*O+**%6qqe*% *9rryrrqqq9%*yhfy8*<2221",
"=o-ixdsddvvp59O-442<<;O66-o*====%,,,,**%%*qrtreqq91*2yhiy*O9ahhf",
"q%-uhitiiffxd$oO++$@@@@@..#30rtte%%.%0f3*X19969671%5ryyiy4*yhnnh",
"0$-thiiuiuidd6+,99q09099=.o+3hnvr%=9exbbg@OX@X@@%OX4tuyqq**fhftu",
"$.-rhitutisdq%.2erxxxczr73,o#ezjr%-iczzjr@>; Orgi9%4ruyr*%.*9rrr",
"-O>eittiuisi6.=3ihcxccxjhs6O 6jfq%#,9isu0O&<<6glhio4rut**%******",
"e--330rttttr3+7ihbjjjjjbbj9O 5dsr%o+%1552o@;8r058*O4rt9%*3ft2*%%",
"er,O+300qq003+7hcjhjjjjjkjiO.1ee9%=09%OoX 2>+o+OXXX29w6ofmbvhhro",
"fdi93%+-0q=+OO7dhiiiiiiiiu7O19eeq%=re66,X O:6666*X *18%o9hhhhu6o",
"sdieq2,,==,%+,->>,errrq>:-%o6ee0-,5rjli7>o-5tjki9*****o6ufffyy4 ",
"irtssdr3%*7>+7-%%=2222,=*%%%1221=,0fbbhr9+2thcbhi9&<6**9734628**",
"uednbndtrre>+qqerq%#Oo#7rrre=++$6%6bjffs9+,schfhi5O5qq9*o%%o%o*9",
"utdkkkxvvvi-$qehbvxr=$7qjnbvr9990%6xrrrr6+o,rrrr3Oo5qee976795**w",
"uusjhjzxxxi>$ehxxxxi-$rjffzxftq9=o,pqq,$=,++%$%%+ o5pzzxhhety**9",
"trupppsddsr>+ebxfddr3-2ksrppsuq9O $>>,-=:0$+====**oqzvvvnhiut**w",
"qqeeqqruutr-$exxsittr3Oqq66669q9OO#+++5iuq$-etiit9+szfffhhhu0**u",
"tturqqriutr>$efstttrq3oOOOOoO>q6O20q0qjbce$:ibbnh9Orpqutryy9**er",
"uuttq0ritrq>$0iiite0q3O236336:$#.2scccxhuw$,hkzzd7O%%+%%%%**O1r0",
"spptrtrrr0r>+qrrrrerr3O7shffr3-=o2sccvhtwq$>ppipt7O%-:*,****O*ru"
};
